<?xml version="1.0" encoding="utf-8"?>
<!-- Generator: Adobe Illustrator 26.0.3, SVG Export Plug-In . SVG Version: 6.00 Build 0)  -->
<svg version="1.1" id="Layer_1" xmlns="http://www.w3.org/2000/svg" xmlns:xlink="http://www.w3.org/1999/xlink" x="0px" y="0px"
	 viewBox="0 0 703 173" style="enable-background:new 0 0 703 173;" xml:space="preserve">
<style type="text/css">
	.st0{fill:#FFED00;}
	.st1{fill-rule:evenodd;clip-rule:evenodd;fill:#FFED00;}
</style>
<g id="Wortmarke">
	<path id="G" class="st0" d="M593.3,76.9h73.1v40.2c-0.1,9.7-6.5,18.3-15.8,21.1c-10.6,3-21.1,2.3-32.9,2.3h-48.8
		c-16.2,0.2-30,1.4-38.4-4.4c-6.4-4.2-10.3-11.3-10.3-19V58.7c0-8.1,4.5-14.1,10.6-18.9c7.2-6,22.3-4.5,38.2-4.5h48.8
		c19.2,0,31.9,0,39.1,5.1c10.7,7.7,9.8,22.9,9.8,22.9h-49.1c-1.5-7.6-5.9-9.6-15.8-9.6h-15.7c-10.8,0-14.8,3.5-14.7,9.9v46.7
		c0,5.6,0.8,8.1,5.2,10.2c3.5,1.7,9.3,1.4,15.9,1.4h12.4c11.8,0,12.8-6.4,12.8-13.4V96.1h-24.4V76.9"/>
	<path id="R" class="st1" d="M400.6,53.9h22.1c7,0,12.4-0.6,17.2,1.7c3.8,1.7,5.9,5.8,5.1,9.8c0.8,4.1-1.3,8.2-5,9.9
		c-5.1,2.2-8.8,1.6-17.2,1.6h-22.1L400.6,53.9L400.6,53.9z M349.4,140.5V35.4h96.7c11.2,0,23.8-0.9,32.9,3.3
		c10.3,4.8,15.9,10.3,15.9,21.9v2.8c0,9-3.8,13.7-11.3,18.5s-16.6,5.5-34.1,5.5h21.1c5.9-0.2,11.8,1.1,17.1,3.5
		c4.2,2.4,7,6.8,7.3,11.7v37.9h-51.4v-33.3c0-3.2,0.2-8.4-4.3-9.9c-4.5-1.4-8.1-1.1-16-1.3h-22.8v44.4H349.4"/>
	<path id="L" class="st0" d="M208.4,140.5V35.4h51.2v77.2h66.8v28.1h-118"/>
	<path id="D" class="st1" d="M128.3,78.4v19c0,3.1,0.5,11-4.5,13.2c-6.4,2.7-11,1.8-17.6,1.9H84.5V63.3h22c6.4,0,11-0.8,17.4,1.9
		C128.8,67.3,128.3,75.2,128.3,78.4z M130.8,140.5c13.3,0,27.8,1.1,37.4-3.5c9.5-4.6,11.3-16.8,11.3-23.2V62.2
		c0-6.4-1.7-18.5-11.3-23.2c-9.6-4.6-24-3.5-37.4-3.5H33.3v105L130.8,140.5"/>
</g>
</svg>
