<svg height="228" viewBox="0 0 361 228" width="361" xmlns="http://www.w3.org/2000/svg"><g fill="#fff"><g transform="translate(0 85)"><path d="m159 18.8c-1.7-.8-3.6-.6-6.1-.6h-7.9v7.8h7.9c3 0 4.3.2 6.1-.5 2-.8 1.8-2.6 1.8-3.4s.3-2.3-1.8-3.3z"/><path d="m251 20.2c.2-2.3.6-6 .5-6.9-.3-2.3-2.1-4.7-4-6.9-2.3-2.5-4.4-3.4-6.9-5.5h-240.6v58.3h14.5l56.2-11.2-2.8 11.3h96.7c.9-.5 1.3-.6 2.1-1 1-.5 2.1-1 3.1-1.3 1.5-.4 3-.6 4.6-.6.9-.1 1.8.3 2.4.9.4.6.7 1.3.9 2h5.5l.5-.9c.6-1 .9-1.8 1.9-1.8 5.1 0 9.8-.1 15.2 0 .5-.1.9.1 1.2.5.6.9.8 1.4 1.3 2.2l17.7-.1c.8-1.8 1.2-2.8 2.3-4.9 0-.1 0-.1 0-.1.1 0 .1 0 .2-.1 4.2-1.8 9.3-3.9 13.9-6 .2-.1.4-.2.6-.1.9.3 1.9.6 2.3.8.3.1.3.3.4-.2 1.2-4.2 2.7-8.4 4.3-12.5l6.2-11.2c-.4-1.4-.1-3.1-.2-4.7zm-184.5 18.4c0 2.2-.6 6.3-4 7.9s-8.5 1.2-13.3 1.2h-34.6v-35.8h34.6c4.7 0 9.9-.3 13.3 1.3s4 5.7 4 7.9zm52.1 9.1h-41.9v-35.8h18.2v26.2h23.7zm51.2-18.1c2.1-.1 4.2.3 6.1 1.2 1.5.8 2.5 2.3 2.6 4v12.9h-18.2v-11.3c0-1.1.1-2.9-1.5-3.3-1.8-.5-2.9-.4-5.7-.4h-8.1v15.1h-18.2v-35.9h34.4c4 0 8.5-.3 11.7 1.1 3.7 1.6 5.6 3.5 5.6 7.4v1c0 3.1-1.3 4.6-4 6.3-2.6 1.6-5.9 1.9-12.1 1.9zm69.7-8.1h-17.4c-.6-2.6-2.1-3.3-5.6-3.3h-5.6c-3.8 0-5.2 1.2-5.2 3.4v15.8c0 1.9.3 2.7 1.8 3.5 1.2.6 3.3.5 5.7.5h4.4c4.2 0 4.5-2.2 4.5-4.6v-4.2h-8.7v-6.5h26v13.7c-.1 3.4-2.4 6.3-5.6 7.2-3.8 1-7.5.8-11.7.8h-17.3c-5.7.1-10.7.5-13.6-1.5-2.2-1.4-3.6-3.8-3.7-6.4v-19.9c0-2.8 1.6-4.8 3.7-6.4 2.6-2 7.9-1.5 13.6-1.5h17.3c6.8 0 11.4 0 13.9 1.7 3.9 2.5 3.5 7.7 3.5 7.7z"/><path d="m46.7 22.1c-2.3-.9-3.9-.6-6.2-.7h-7.8v16.7h7.8c2.3 0 3.9.3 6.2-.7 1.8-.7 1.6-3.4 1.6-4.5v-6.5c0-.9.2-3.6-1.6-4.3z"/></g><g transform="translate(3 106)"><path d="m267.6 50.9c-1.7-1.1-3.2-3.3-5.3-3.8-3.8 2-7.1 4.3-11 5.7l-.4-.3c.1-4.9.4-9.8 1-14.7 0 0 1.3-9.5 2.2-9.9.6-2.1 1.4-4.1 2.4-6 1.1-2.1 2.2-4.3 3-6.6l2.6-5.2c.3-1 0-2-.7-2.7l-8.8-7.2c-.7.5-1.3 1.1-1.7 1.9-.3.1-5.5 9.9-8.1 14.4-1.5 4.1-2.8 8.1-4.1 12.2-.9 1.4-2.3-.4-3.6-.3l-13.7 5.8c-.7 1.5-1.4 2.9-2 4.5-1.7 4.6-3.5 9.3-5.6 13.9-1.6-.2-3.4 1.1-4.7.1-1-2.7-1.9-5.4-3-8-.5-1.7-1.1-3.3-1.8-4.9-1.9-.1-3.6 1.3-5.4 1.6-.4-.9.4-1.6.3-2.5-.3-.9-.4-2.4-1.8-2.2l-14.4.3c-.7.6-1.1 1.4-1.3 2.3-.8 5.9-1.2 11.8-1.1 17.8-.4 2.2-.2 5-.5 7.3-1.4-.4-1.6-1.6-2.7-2.5-1.2-.9-1.9-2.7-3.5-2.6-2.1 2.2-4 4.4-6.1 6.5l-.9.3c-.9-.7-2.2-1.1-2.6-2.1 2.1-1.8 4.5-3.4 6.9-4.7 1.5-1.2 4.3-1.2 4.4-3.6-.1-4.7-.6-9.4-1.6-14.1-.7-1.7-.1-4.7-2.4-5-1.8 0-3.6.4-5.3 1.1-1.4.6-3.5 1.4-4.3 2.2-4.3 4.7-8.9 9.5-12.8 14.5-1.5 1.8-2.2 4.5-4.2 5.5.3-2.4 1.1-4.7 1.4-7.2.6-1.6 1.5-4 .2-5.4-3.1-1.3-6.2-2.9-9.4-4.2-3.1-1.6-2 2.8-3.5 4.1l-1.7.1c-3.7-1.6-7.3-2.8-11.1-4.1-1.7.1-3.4.6-4.9 1.5-2.7 6.5-3.4 14-5.9 20.6-.6-.3-1.3-1-2.1-.6l-7.2 4.7c-1.5 1.1-3.2-.1-4.5-.8.5-5.2 1.2-10.3 1.8-15.3-1-1.8-3.4-.2-5-.8-3 1.1-8.6-2-9.1 2.9-.3 3.5-2.4 6.1-3.5 9.2-1.9 3.3-2.2 7.3-5.2 9.8-1.3.8-3 .3-4.3.2l-.2-.6c.8-5.4 2.7-10.1 4.1-15.2 0-1.7 2-3.9.1-5.4-3.6-.4-7.6.4-11.4.5-.7-.2-1.5-.1-2.2.3-1.8 7.2-3.5 14.5-5.2 21.7-.2 1.6-.6 3.8 1 4.6 3.4 2.6 4.9 6.1 8.7 7.6 4.1-.1 8.2-.4 12.2-1.1 2.5-2.5 5-5.5 7.9-8l.8-.3c.9 1.8 1.3 3.8 2.7 5.3 1.7.6 3.8-.2 5.8-.2 2.9-.4 6.1-.4 9.1-1.1 1.7-3.8 3.9-7.3 6.6-10.5 2.1 2 3.9 4.4 5.8 6.6l1 .4c4 .3 6-2.9 9.9-2.7-.5 3.1-1.2 6.3-2.1 9.3-.9 2.9-1 6.2-2.3 8.8-2-1.4-3.3-3.1-5.4-4.3-5.2 1-10.2 2.8-15.4 4.1-.5.4-1.2 1-.9 1.8 3.1 3.1 7 5.6 10.7 8.4 3.1 2 5.4 5 9.1 6.2 3.6-.4 6.6-2.8 9.7-4.2 1.3-.9 3.7-.9 3.9-3 2.8-13.1 5.9-25.9 8.8-39l.3-.1c3.1 3.9 6.8 7.7 10.2 11.4l1.7 1c4.2-.1 8.3-.5 12.4-1.2 5.4.5 7.9-4.7 11.1-7.5.5.4.2 1.1.4 1.7.3.8 1 1.3 1.8 1.4 2.3-1.4 5-2.2 7.2-4 2-4.5 3.1-9.3 6.2-13.2 1.3 4.1 2.1 8.4 2.4 12.7.5 1.2 0 3.9 2.2 3.9 3.7-.4 7-.4 10.5-1.3 2.6-1.6 4.3-3.8 7-5.2 1.1 1.2-.1 3.8 1.6 4.7l4.4-.1c4.7-3.8 9.6-7.6 14.6-11.2l.7-.1c1.1 3.2 2.2 6.2 3.1 9.4.5 1 1 2.5 2.4 2.2 4.7-3.3 9.7-6 14.2-9.4 2.9-2.4 7-4.1 9.8-6.8.2-.9.2-1.8-.4-2zm-159 18.5c-2.2 2.9-4.1 6.5-6.9 9.2-3.5 1.4-7.1.6-10.8 1-1.3-2.2-1.8-4.4-3.4-6.4-.5-.3-1.2-.3-1.7 0-3 2.8-5.3 7-8.6 9.3-3.8.9-7.7 1.5-11.6 1.8-2.5-2.6-5-4.1-6.9-6.9 1-7.3 3.4-13.7 4.6-21 2.9 0 5.5-.5 8.5-.1-.4 3.8-2.2 7.9-3 11.8-.3 2.8-3.3 6.8.2 8.8 3 .9 7.4 2.2 9.8-.9 3.5-6.6 5.3-14.2 8.8-20.9 1.4-1 3 0 4.7-.5.9.2 2-.2 2.9.3-.8 4.7-1.6 9.2-2.3 13.9.2 2.8 3.3 2.3 5 3.5 4.3 1.3 6.6-3.6 10.3-4.7.4.1.6.6.9.9zm32.3-4.8c-2.5 10.2-5 20.9-7.5 31.2-1.6 2.3-.2 6.7-3.7 7.5-2.9 1-5.6 2.5-8.6 3.3-1.6-.4-2.6-2.2-4.1-2.9-3.2-2.7-6.7-4.9-9.8-7.9 3.1-1 6.1-2 9.4-2.8 2.1 0 2.8 2.3 4.3 3s1.8 2.1 3.5 2.1l1-1.2c1.2-5.2 2.9-10.2 3.7-15.5.6-3.3 2.2-6.3 2.1-9.7-.3-.7-1.2-1-1.9-.7-3.8 1.1-7.2 2.8-10.9 4-2.3-2-4.3-4.3-6-6.8.9-7 3.1-13.4 4.7-20.1.3-1.3 1.3-2.2 2.6-2.4 2.5.3 4.7 1.6 7.1 2.2 2.3 1.2 4.8 1.5 7.3 2.6 2.6-.1 1.9-3.4 2.9-5 2.5 1.2 5.1 2.2 7.3 4-1 5-2.3 9.9-3.4 15.1zm32.3 4.1c-1.3 1-2 2.8-3.8 3.1-4.7.5-8.6 1.2-13.4 1-3.9-2.8-6.2-6.4-8.9-9.7l.2-1.1c5.1-6.9 10.1-14.7 16.7-20.6 2.2-1.3 4.3-2.6 7-2.2l.4 1.6.6 12.4-.3.9c-4 2.5-7.8 5.1-11.5 8-.5.6-.7 1.4-.3 2.1 2.4 1.6 4.4 3.8 7.2 4.9 1.9-.3 2.4-2.2 3.8-3.3 1.3-1 2-2.6 3.5-3.6.9.6 1.8 1.4 2.4 2.3-.7 1.8-2.5 2.7-3.6 4.2zm70.8-5.3c-.8-.1-1-1.1-1.1-1.8-1-2.9-1.8-5.8-2.4-8.7-.3-.5-.7-.9-1.3-1-1.7.2-2.5 2.2-3.9 3-3.9 3.4-8.1 6.3-12.4 9.4-.9.1-2.4.7-3-.2l-.2-5.4c-.4-.9-1.5-1.3-2.4-.9-3.8 2.8-7.1 5.5-10.8 8.5-1.9.8-4 .9-6 .3-1.1-5.6-2-11.3-3.5-16.8-.6-1-1.1-2.2-2.3-2.7-2.4.7-1.9 3.6-3.1 5.4-1.5 4.2-3.3 8.4-5.3 12.4-1.5.3-2 1.9-3.6 2.1-.3-2.1.2-4.3.3-6.5-.5-2.5.6-5.2.3-7.6.1-3.9 1-7.3.9-11.3h.1c-.2-.6.3-2 .5-2.9 3.7.3 7.4.1 11.1.5-.2 1.1-.9 2.2-.5 3.5 1.6 1.6 4.1.1 6-.2l.6.6c1.6 3.9 3.1 8 4.8 12 .8.9 2.1 1.2 3.3.8l5.6-1c1.1-1.7 1.4-3.9 1.9-5.9 1-4.1 2-8.1 4-11.8 1.5-1.4 3.4-1.6 4.9-2.8 2.6-1.5 5.4-2.7 8.4-3.5 1.6-.3 2.5 1.4 4 .8 1.3-.9 1.3-3 2.2-4.3 2.8-8.5 7.1-16.7 11.7-24.5l.6.1 7.2 6.9c.2.9-.6 1.6-.9 2.3-2.8 6-6.6 12.1-8.5 18.6-2.2 5.1-2.9 10.8-3.9 16.4-.7 1.2.1 2.4-.3 3.8.2 2.1-.6 5.2 1.8 5.9 4.8-1.8 8.5-4.7 13.2-6.9.5.5 1.6.7 2 1.6l.2.5c-6.5 4.6-13.5 7.6-20.2 11.3z"/><path d="m17.6 38.5-8.5 1.9c-.6 4.7-.3 9.3-.9 14.1 0 1-.3 3.1 1.1 3.5 4.9-.2 9.7-1.4 14.3-1.6 4.5-.9 9.4-1.2 14.1-1.8.8-.1 1.9-.5 2.7 0-.2 1.9-.5 3.8-1 5.6-.8 1.8-.3 4-1 5.9-.5 3.3-1.9 6.2-2.3 9.5-1.8 8.5-4.4 16.7-6.8 24.8-.2 2.1-2.3 2.4-3.8 3.2-1.4.3-3.1 1.4-4.6.3-.7-1.6-1.3-3.3-1.6-5.1-.4-1.4.3-3.2-.9-4.3-5.3-1.6-10.8-1.8-16.3-2.9l-.9.4c-.7 1.8.1 3.5.3 5.4.8 5 .7 9.5 2.3 14.2 4.1 3.5 8 7.1 12.9 9.3 5.4.4 11.1 1 16.8 1 3.8-1.9 6.9-4.6 10.4-7.3 3.9-14.4 7.6-28.9 11.2-43.4l10.6-42.2zm35.3 28.5c-1.5 4.5-2.3 9.3-3.7 13.9-.9 3.6-1.6 7.1-2.8 10.6l-4.8 18.1c-1.4 3.2-5.1 4.5-7.3 7-2.2 1.1-5.5.5-7.9.5-3.8-.2-7.5-.8-11.1-1.9-2.7-1.5-5.5-3.9-8.2-5.6-2.4-3.4-2-7.8-2.5-12.1.2-1-.2-2 0-2.9 3.1-.3 5.7.8 8.8.8l3.1.8c.7 3.5.6 7.3 2.8 10 3.5 2.6 7.9-.4 11-1.8 3-4.1 3.7-9.3 5.2-14.2 2.2-6 2.7-12.9 4.3-19.1.9-4.8 2-9.7 3.4-14.3 0-2.5 1.5-4.2.9-6.8l-.7-.6c-9.6 1.7-19.3 2.6-28.8 4.4l-3.5.3c-.1-4 .1-8.3.3-12.3 2-.7 4-1.2 6.1-1.4 8.9-1.9 18-3 26.8-5.3 5.8-1 11.8-2.1 17.5-3.1-1.3 7-3.6 13.9-5.2 20.7-1.1 4.9-2.9 9.5-3.7 14.3z"/><path d="m235.2 37.7c-.8-.8-2-1.2-3.1-1-.7.1-1.4.6-1.8 1.2l-6.1 10.5c-.2.6-.2 1.2.2 1.7 3.1 0 5.5-1.8 8.4-2.2.9-.3 1.5-1.2 1.6-2.2-.3-2.9 1.4-5.3.8-8zm-3.3 7.3c-1.1.6-2.3.9-3.5 1.1.4-1 3.2-4.1 3.9-5 .3 1-.4 3-.4 3.9z"/><path d="m166.6 46.6c-.3-.8-.4-1.8-1.3-1.9-3 1.7-4.7 5-7.2 7.7-.9 1.7-3.7 2.6-2.9 4.8.3.5.7 1.1 1.4 1 2.8-1.1 5.4-2.8 8.3-3.7 3.1-1.5 1.1-5 1.7-7.9zm-6.1 7.1c.5-.5 1.4-4.3 4.5-3.9.7 1.7-3.3 3.9-4.5 3.9z"/><path d="m134 57.5c-2.5-2.2-5.2-4-8.5-4.4-3.3 1.6-5 5.2-6.6 8.4-.4 1.2-.9 2.9.3 3.8 2.9.3 5.6.9 8.5 1.3 1.4-.3 2.2 1.3 3.7.5 1.5-1.6 1.3-4.1 2.1-6 .3-1.2.9-2.4.5-3.6zm-3.8 6.8c-2.8-.3-5.7-.9-8.5-1 1.3-2.2 3.7-3.6 5.7-5.1 1.6.4 3.7 1 3.9 2.9-.4 1.1-.2 2.6-1.1 3.2z"/></g><g transform="translate(193)"><path d="m14.6 28.1c.2 2.1 1.1 4 2.7 5.4l.4-.4c-.2-.9-.2-1.8 0-2.7h2.1c1.2 0 2.1-2 2.8-2.4 1.1-.6 2.6-.4 3.5-1.4v-.7c-2.4-.5-4.8-.8-7.2-.9-1.5-.1-4.3 1-4.3 3.1zm4.7-.6c-.7.2-1.4.4-2.1.8l-.4-.4c.4-.7.2-1.3 1.1-1.3.6.1 1.1.4 1.4.9z"/><path d="m167.7 105.9c-1.7-3.3-7-7.2-16-23.9-4.3-7.8-7.9-15.9-10.6-24.4.3-.5.6-1 .7-1.6 0-1.8-3.4-6.1-3.8-6.7-4.9-7.1-16.9-21.9-14.5-22.1 1.5 0 2.8-1.2 3-2.7 0-2.8-10.5-8.7-10.7-8.8-11.4-6-23.6-13.5-35.4-14.8-1.4-.1-2.7-.1-4.1 0-2.7.2-5.2 1-7.6 2.2-6.2-1.5-11.3-2.7-18.4-2.1-6.4.5-13.2 1.6-13.2 7.8 0 8.6 23.1 5.9 23.1 24.7 0 1.8-.3 3.5-.9 5.2 0 0-3.6-.3-8.9-3.7-7.7-5-14-10.3-15.7-11.4.9-1.4 1.6-3 2-4.6 0-.4-4.1-.1-6.8-.2-3.4-.1-8.7-.3-8.7-.3-2.3.2-4.7.5-6.8 2.1-1.2.9-1.8 2.5-3 3.1-4.8 2.5-11.1-.3-11.1 7.3 0 .5 0 4.7 1.7 4.7.4 0 2.5-1.8 2.9-1.8h2.2c1.4 0 10.2 3.5 11.4 4.2 2.7 1.4 5 3.3 7 5.6 7.9 9.8 7.3 20.1 12.5 30.3 1.6 3.4 3.7 6.5 6.2 9.3 3.8 3.8 13.7 10.9 13.7 16.6 0 .4-1 5.9-1 6.3 0 1.1.2 2.2.4 3.2.1.5.1.9.4 1.3 0 0 .5-.8 1-1.7.3-.6.7-1.1 1-1.7s.8-1.1.9-1.3c.1 0 .8-1.1 1.8-1.1s2.3 1.6 2.6 1.8c1.4 1.1 2.2 1.8 3.1 2.6 1.9 1.7 3 2.7 4 3.5 2.3 3-.1 4.6-2.2 9.4 0 0 0 0 .1.1.6.3.4 1.4-.3 6.2-.2 1-.3 2-.4 2.9-.1 1.3-.5 2.7-1 3.9-.6 1-1.3 1.2-2.2 1.9-1 .8-1.4 1-2.5 2.1 0 0 0 0 0-.1-.1.2-.8 4.2-.8 4.4v.5c2.5-9.1 14.9-4.2 15.4-12.8 0-.2 0-.3 0-.5 0-6.1-.2-7.1-.3-9.4 2.3.7 4.4.3 3.5 4.4-.1.3-.3 3.4-.4 5.5-.1.9-.1 1.7-.1 1.8 0 .4-.3 2.4.5 3.2 1.9 2 13.7 1.4 13.5 5 .1 1.4-.5 2.8-1.6 3.8-.2-.1-.4-1.8-1.2-2.6-1.5-1.6-5.4-1-6.5-1.3-1.3-.4-2.6-.9-3.8-1.4-.6 0-1 .5-1 1v.1c.1 1.3 0 2.6-.2 3.9-.4 1.9-1.3 3.7-2.5 5.2-1.4-1.7-2.2-3.7-2.5-5.9-.1-.7-.1-1.3 0-2 .2-.8.6-1.4 1.1-2.1-.1-.1 0-.3-.4-.3-.6.2-1.2.4-1.7.8-3.1.9-6.1 1.7-9.3 2.3-.9.3-1.8.7-2.6 1.2v-.1.1c0 .8-.2 2.1-.2 2.1s1.9-.7 4.3-1.4c2.1-.6 4.2-1.1 6.4-1.4-.4 3.3 3.4 10 4.4 10 2.7 0 6-10.6 6-10.6h.4c3.1.9 7.2-1 8.6 3.7 2.2-.4 3.8-2.3 3.9-4.5.1-.9-.1-1.8-.5-2.6-1.6-3.3-9.2-2.3-12.4-4.5-.6-.4-.7-1.8-.6-3.7.2-3.4 1-8.2 1.3-10.8 1.1-1 2.2-2.1 3.2-3.2.6-.7 1.9-2.8 1.9-2.8.6.8 1.2 1.6 1.6 2.5 4 6 7.2 13.2 12 13.3.7 0 1.4-.4 1.9-.9.5.7 1.2 1.4 2 1.8.6.4 1.3.6 2 .6.6 0 1.2-.2 1.7-.6.1-.1.2-.1.3-.2 0 .1.1.1.1.2 1.4 1.8 3.5 2.8 5.8 2.8 1.2.1 2.4-.5 3.1-1.5 1.3 1.2 4.5 3 5.9 3s3.2-.7 3.6-2.3c1 .5 5.2 2.4 6.7 2.4 1.4 0 4.6-.6 4.6-3.5 0-.3 0-.7-.1-1-1.2-5-10.7-10.9-13.5-13.3-3.5-3-7.1-5.9-10.7-8.8-.9-.8-1.8-1.5-2.7-2.3-2.6-2.3-5.4-4.9-8-7.5-2.5-2.5-4.9-4.1-7.3-6.5 1.6.7 3.4 1.6 4.8 1.4.8-.1 1.6-.5 2.1-1.1 2.2 1.7 3.3 5 7.6 5.4.8-.1 1.6-.4 2.3-.9 2 2.4 3.8 5.2 6.7 4.7.7-.2 1.4-.6 1.8-1.2 1.5 1.6 4.7 4.8 6.3 4.2s1.3-.5 2-1.1c1.9 1.7 3.9 4.7 7 4.8h.3.2c.9-.2 1.6-.7 2.2-1.3.5.5.9.9 1.3 1.3 1.1 1.4 2.8 2.3 4.7 2.4 2.3.2 4.6-2.1 4.8-2 1.6.7 3.3 2.1 5.7 1.7 1.3-.2 2.4-1 3-2.1.1-.1.1-.2.2-.3.3.1.7.2 1 .3 1.2.4 2.6.5 3.8.2.1 0 .2-.1.3-.2.7.3 2-1.1 1.2-2.8zm-27.5-50.5c.4 1.1-1.1 1.8-1.4 1.9-3.3 1.1-5-3.8-5.7-3.3-.8.5 2.8 3.5.6 4.8-2.6 1.5-4.9-3.2-5.8-2.9-1.7.5 3.5 3.7.1 4.9-2.2.8-4.6-3.3-5.9-2.8-1.2.4 4.2 3.1-.1 4.5-2.3.8-5-4-5.9-3.2-.7.6 2.5 2.6 0 4.1-3.1 1.8-4.9-2.9-5.7-1.9-.6.7 2.5 3.2.6 4.5-2.7 1.8-4.9-2-5.8-1.2-.9.9 2.7 3.2 1 4.2-2.4 1.4-4.5-1.4-4.8-.8-.5.8 2.7 2.9.8 4.7-2 1.9-5.5-2.4-6.2-1.3-.6 1 1.5 1.5 2.1 2.9.3.8 0 1.7-.7 2.2-.5.3-1 .5-1.6.5-1.9.3-3.9-2.4-4.7-1.6-.6.6 1.1 1.9 1.1 2.3-.1 1-.8 1.8-1.7 2.1-2.8.7-5-3.8-5.8-3-.5.5 1 3.4 1 3.8 0 .6-.4 1-1 1 0 0 0 0-.1 0-3.8-.4-4.7-4.2-5.7-3.9-1.1.3.7 2.7-.8 3.2-4.1 1.3-5.7-5.1-6.3-5.1-.7 0-1.1 1-.9 1.7-4.2-4.2-6.2-12.4-6.8-18.8-.2-1-.2-2.1-.1-3.1.1-.9.8-1.7 1.7-2 1.5-.1 3-.1 4.6 0 6 .5 15-4.1 18.8-11.5 2.6-5.3 4.8-10.7 6.8-16.3 1.1-3.3.9-7.3 4-8 1.5-.3 17.2 7.5 21.3 9 4 8.3 18.4 26.9 19 28.4zm-100.3-46.9c0-3.3 5.3-5.2 11.8-5.2 6.1-.1 12.1.6 15.5 2.1-.4.3-.7.8-.9 1.3-.2.7-.1 1.4.3 2-.5-.2-1.1-.3-1.6-.4-.1 0-9.6-1.1-13.6-.7 8.2 1.9 18.2 3.5 26.7 9.9 1.4 1.1 2.9 3.2 2.9 4.8 0 1.1-.8 2-1.3 2-1.8 0-5.9-2.3-11.7-3.3-1.1-.1-2.2-.2-3.3-.2.5.2 16 4.8 16 10.6 0 2.5-1.8 5-3.8 4.2-2.3-1-3.4-2-8.8-3 0 0 7.9 3 7.9 5.9-1 2.3-10.4 7.5-11.9 5.3-.7-.9-1.1-2-1.1-3.2 0-1.8 1.5-4.7 1.4-6.8-.2-21.3-24.5-20.3-24.5-25.3zm35.7 124.8c0 1.4-3.1 2.3-3.8 2.3h-1c-.2-.4-.2-.8-.2-1.2 0-.9.1-1.9.3-2.8.5-3.1 1.3-6.2 2.2-9.2.7-.2 1.3-.5 1.9-.9.3.6.5 1.3.5 2v8.1 1.7zm4.5-13.7c-1.7-.3-3.2-1.1-4.3-2.4-2.3-2.2-4.2-4.9-5.6-7.8-3-6.1-4-12.7-6.8-18.4-2.7-5.3-8.9-7.4-12.9-10-4.2-3-7.4-7.3-9.1-12.2-.9-2.9-2-5.7-3.2-8.5-2.2-5.4-3.7-11.5-8.1-17-4.3-5.4-10.3-7.7-15.2-9.4-1.3-.4-6.9-2.1-9-2.1-1.7 0-1.4.3-3.2 1.1-.2-.6-.2-1.2-.2-1.8-.2-5.7 9.3-2.8 10.6-5.3.9-1.9 5-4.5 6.8-4.5 0 0 4.6-.1 8.3 0 1.2.1 2.3.2 3.5.5-1.1 1.1-2 2.3-2.9 3.5.3.2.6.4 1 .4s2.4-.6 2.8-.6c.8 0 4.7 1.4 12.3 7.9 4.3 3.7 10.6 6.9 13.8 8.6 1 .5 1.5 5.6 5 5.8 7 .4 22-9 22-21.5 0-14.8-16.5-14.7-16.5-18 0-3.2 4.8-5 8.2-4.9 13.9.4 33 10.8 46.1 20.2.3.2.7.8.6 1.2-1.7 4.2-28.2-14.3-42.4-16.2-.3 0-2.1-.2-2.1 1 0 1.1 13.8 3.4 13.5 6.4-.1 1.1-2.2 1.1-2.7 1.1-.4 0-4.3-1.8-4.6 0-.3 1.5 6.2 2.4 4.8 4.6-.6 1.1-2.7.4-2.7 1.6 0 .9 4.1 2.4 3.4 4.5-.4 1-3-.5-3.3 1.1-.2 1 3 2.4 2 4.5-.6 1.2-2.6-.5-3.2 1.4-.3 1.1 2 2.1 1.4 3.5s-2.8-.5-3.8 1.2c-.5.9 1.7 3 .7 4.1-1.2 1.3-1.7-1-3.2.2-1.2.9.7 2.6-.2 3.2-1 .7-1.7-.9-3.1 0-1 .6.3 2.4-.6 2.9-.9.6-1.7-1.2-2.8-.6-.8.4-.2 1.9-1.1 2.2-1.2.4-1.6-1-2.6-.8-1.2.2-.9 1.2-1.7 1.3s-1.6-.8-2-.7c-1.3.2-.9 1-1.7 1.1-.9.1-1.6-.9-2-.9-3 0-2.9 3.8-2.9 5.1 0 .9.1 1.8.2 2.7.3 2.1.7 4.2 1.4 6.2 3.5 11.9 9.3 18.2 18.9 25.7 1.4 1.1 3 3.3 3.1 4.3-.6-.8-1.5-1.3-2.5-1.5-.5 0-1.6.2-1.6.8 0 .7 5.3 7.3 5.9 11.8.2.9.2 1.8.2 2.7v.6c-.6 2.9-2.5 10.6-6.7 10.1zm33.1-10.1c4.3 3.8 8.7 7.5 12.9 11.2 2.3 1.9 10.6 8.9 11.4 11 0 .1.1.2.1.3 0 .9-.6 1.6-1.5 1.6 0 0 0 0-.1 0-2.2-.1-4.3-.7-6.1-1.9-2.4-1.6-4.7-3.4-6.8-5.4-1.1-1.1-2.3-2.1-3.6-3-.6.1 1.9 2.4 2.2 2.6 1.9 1.9 4.8 4.1 5.5 5.7.3.5.1 1.2-.4 1.5-.1 0-.2.1-.3.1-.3.2-.7.2-1.1.2-1.3-.3-2.4-.9-3.4-1.8-3.8-2.9-8.9-8.5-10.6-9.9-.1.1-.2.3-.1.4 1.9 2.1 5.4 5.8 6.5 8.7.1.3.1.6 0 .8 0 .1-.1.2-.2.3-.4.4-.9.3-1.3.3-.6 0-1.1-.2-1.6-.6-3.4-2.1-8.6-9.6-10.1-11.2.1.1-.2.3-.1.4 1.1 1.8 4.8 7.8 4.8 7.8s1.1 1.5-.2 1.7c-.9.1-2.5-1.1-3.8-2.6-2.4-2.9-5.2-7.3-6.2-8.2 0 .1-.1 0-.1.4s3.9 6.5 4.4 7.7c0 0 .8 1.5-1.3 1-3.2-.7-10.3-13.4-12.5-19.1-.5-1.5-.8-2.5-.5-2.7.4-.3 1.4 1.1 2.5 2.7 1.2 1.7 2.6 3.6 3.3 3.6.9 0 .7-.8.7-1-.3-.9-.8-1.8-1.4-2.6-1-1.6-2.2-3.3-1.9-3.8.4-.6 2 1.7 3.5 3.8 1.2 1.6 2.3 3.1 2.9 3.1.7 0 .8-.5.8-.9-.3-.8-.7-1.6-1.2-2.2-1.3-1.9-3-4.2-2.5-4.6.6-.4 2.6 2.6 4.5 4.6 1 1 1.9 1.8 2.6 1.8.5-.1.8-.4.9-.9-.1-.3-.2-.7-.4-.9-1-1.6-3.6-4.2-3.1-4.6.7-.5 3.9 2.5 6.3 4.6.7.7 1.5 1.3 2.4 1.8 1 0 1-.4 1-.9-.1-.3-.2-.7-.4-.9-2.2-3.3-12.9-11.7-15.1-13.7-4.9-4.2-15.7-11.5-15.6-12.1 0 0 .5-1.1 1.5-.9s3.5 1.5 4.4 1.4c9.3 8.3 18.9 16.9 28.4 25.3zm52.5-1.5c-.3.2-.6.4-.9.4-1.6.1-3 .1-6.1-3.1-.4-.1-3-3.8-3.3-3.8-2-.1 1.8 4.7 4.5 7.1-.1.4-.4.8-.8 1-.6.3-1.3.5-2 .6-.6 0-1.3-.2-1.8-.6-2.1-1.2-4.4-4.1-6.8-5.7-.3-.2-.8-.4-.8-.1-.1.6 1.7 2.8 3.5 4.7.2.3-.3.8-.9 1.2-.7.4-1.4.6-2.1.7-.9 0-1.7-.2-2.4-.7-2.5-1.6-5.1-5.4-6.7-7-1-1-1.2-.4-1.2 0 0 .3 1.1 1.7 2.8 4-.3.6-.9 1-1.5 1.1-1.9.3-6.6-5.6-9.7-8.4-.8-.7-1-.6-1 0 .8 1.3 1.7 2.6 2.7 3.7-.3.4-.7.6-1.2.7-2 .3-7.1-6.6-8.7-7.3-1.1-.5-1-.2-1-.1 0 .4 1.3 2 2.7 3.5-.3.6-.8.9-1.4 1-2.8.2-5.8-6.2-8-7.7-.4-.3-.8-.5-.9-.1s1 1.9 2.1 3.3c-.5.5-1.2.8-1.9.8-2.3.3-6.2-5.7-8.8-7.4-.6-.4-1-.5-1-.1.5.9 1 1.7 1.6 2.5-.8 1.5-1.9 1.2-3.1.9-5.8-1.3-13.2-8.3-14.5-9.4 0 0 .5-.5.6-.7.5-.6.2-1.5.6-1.5 0 0 2.1.8 3.4.3s2.1-2.2 2.5-2.9c1 .4 2.1.4 3.2.1 1.6-.5 2.6-1.9 2.5-3.5 1.4.4 2.9.1 4-.8.8-.9 1.2-2.1 1-3.3 0 0 3.7.2 3.9-2.9 4.5 1 5.2-2.4 5.2-2.4 1.1.3 2.3.2 3.4-.2.7-.4 1.3-1 1.6-1.7 1.2.9 2.7 1.2 4.1.8 1-.3 1.9-1 2.4-2 1.2.5 2.5.5 3.7.1 1.1-.4 1.9-1.1 2.4-2.2 1 .6 2.2.7 3.3.3.8-.4 1.4-1 1.8-1.8.7.2 1.4.3 2.1.3.4-.1.8-.2 1.2-.5 3.8 10.4 5 15.1 11.5 25.9 5.1 8.6 8.2 13.5 14.8 21.2 0 .2 0 1.1-.6 1.7z"/></g></g></svg>