<?xml version="1.0" encoding="utf-8"?>
<!-- Generator: Adobe Illustrator 26.0.3, SVG Export Plug-In . SVG Version: 6.00 Build 0)  -->
<svg version="1.1" id="Layer_1" xmlns="http://www.w3.org/2000/svg" xmlns:xlink="http://www.w3.org/1999/xlink" x="0px" y="0px"
	 viewBox="0 0 1200 260" xml:space="preserve">
<style type="text/css">
	.st0{fill:#FFFFFF;}
	.st1{fill-rule:evenodd;clip-rule:evenodd;fill:#FFFFFF;}
	.st2{display:none;fill:#FFFFFF;}
</style>
<g id="Wortmarke">
	<path id="G" class="st0" d="M1014.8,105.2h124.6v68.5c-0.1,16.6-11.1,31.2-26.9,36c-18,5-36,3.9-56,3.9h-83.3
		c-27.6,0.4-51.1,2.4-65.4-7.5c-10.9-7.2-17.5-19.3-17.6-32.3V74.1c0-13.9,7.6-24,18-32.2c12.4-10.2,38-7.6,65.2-7.6h83.3
		c32.8,0,54.5,0,66.6,8.7c18.2,13.2,16.7,39,16.7,39h-83.7c-2.6-13-10-16.3-26.9-16.3h-26.8c-18.4,0-25.2,6-25.1,16.9v79.6
		c0,9.5,1.4,13.7,8.8,17.3c6,2.9,15.8,2.5,27.2,2.5h21.2c20,0,21.8-10.9,21.8-22.9v-21.2h-41.6L1014.8,105.2"/>
	<path id="R" class="st1" d="M686.3,66h37.7c12,0,21.1-1,29.3,2.8c6.5,2.8,10.1,9.8,8.6,16.7c1.3,6.9-2.2,13.9-8.6,16.9
		c-8.7,3.8-15,2.8-29.3,2.8h-37.7L686.3,66L686.3,66z M599,213.6V34.3H764c19,0,40.6-1.6,56,5.6c17.5,8.2,27.1,17.6,27.1,37.3v4.8
		c0,15.4-6.4,23.3-19.3,31.6c-12.8,8.2-28.3,9.4-58.1,9.4h36c10.1-0.3,20.1,1.8,29.2,6c7.2,4.1,11.9,11.6,12.4,19.9v64.6h-87.6
		v-56.8c0-5.5,0.4-14.3-7.3-16.8c-7.7-2.5-13.7-1.9-27.2-2.2h-38.8v75.7H599"/>
	<path id="L" class="st0" d="M358.6,213.6V34.3h87.3V166h114v48H358.6"/>
	<path id="D" class="st1" d="M222,107.6V140c0,5.3,0.8,18.8-7.7,22.4c-10.9,4.6-18.8,3.1-30,3.2h-37.1V82h37.4
		c11,0,18.8-1.3,29.7,3.3C222.8,88.8,222,102.3,222,107.6z M226.2,213.5c22.7,0,47.5,1.9,63.7-6c16.3-7.9,19.3-28.7,19.3-39.5V80
		c0-10.9-2.9-31.6-19.3-39.5c-16.4-7.9-41-6-63.7-6H60v179L226.2,213.5"/>
</g>
<rect x="60" y="253.7" class="st2" width="1080" height="10.9"/>
<path class="st2" d="M66.2,307.7h26.2l15.8,54.4l17.1-54.4h25.5v74.8h-15.9v-64.1l-20.4,64.1h-13.2l-20-64.1v64.1h-15L66.2,307.7
	L66.2,307.7z M196.2,350.6c0-0.6-0.1-1.6-0.2-2.8c-0.1-1.3-0.4-2.6-1-3.9s-1.5-2.5-2.7-3.5c-1.2-1-3-1.5-5.2-1.5
	c-1.7,0-3.1,0.3-4.3,1c-1.2,0.7-2.2,1.5-3,2.6c-0.8,1.1-1.4,2.3-1.8,3.7c-0.4,1.4-0.7,2.9-0.7,4.4H196.2L196.2,350.6z M176.7,360.3
	c0,0.8,0.1,2,0.2,3.6c0.1,1.6,0.5,3.1,1.2,4.7s1.7,2.8,3.2,4c1.4,1.1,3.5,1.7,6.2,1.7c1.9,0,3.7-0.5,5.4-1.4c1.7-1,2.9-2.9,3.7-5.8
	h14c-0.1,0.6-0.2,1.4-0.3,2.2s-0.3,1.8-0.7,2.7s-0.8,2-1.5,3.1c-0.7,1.1-1.5,2.2-2.5,3.3c-1.9,2-4.5,3.5-7.7,4.6
	c-3.2,1-6.7,1.6-10.6,1.6c-1.1,0-2.4-0.1-4-0.2c-1.6-0.1-3.2-0.4-4.9-0.9c-1.7-0.5-3.4-1.1-5-2c-1.7-0.8-3.2-2-4.6-3.4
	c-2.4-2.5-4.1-5.4-5.2-8.9s-1.6-7.3-1.6-11.5c0-2.1,0.2-4.3,0.5-6.6s0.9-4.5,1.7-6.7s1.9-4.2,3.3-6.2s3.2-3.7,5.4-5.2
	c2-1.4,4.2-2.4,6.7-3.2s5.1-1.1,8-1.1c1.9,0,3.8,0.2,5.8,0.6c2,0.4,3.9,1.1,5.8,2.1s3.6,2.3,5.3,3.9s3.1,3.6,4.2,6.1
	c0.9,1.8,1.6,3.6,2,5.4c0.4,1.8,0.8,3.5,0.9,5.2c0.2,1.7,0.3,3.3,0.3,4.7c0,1.4,0,2.7-0.1,3.8H176.7z M221.9,330.1h15.3v52.3h-15.3
	V330.1z M221.4,307.8h16.3v13.3h-16.3V307.8z M250.9,339.6v-1c0-0.7,0-1.5-0.1-2.4c0-0.9-0.1-1.9-0.1-3.1c0-1.1-0.1-2.1-0.2-3h14.7
	l0.4,7.9c0.3-0.6,0.9-1.4,1.7-2.4s1.8-2,3.1-3c1.3-1,3-1.9,5-2.6c2-0.7,4.4-1.1,7.2-1.1c2.6,0,4.8,0.3,6.6,1
	c1.9,0.7,3.4,1.5,4.7,2.5c1.3,1,2.3,2.1,3,3.2c0.7,1.1,1.3,2.2,1.6,3.1c0.3,0.8,0.5,1.6,0.7,2.4c0.2,0.8,0.4,1.8,0.5,2.9
	c0.1,1.1,0.2,2.5,0.2,4.2c0,1.7,0.1,3.7,0.1,6.1v28.2h-15.6V350c0-1.1,0-2.1-0.1-3.1c-0.1-0.9-0.3-1.8-0.7-2.6
	c-0.6-1.2-1.4-2.2-2.6-3.1c-1.2-0.9-2.8-1.3-4.8-1.3c-1.7,0-3.2,0.4-4.6,1.1c-1.4,0.7-2.5,1.7-3.4,2.9c-0.5,0.7-0.9,1.7-1.3,3
	s-0.6,3-0.6,5v30.6h-15.4L250.9,339.6L250.9,339.6z M345.6,350.6c0-0.6-0.1-1.6-0.2-2.8c-0.1-1.3-0.4-2.6-1-3.9s-1.5-2.5-2.7-3.5
	c-1.2-1-3-1.5-5.2-1.5c-1.7,0-3.1,0.3-4.3,1c-1.2,0.7-2.2,1.5-3,2.6c-0.8,1.1-1.4,2.3-1.8,3.7c-0.4,1.4-0.7,2.9-0.7,4.4H345.6
	L345.6,350.6z M326.2,360.3c0,0.8,0.1,2,0.2,3.6c0.1,1.6,0.5,3.1,1.2,4.7c0.7,1.5,1.7,2.8,3.2,4c1.4,1.1,3.5,1.7,6.2,1.7
	c1.9,0,3.7-0.5,5.4-1.4s2.9-2.9,3.7-5.8h14c-0.1,0.6-0.2,1.4-0.3,2.2s-0.3,1.8-0.7,2.7c-0.3,1-0.8,2-1.5,3.1
	c-0.7,1.1-1.5,2.2-2.5,3.3c-1.9,2-4.5,3.5-7.7,4.6c-3.2,1-6.7,1.6-10.6,1.6c-1.1,0-2.4-0.1-4-0.2c-1.6-0.1-3.2-0.4-4.9-0.9
	c-1.7-0.5-3.4-1.1-5-2s-3.2-2-4.6-3.4c-2.4-2.5-4.1-5.4-5.2-8.9s-1.6-7.3-1.6-11.5c0-2.1,0.2-4.3,0.5-6.6c0.3-2.3,0.9-4.5,1.7-6.7
	c0.8-2.2,1.9-4.2,3.3-6.2c1.4-2,3.2-3.7,5.4-5.2c2-1.4,4.2-2.4,6.7-3.2c2.4-0.8,5.1-1.1,8-1.1c1.9,0,3.8,0.2,5.8,0.6
	c2,0.4,3.9,1.1,5.8,2.1s3.6,2.3,5.3,3.9s3.1,3.6,4.2,6.1c0.9,1.8,1.6,3.6,2,5.4s0.8,3.5,0.9,5.2c0.2,1.7,0.3,3.3,0.3,4.7
	c0,1.4,0,2.7-0.1,3.8H326.2z M450.8,330.7c-0.1-1-0.2-2.1-0.4-3.4c-0.2-1.3-0.7-2.7-1.7-4.1c-0.8-1.2-1.7-2.2-2.7-3
	s-2.2-1.3-3.4-1.8s-2.3-0.7-3.4-0.8c-1.1-0.1-2.1-0.2-3-0.2c-4.6,0-8.2,0.9-11.1,2.8c-2.8,1.9-5.1,4.3-6.7,7.1
	c-1.6,2.8-2.7,5.9-3.3,9.2s-0.8,6.4-0.8,9.3c0,1.2,0.1,2.7,0.2,4.4s0.4,3.5,0.8,5.3c0.4,1.8,1,3.6,1.9,5.4s1.9,3.5,3.3,4.9
	c1.9,2.1,4.1,3.7,6.8,4.8s6.3,1.7,10.8,1.7c1.9,0,3.6-0.1,4.9-0.2s2.5-0.2,3.4-0.4c0.9-0.1,1.7-0.3,2.3-0.5c0.6-0.2,1.1-0.3,1.6-0.5
	v-15.7h-14.5v-12.4h30.5V380c-1.2,0.4-2.6,0.9-4.1,1.3c-1.6,0.5-3.5,0.9-5.6,1.3s-4.7,0.8-7.6,1c-2.9,0.3-6.2,0.4-9.9,0.4
	c-4.3,0-8.1-0.2-11.3-0.7c-3.3-0.5-6.2-1.2-8.7-2.1c-2.6-0.9-4.8-1.9-6.7-3.2c-1.9-1.2-3.6-2.5-5-4c-2.1-2.1-3.8-4.3-5.1-6.7
	c-1.3-2.4-2.3-4.9-3.1-7.3c-0.7-2.5-1.2-4.9-1.4-7.3c-0.2-2.4-0.4-4.6-0.4-6.6c0-6.6,1-12.5,2.9-17.5s4.7-9.3,8.2-12.7
	s7.6-6,12.4-7.8c4.8-1.8,10-2.6,15.7-2.6c4.8,0,9.5,0.7,14.1,2.2c4.6,1.4,8.4,3.9,11.3,7.2c1.2,1.4,2.2,2.9,2.9,4.3
	c0.7,1.4,1.2,2.8,1.6,4.1c0.4,1.3,0.6,2.6,0.7,3.8c0.1,1.2,0.2,2.3,0.2,3.4L450.8,330.7L450.8,330.7z M480.7,307.7H496v74.8h-15.3
	V307.7z M509.4,330.1h15.3v52.3h-15.3V330.1z M508.9,307.8h16.3v13.3h-16.3V307.8z M569.9,350.6c0-0.6-0.1-1.6-0.2-2.8
	c-0.1-1.3-0.4-2.6-1-3.9s-1.5-2.5-2.7-3.5c-1.2-1-3-1.5-5.2-1.5c-1.7,0-3.1,0.3-4.3,1c-1.2,0.7-2.2,1.5-3,2.6
	c-0.8,1.1-1.4,2.3-1.8,3.7s-0.7,2.9-0.7,4.4H569.9L569.9,350.6z M550.5,360.3c0,0.8,0.1,2,0.2,3.6c0.1,1.6,0.5,3.1,1.2,4.7
	c0.7,1.5,1.7,2.8,3.2,4c1.4,1.1,3.5,1.7,6.2,1.7c1.9,0,3.7-0.5,5.4-1.4s2.9-2.9,3.7-5.8h14c-0.1,0.6-0.2,1.4-0.3,2.2
	s-0.3,1.8-0.7,2.7c-0.3,1-0.8,2-1.5,3.1c-0.7,1.1-1.5,2.2-2.5,3.3c-1.9,2-4.5,3.5-7.7,4.6c-3.2,1-6.7,1.6-10.6,1.6
	c-1.1,0-2.4-0.1-4-0.2c-1.6-0.1-3.2-0.4-4.9-0.9c-1.7-0.5-3.4-1.1-5-2s-3.2-2-4.6-3.4c-2.4-2.5-4.1-5.4-5.2-8.9
	c-1-3.4-1.6-7.3-1.6-11.5c0-2.1,0.2-4.3,0.5-6.6s0.9-4.5,1.7-6.7s1.9-4.2,3.3-6.2s3.2-3.7,5.4-5.2c2-1.4,4.2-2.4,6.7-3.2
	s5.1-1.1,8-1.1c1.9,0,3.8,0.2,5.8,0.6s3.9,1.1,5.8,2.1s3.6,2.3,5.3,3.9s3.1,3.6,4.2,6.1c0.9,1.8,1.6,3.6,2,5.4
	c0.4,1.8,0.8,3.5,0.9,5.2c0.2,1.7,0.3,3.3,0.3,4.7c0,1.4,0,2.7-0.1,3.8H550.5L550.5,360.3z M608,357.1c0,2.2,0.2,4.3,0.6,6.3
	c0.4,2,1,3.7,1.8,5.2c0.8,1.5,1.9,2.7,3.3,3.6c1.3,0.9,3,1.3,4.9,1.3c2.2,0,4.2-0.6,5.9-1.8c1.7-1.2,3-2.6,3.8-4.1
	c1.2-2.2,1.9-4.5,2.1-6.8c0.2-2.3,0.4-4.2,0.4-5.5c0-5.2-1-9.1-3.1-11.8c-2-2.7-4.8-4-8.3-4c-2.6,0-4.6,0.7-6.1,2
	c-1.5,1.3-2.7,2.9-3.4,4.8s-1.3,3.8-1.5,5.8C608.1,354.2,608,355.8,608,357.1L608,357.1z M630.3,307.8h15.4V374c0,1.6,0,3.2,0.1,4.7
	c0.1,1.6,0.2,2.8,0.3,3.8h-15.5l-0.4-7.6c-0.6,1-1.2,1.9-1.9,2.9c-0.7,1-1.8,2-3.4,3c-1.9,1.2-3.8,2-5.6,2.3
	c-1.8,0.3-3.3,0.4-4.5,0.4c-7,0-12.5-2.3-16.4-6.8c-3.9-4.6-5.8-10.9-5.8-19.1c0-4.3,0.6-8.2,1.7-11.7c1.1-3.4,2.7-6.4,4.7-8.8
	c2-2.4,4.4-4.3,7.2-5.6s6-2,9.4-2c2.3,0,4.4,0.3,6.1,0.9c1.7,0.6,3.1,1.3,4.3,2c1.2,0.8,2.1,1.5,2.8,2.3c0.7,0.8,1.2,1.4,1.6,1.9
	L630.3,307.8L630.3,307.8z M690.7,350.6c0-0.6-0.1-1.6-0.2-2.8c-0.1-1.3-0.4-2.6-1-3.9s-1.5-2.5-2.7-3.5c-1.2-1-3-1.5-5.2-1.5
	c-1.7,0-3.1,0.3-4.3,1c-1.2,0.7-2.2,1.5-3,2.6c-0.8,1.1-1.4,2.3-1.8,3.7s-0.7,2.9-0.7,4.4H690.7L690.7,350.6z M671.2,360.3
	c0,0.8,0.1,2,0.2,3.6c0.1,1.6,0.5,3.1,1.2,4.7c0.7,1.5,1.7,2.8,3.2,4c1.4,1.1,3.5,1.7,6.2,1.7c1.9,0,3.7-0.5,5.4-1.4
	s2.9-2.9,3.7-5.8h14c-0.1,0.6-0.2,1.4-0.3,2.2s-0.3,1.8-0.7,2.7c-0.3,1-0.8,2-1.5,3.1c-0.7,1.1-1.5,2.2-2.5,3.3
	c-1.9,2-4.5,3.5-7.7,4.6c-3.2,1-6.7,1.6-10.6,1.6c-1.1,0-2.4-0.1-4-0.2c-1.6-0.1-3.2-0.4-4.9-0.9c-1.7-0.5-3.4-1.1-5-2
	s-3.2-2-4.6-3.4c-2.4-2.5-4.1-5.4-5.2-8.9c-1-3.4-1.6-7.3-1.6-11.5c0-2.1,0.2-4.3,0.5-6.6s0.9-4.5,1.7-6.7s1.9-4.2,3.3-6.2
	s3.2-3.7,5.4-5.2c2-1.4,4.2-2.4,6.7-3.2s5.1-1.1,8-1.1c1.9,0,3.8,0.2,5.8,0.6s3.9,1.1,5.8,2.1s3.6,2.3,5.3,3.9s3.1,3.6,4.2,6.1
	c0.9,1.8,1.6,3.6,2,5.4c0.4,1.8,0.8,3.5,0.9,5.2c0.2,1.7,0.3,3.3,0.3,4.7c0,1.4,0,2.7-0.1,3.8H671.2L671.2,360.3z M716.4,343.1
	c0-0.6,0-1.5-0.1-2.6c0-1.1-0.1-2.4-0.2-3.7s-0.2-2.6-0.3-3.8s-0.2-2.2-0.3-2.9h14.4l0.3,10c0.5-1.1,1.1-2.3,1.9-3.5
	c0.8-1.2,1.8-2.4,3.1-3.4c1.3-1,3-1.9,5.1-2.5c2.1-0.6,4.7-0.9,7.8-0.7v13.8c-3.9-0.3-6.9-0.2-9.1,0.5c-2.2,0.7-3.9,1.7-5,3
	c-1.1,1.3-1.8,2.8-2,4.5c-0.2,1.7-0.4,3.4-0.4,5v25.8h-15.3V343.1L716.4,343.1z M767.6,330.2v31.1c0,1.2,0,2.4,0.1,3.7
	s0.4,2.6,0.9,3.7c0.5,1.2,1.3,2.1,2.4,2.9c1.1,0.8,2.7,1.1,4.8,1.1c2.5,0,4.4-0.4,5.7-1.3c1.3-0.9,2.3-2,2.9-3.5
	c0.6-1.5,1-3.2,1.1-5.2c0.1-2,0.2-4.1,0.2-6.3v-26.4h15.7v34.5c0.1,2.8,0.1,5.1,0.2,6.8c0,1.7,0.1,3,0.1,3.9c0,0.9,0.1,1.6,0.1,2.1
	v1.1c0.1,0.8,0.1,1.4,0.2,1.9s0.1,1.2,0.3,1.9h-14.9l-0.5-6.9c-0.4,0.6-1,1.3-1.7,2.2c-0.7,0.9-1.7,1.8-2.9,2.7
	c-1.2,0.9-2.7,1.7-4.4,2.3c-1.8,0.7-3.9,1-6.4,1c-3.5,0-6.7-0.7-9.4-2.1c-2.8-1.4-4.9-3-6.3-5c-0.8-1-1.5-2.2-2-3.6
	c-0.5-1.4-0.8-2.7-1-4c-0.2-1.3-0.3-2.6-0.4-3.7c0-1.2-0.1-2.1-0.1-2.7v-32.5H767.6L767.6,330.2z M816,339.6v-1c0-0.7,0-1.5-0.1-2.4
	c0-0.9-0.1-1.9-0.1-3.1c0-1.1-0.1-2.1-0.2-3h14.7l0.4,7.9c0.3-0.6,0.9-1.4,1.7-2.4s1.8-2,3.1-3c1.3-1,3-1.9,5-2.6
	c2-0.7,4.4-1.1,7.2-1.1c2.6,0,4.8,0.3,6.6,1c1.9,0.7,3.4,1.5,4.7,2.5c1.3,1,2.3,2.1,3,3.2s1.3,2.2,1.6,3.1c0.3,0.8,0.5,1.6,0.7,2.4
	c0.2,0.8,0.4,1.8,0.5,2.9c0.1,1.1,0.2,2.5,0.2,4.2c0,1.7,0.1,3.7,0.1,6.1v28.2h-15.6V350c0-1.1,0-2.1-0.1-3.1
	c-0.1-0.9-0.3-1.8-0.7-2.6c-0.6-1.2-1.4-2.2-2.6-3.1c-1.2-0.9-2.8-1.3-4.8-1.3c-1.7,0-3.2,0.4-4.6,1.1c-1.4,0.7-2.5,1.7-3.4,2.9
	c-0.5,0.7-0.9,1.7-1.3,3s-0.6,3-0.6,5v30.6H816L816,339.6L816,339.6z M892,355.8c0,0.6,0.1,1.8,0.2,3.5c0.1,1.7,0.5,3.4,1.1,5.1
	c0.7,1.7,1.7,3.3,3.1,4.6c1.4,1.3,3.3,2,5.9,2c2.7,0,4.8-0.7,6.2-2c1.4-1.3,2.5-2.9,3.2-4.6c0.7-1.7,1.1-3.4,1.2-5
	c0.1-1.6,0.2-2.7,0.2-3.3c0-1.4-0.1-3.1-0.3-5c-0.2-1.9-0.7-3.6-1.4-5.2c-0.7-1.6-1.8-3-3.2-4.1c-1.4-1.1-3.2-1.7-5.6-1.7
	c-2.9,0-5.4,1.2-7.4,3.6C893,346.2,892,350.2,892,355.8L892,355.8z M928.5,330.5c-0.2,2.1-0.4,4.1-0.5,6.1c-0.1,2-0.2,4.3-0.2,6.9
	V382c0,4.8-0.9,8.6-2.6,11.4c-1.8,2.8-4,4.9-6.6,6.4c-2.7,1.4-5.5,2.4-8.5,2.7c-3,0.4-5.8,0.6-8.3,0.6c-1.9,0-4.1-0.1-6.6-0.4
	c-2.6-0.3-5-1-7.3-2.1s-4.4-2.8-6.1-5s-2.7-5.3-2.9-9.3h14.7c0.1,0.4,0.2,1,0.4,1.8c0.2,0.8,0.6,1.6,1.2,2.4
	c0.6,0.8,1.5,1.5,2.7,2.1c1.2,0.6,2.8,0.9,4.9,0.9c2.3,0,4.3-0.6,6.1-1.7c1.8-1.1,2.9-2.8,3.5-5.2c0.1-0.6,0.3-1.3,0.4-1.9
	c0.1-0.7,0.2-1.4,0.2-2.3c0-0.9,0.1-1.9,0.1-3.3c0-1.3,0.1-3,0.1-5c-1.2,1.6-2.5,2.9-3.7,3.8s-2.5,1.7-3.7,2.2
	c-1.2,0.5-2.4,0.8-3.6,0.9c-1.1,0.1-2.2,0.2-3.1,0.2c-3.7,0-7-0.7-9.8-2.2c-2.8-1.5-5.1-3.4-6.9-5.8c-1.8-2.4-3.1-5.2-4-8.2
	c-0.9-3.1-1.3-6.2-1.3-9.4c0-3.3,0.5-6.5,1.4-9.6s2.3-5.9,4.2-8.3s4.2-4.3,7-5.8c2.8-1.4,6.1-2.2,9.8-2.2c2.3,0,4.4,0.3,6.1,0.8
	s3.1,1.2,4.2,2c1.1,0.8,2,1.6,2.7,2.5c0.7,0.9,1.2,1.6,1.6,2.1l0.5-6.9L928.5,330.5L928.5,330.5z M1002.7,350.6
	c0-0.6-0.1-1.6-0.2-2.8c-0.1-1.3-0.4-2.6-1-3.9c-0.6-1.3-1.5-2.5-2.7-3.5c-1.2-1-3-1.5-5.2-1.5c-1.7,0-3.1,0.3-4.3,1s-2.2,1.5-3,2.6
	c-0.8,1.1-1.4,2.3-1.8,3.7c-0.4,1.4-0.7,2.9-0.7,4.4H1002.7L1002.7,350.6z M983.3,360.3c0,0.8,0.1,2,0.2,3.6
	c0.1,1.6,0.5,3.1,1.2,4.7s1.7,2.8,3.2,4c1.4,1.1,3.5,1.7,6.2,1.7c1.9,0,3.7-0.5,5.4-1.4s2.9-2.9,3.7-5.8h14
	c-0.1,0.6-0.2,1.4-0.3,2.2s-0.3,1.8-0.7,2.7s-0.8,2-1.5,3.1c-0.7,1.1-1.5,2.2-2.5,3.3c-1.9,2-4.5,3.5-7.7,4.6
	c-3.2,1-6.7,1.6-10.6,1.6c-1.1,0-2.4-0.1-4-0.2c-1.6-0.1-3.2-0.4-4.9-0.9c-1.7-0.5-3.4-1.1-5-2s-3.2-2-4.6-3.4
	c-2.4-2.5-4.1-5.4-5.2-8.9s-1.6-7.3-1.6-11.5c0-2.1,0.2-4.3,0.5-6.6s0.9-4.5,1.7-6.7s1.9-4.2,3.3-6.2s3.2-3.7,5.4-5.2
	c2-1.4,4.2-2.4,6.7-3.2c2.4-0.8,5.1-1.1,8-1.1c1.9,0,3.8,0.2,5.8,0.6c2,0.4,3.9,1.1,5.8,2.1c1.9,1,3.6,2.3,5.3,3.9
	c1.7,1.6,3.1,3.6,4.2,6.1c0.9,1.8,1.6,3.6,2,5.4c0.4,1.8,0.8,3.5,0.9,5.2c0.2,1.7,0.3,3.3,0.3,4.7c0,1.4,0,2.7-0.1,3.8H983.3
	L983.3,360.3z M1029.4,368.7h13.1v13.8h-13.1V368.7z M1069.2,308l19.6,58.7l19.7-58.7h15.8l-27.5,74.5h-17.5l-27.5-74.5L1069.2,308
	L1069.2,308z M1118.9,368.7h13.1v13.8h-13.1V368.7z"/>
</svg>
