<?xml version="1.0" encoding="utf-8"?>
<!-- Generator: Adobe Illustrator 25.0.0, SVG Export Plug-In . SVG Version: 6.00 Build 0)  -->
<svg version="1.1" id="Ebene_1" xmlns="http://www.w3.org/2000/svg" xmlns:xlink="http://www.w3.org/1999/xlink" x="0px" y="0px"
	 viewBox="0 0 543.9 141.7" style="enable-background:new 0 0 543.9 141.7;" xml:space="preserve">
<style type="text/css">
	.st0{fill:#013154;}
	.st1{fill:none;}
	.st2{fill-rule:evenodd;clip-rule:evenodd;fill:#FFFFFF;}
	.st3{fill:#1D1D1B;}
	.st4{fill:#D7005F;}
	.st5{fill:#FFFFFF;}
	.st6{fill-rule:evenodd;clip-rule:evenodd;fill:#1D1D1B;}
</style>
<path class="st0" d="M154,57.4c1.2,1.1,2,2.6,2.3,4.2c0.1,0.6-0.4,2.8-0.6,4.3c0,1,0.2,1.9,0.5,2.8l-3.5,6.4c-1.1,2.5-2,5.1-2.7,7.8
	c-0.1,0.3-0.1,0.2-0.3,0.1l-1.4-0.5c-0.1,0-0.2,0-0.4,0.1c-2.9,1.3-6.1,2.6-8.7,3.7c-0.4,0.2,0-0.1-0.1,0.1c-0.6,1.3-0.9,1.9-1.4,3
	h-11c-0.4-0.5-0.4-0.8-0.8-1.4c-0.2-0.2-0.4-0.3-0.7-0.3c-3.4,0-6.3,0-9.5,0c-0.7,0-0.8,0.4-1.2,1.1l-0.3,0.5h-3.4
	c-0.1-0.4-0.3-0.9-0.6-1.2c-0.4-0.4-0.9-0.6-1.5-0.6c-1,0-1.9,0.1-2.8,0.3c-0.7,0.2-1.4,0.5-2,0.8c-0.5,0.2-0.8,0.3-1.3,0.6H42.3
	l1.8-7l-35,7H0V53.1h149.5C151.1,54.4,152.6,55.8,154,57.4"/>
<path class="st1" d="M154,57.4c1.2,1.1,2,2.6,2.3,4.2c0.1,0.6-0.4,2.8-0.6,4.3c0,1,0.2,1.9,0.5,2.8l-3.5,6.4c-1.1,2.5-2,5.1-2.7,7.8
	c-0.1,0.3-0.1,0.2-0.3,0.1l-1.4-0.5c-0.1,0-0.2,0-0.4,0.1c-2.9,1.3-6.1,2.6-8.7,3.7c-0.4,0.2,0-0.1-0.1,0.1c-0.6,1.3-0.9,1.9-1.4,3
	h-11c-0.4-0.5-0.4-0.8-0.8-1.4c-0.2-0.2-0.4-0.3-0.7-0.3c-3.4,0-6.3,0-9.5,0c-0.7,0-0.8,0.4-1.2,1.1l-0.3,0.5h-3.4
	c-0.1-0.4-0.3-0.9-0.6-1.2c-0.4-0.4-0.9-0.6-1.5-0.6c-1,0-1.9,0.1-2.8,0.3c-0.7,0.2-1.4,0.5-2,0.8c-0.5,0.2-0.8,0.3-1.3,0.6H42.3
	l1.8-7l-35,7H0V53.1h149.5C151.1,54.4,152.6,55.8,154,57.4z"/>
<path class="st2" d="M90.4,63.9h4.9c1.3-0.1,2.6,0,3.8,0.4c0.8,0.3,1.3,1.2,1.1,2.1c0.2,0.9-0.3,1.8-1.1,2.1
	c-1.1,0.5-1.9,0.3-3.8,0.3h-4.9V63.9z M79,82.3V60h21.4c2.5,0,5.3-0.2,7.3,0.7c2.3,1,3.5,2.2,3.5,4.7V66c0,1.9-0.8,2.9-2.5,3.9
	S105,71,101.2,71h4.6c1.3,0,2.6,0.2,3.8,0.7c0.9,0.5,1.5,1.4,1.6,2.5v8.1H99.9v-7c0-0.7,0.1-1.8-0.9-2.1c-1.2-0.3-2.3-0.4-3.5-0.3
	h-5v9.4L79,82.3z M30.1,69.1v4c0,0.7,0.1,2.3-1,2.8c-1.2,0.4-2.6,0.5-3.9,0.4h-4.9V65.9h4.9c1.3-0.1,2.6,0,3.9,0.4
	C30.2,66.8,30.1,68.4,30.1,69.1 M30.6,82.3c3,0,6.2,0.2,8.3-0.8s2.5-3.6,2.5-4.9v-11c0-1.3-0.4-3.9-2.5-4.9S33.6,60,30.6,60H9.1
	v22.3L30.6,82.3z M47.8,82.3V60h11.3v16.3h14.8v6L47.8,82.3z M133,68.8h16.2v8.6c-0.1,2.1-1.5,3.9-3.5,4.5c-2.4,0.5-4.8,0.6-7.3,0.5
	h-10.8c-3.6,0-6.6,0.3-8.5-0.9c-1.4-0.9-2.2-2.4-2.3-4V64.9c0.1-1.6,0.9-3.1,2.3-4c1.6-1.3,4.9-1,8.5-1h10.8c4.3,0,7.1,0,8.6,1.1
	c2.4,1.7,2.2,4.9,2.2,4.9h-10.9c-0.3-1.6-1.3-2-3.5-2h-3.5c-2.4,0-3.3,0.8-3.2,2.1V76c0,1.2,0.2,1.7,1.1,2.2
	c1.1,0.3,2.3,0.4,3.5,0.3h2.8c2.6,0,2.8-1.4,2.8-2.9v-2.7H133V68.8z"/>
<path class="st3" d="M160.2,83.1c0.4-1.3,0.9-2.6,1.5-3.8c0.7-1.3,1.3-2.7,1.9-4.1l1.6-3.2c0.2-0.6,0-1.3-0.4-1.7l-5.5-4.5
	c-0.5,0.3-0.8,0.7-1.1,1.2c-0.2,0.1-3.4,6.2-5.1,9c-0.9,2.5-1.7,5.1-2.6,7.6c-0.6,0.9-1.5-0.3-2.3-0.2l-8.6,3.7
	c-0.4,0.9-0.9,1.8-1.2,2.8c-1.1,2.9-2.1,5.8-3.5,8.7c-1-0.1-2.1,0.7-2.9,0.1c-0.6-1.7-1.2-3.4-1.9-5c-0.3-1-0.7-2.1-1.1-3.1
	c-1.2-0.1-2.3,0.8-3.4,1c-0.3-0.5,0.3-1,0.2-1.6c-0.2-0.5-0.3-1.5-1.1-1.4l-9,0.2c-0.4,0.4-0.7,0.8-0.8,1.3
	c-0.5,3.7-0.8,7.4-0.7,11.1c-0.3,1.4-0.1,3.1-0.3,4.5c-0.9-0.3-1-1-1.7-1.6s-1.2-1.7-2.2-1.6c-1.3,1.3-2.5,2.8-3.8,4.1l-0.5,0.2
	c-0.5-0.4-1.4-0.7-1.6-1.3c1.3-1.1,2.8-2.1,4.3-2.9c0.9-0.8,2.7-0.8,2.7-2.3c-0.1-3-0.4-5.9-1-8.8c-0.4-1.1,0-2.9-1.5-3.1
	c-1.1,0-2.2,0.3-3.3,0.7c-1,0.3-1.9,0.8-2.7,1.4c-2.7,3-5.5,5.9-8,9.1c-0.9,1.1-1.3,2.8-2.6,3.4c0.2-1.5,0.7-2.9,0.9-4.5
	c0.4-1,0.9-2.5,0.1-3.4c-1.9-0.8-3.9-1.8-5.9-2.6c-1.9-1-1.2,1.8-2.2,2.6l-1,0c-2.3-1-4.6-1.8-6.9-2.5c-1.1,0-2.1,0.3-3.1,0.9
	c-1.7,4-2.1,8.8-3.7,12.9c-0.4-0.2-0.8-0.6-1.3-0.4l-4.5,2.9c-0.9,0.7-2,0-2.8-0.5c0.3-3.2,0.8-6.4,1.1-9.6
	c-0.7-1.1-2.1-0.1-3.1-0.5c-1.9,0.7-5.4-1.2-5.7,1.8c-0.2,2.2-1.5,3.8-2.2,5.8c-1.2,2-1.3,4.6-3.2,6.2c-0.8,0.5-1.9,0.2-2.7,0.1
	l-0.1-0.4c0.5-3.3,1.7-6.3,2.6-9.5c0-1.1,1.2-2.4,0-3.3c-2.3-0.3-4.7,0.3-7.1,0.3c-0.5-0.1-0.9,0-1.3,0.2c-1.1,4.5-2.1,9.1-3.2,13.6
	c-0.1,1-0.4,2.4,0.6,2.9c2.1,1.6,3.1,3.8,5.4,4.8c2.5,0,5.1-0.3,7.6-0.7c1.6-1.6,3.1-3.4,4.9-5l0.5-0.2c0.6,1.1,0.8,2.4,1.7,3.3
	c1.1,0.4,2.4-0.1,3.6-0.1c1.8-0.3,3.8-0.3,5.6-0.7c1.1-2.4,2.5-4.6,4.1-6.6c1.3,1.2,2.4,2.8,3.6,4.1l0.7,0.3
	c2.5,0.2,3.8-1.8,6.2-1.7c-0.3,2-0.8,3.9-1.3,5.8c-0.6,1.8-0.6,3.9-1.4,5.5c-1.2-0.9-2-2-3.4-2.7c-3.2,0.7-6.3,1.7-9.6,2.5
	c-0.3,0.3-0.8,0.6-0.5,1.1c2.1,1.9,4.3,3.7,6.7,5.2c1.9,1.2,3.4,3.1,5.7,3.9c2.3-0.3,4.1-1.8,6-2.6c0.8-0.5,2.3-0.5,2.4-1.9
	c1.8-8.2,3.7-16.2,5.5-24.4l0.2-0.1c1.9,2.4,4.3,4.8,6.3,7.1l1.1,0.6c2.6-0.1,5.2-0.3,7.8-0.8c3.4,0.3,4.9-3,6.9-4.7
	c0.3,0.3,0.1,0.7,0.3,1.1c0.2,0.5,0.6,0.8,1.1,0.9c1.5-0.7,3-1.5,4.5-2.5c1.2-2.8,1.9-5.8,3.9-8.3c0.8,2.6,1.3,5.2,1.5,7.9
	c0.3,0.8,0,2.4,1.3,2.4c2.2-0.1,4.4-0.4,6.6-0.8c1.6-1,2.7-2.4,4.4-3.2c0.7,0.8,0,2.4,1,2.9h2.7c2.9-2.4,6-4.8,9.1-7h0.4
	c0.7,2,1.4,3.9,1.9,5.9c0.3,0.6,0.6,1.6,1.5,1.3c2.9-2,6-3.7,8.8-5.9c1.8-1.5,4.4-2.6,6.1-4.3c0.1-0.3,0.1-0.9-0.2-1
	c-1.1-0.7-2-2-3.3-2.4c-2.4,1.2-4.4,2.7-6.8,3.6l-0.3-0.2c0-3.1,0.3-6.1,0.6-9.2c0,0,0.8-5.9,1.4-6.2"/>
<path class="st1" d="M160.2,83.1c0.4-1.3,0.9-2.6,1.5-3.8c0.7-1.3,1.3-2.7,1.9-4.1l1.6-3.2c0.2-0.6,0-1.3-0.4-1.7l-5.5-4.5
	c-0.5,0.3-0.8,0.7-1.1,1.2c-0.2,0.1-3.4,6.2-5.1,9c-0.9,2.5-1.7,5.1-2.6,7.6c-0.6,0.9-1.5-0.3-2.3-0.2l-8.6,3.7
	c-0.4,0.9-0.9,1.8-1.2,2.8c-1.1,2.9-2.1,5.8-3.5,8.7c-1-0.1-2.1,0.7-2.9,0.1c-0.6-1.7-1.2-3.4-1.9-5c-0.3-1-0.7-2.1-1.1-3.1
	c-1.2-0.1-2.3,0.8-3.4,1c-0.3-0.5,0.3-1,0.2-1.6c-0.2-0.5-0.3-1.5-1.1-1.4l-9,0.2c-0.4,0.4-0.7,0.8-0.8,1.3
	c-0.5,3.7-0.8,7.4-0.7,11.1c-0.3,1.4-0.1,3.1-0.3,4.5c-0.9-0.3-1-1-1.7-1.6s-1.2-1.7-2.2-1.6c-1.3,1.3-2.5,2.8-3.8,4.1l-0.5,0.2
	c-0.5-0.4-1.4-0.7-1.6-1.3c1.3-1.1,2.8-2.1,4.3-2.9c0.9-0.8,2.7-0.8,2.7-2.3c-0.1-3-0.4-5.9-1-8.8c-0.4-1.1,0-2.9-1.5-3.1
	c-1.1,0-2.2,0.3-3.3,0.7c-1,0.3-1.9,0.8-2.7,1.4c-2.7,3-5.5,5.9-8,9.1c-0.9,1.1-1.3,2.8-2.6,3.4c0.2-1.5,0.7-2.9,0.9-4.5
	c0.4-1,0.9-2.5,0.1-3.4c-1.9-0.8-3.9-1.8-5.9-2.6c-1.9-1-1.2,1.8-2.2,2.6l-1,0c-2.3-1-4.6-1.8-6.9-2.5c-1.1,0-2.1,0.3-3.1,0.9
	c-1.7,4-2.1,8.8-3.7,12.9c-0.4-0.2-0.8-0.6-1.3-0.4l-4.5,2.9c-0.9,0.7-2,0-2.8-0.5c0.3-3.2,0.8-6.4,1.1-9.6
	c-0.7-1.1-2.1-0.1-3.1-0.5c-1.9,0.7-5.4-1.2-5.7,1.8c-0.2,2.2-1.5,3.8-2.2,5.8c-1.2,2-1.3,4.6-3.2,6.2c-0.8,0.5-1.9,0.2-2.7,0.1
	l-0.1-0.4c0.5-3.3,1.7-6.3,2.6-9.5c0-1.1,1.2-2.4,0-3.3c-2.3-0.3-4.7,0.3-7.1,0.3c-0.5-0.1-0.9,0-1.3,0.2c-1.1,4.5-2.1,9.1-3.2,13.6
	c-0.1,1-0.4,2.4,0.6,2.9c2.1,1.6,3.1,3.8,5.4,4.8c2.5,0,5.1-0.3,7.6-0.7c1.6-1.6,3.1-3.4,4.9-5l0.5-0.2c0.6,1.1,0.8,2.4,1.7,3.3
	c1.1,0.4,2.4-0.1,3.6-0.1c1.8-0.3,3.8-0.3,5.6-0.7c1.1-2.4,2.5-4.6,4.1-6.6c1.3,1.2,2.4,2.8,3.6,4.1l0.7,0.3
	c2.5,0.2,3.8-1.8,6.2-1.7c-0.3,2-0.8,3.9-1.3,5.8c-0.6,1.8-0.6,3.9-1.4,5.5c-1.2-0.9-2-2-3.4-2.7c-3.2,0.7-6.3,1.7-9.6,2.5
	c-0.3,0.3-0.8,0.6-0.5,1.1c2.1,1.9,4.3,3.7,6.7,5.2c1.9,1.2,3.4,3.1,5.7,3.9c2.3-0.3,4.1-1.8,6-2.6c0.8-0.5,2.3-0.5,2.4-1.9
	c1.8-8.2,3.7-16.2,5.5-24.4l0.2-0.1c1.9,2.4,4.3,4.8,6.3,7.1l1.1,0.6c2.6-0.1,5.2-0.3,7.8-0.8c3.4,0.3,4.9-3,6.9-4.7
	c0.3,0.3,0.1,0.7,0.3,1.1c0.2,0.5,0.6,0.8,1.1,0.9c1.5-0.7,3-1.5,4.5-2.5c1.2-2.8,1.9-5.8,3.9-8.3c0.8,2.6,1.3,5.2,1.5,7.9
	c0.3,0.8,0,2.4,1.3,2.4c2.2-0.1,4.4-0.4,6.6-0.8c1.6-1,2.7-2.4,4.4-3.2c0.7,0.8,0,2.4,1,2.9h2.7c2.9-2.4,6-4.8,9.1-7h0.4
	c0.7,2,1.4,3.9,1.9,5.9c0.3,0.6,0.6,1.6,1.5,1.3c2.9-2,6-3.7,8.8-5.9c1.8-1.5,4.4-2.6,6.1-4.3c0.1-0.3,0.1-0.9-0.2-1
	c-1.1-0.7-2-2-3.3-2.4c-2.4,1.2-4.4,2.7-6.8,3.6l-0.3-0.2c0-3.1,0.3-6.1,0.6-9.2C158.8,89.4,159.7,83.3,160.2,83.1z"/>
<path class="st4" d="M164,71.8c0.1,0.5-0.4,1-0.5,1.5c-1.8,3.8-4.1,7.6-5.3,11.6c-1.3,3.2-1.8,6.8-2.4,10.3
	c-0.4,0.8,0.1,1.5-0.2,2.4c0.1,1.3-0.4,3.2,1.1,3.7c3-1.1,5.3-3,8.2-4.3c0.3,0.3,1,0.4,1.2,1l0.1,0.3c-3.8,2.9-8.2,4.8-12.4,7.1
	c-0.5,0-0.6-0.7-0.7-1.1c-0.6-1.8-1.1-3.6-1.5-5.4c-0.2-0.3-0.5-0.6-0.8-0.7c-1.1,0.1-1.6,1.3-2.4,1.9c-2.4,2.1-5.1,3.9-7.8,5.9
	c-0.6,0.1-1.5,0.4-1.9-0.1l-0.1-3.4c-0.3-0.6-0.9-0.8-1.5-0.5c-2.4,1.7-4.4,3.4-6.7,5.3c-1.2,0.5-2.5,0.5-3.8,0.2
	c-0.7-3.5-1.2-7.1-2.2-10.5c-0.4-0.7-0.7-1.4-1.4-1.7c-1.5,0.4-1.2,2.3-1.9,3.3c-0.9,2.7-2,5.2-3.3,7.8c-0.9,0.2-1.2,1.2-2.3,1.3
	c-0.1-1.4,0-2.7,0.2-4.1c-0.3-1.6,0.4-3.2,0.2-4.8c0-2.4,0.6-4.6,0.6-7.1h0.1c0-0.6,0.1-1.2,0.3-1.8c2.3,0.2,4.6,0,6.9,0.3
	c-0.1,0.7-0.6,1.3-0.3,2.2c1,1,2.6,0,3.8-0.1l0.4,0.4c1,2.4,1.9,5,3,7.5c0.5,0.6,1.3,0.7,2.1,0.5l3.5-0.7c0.6-1.2,1-2.4,1.2-3.7
	c0.5-2.6,1.3-5,2.5-7.4c0.9-0.9,2.1-1,3.1-1.7c1.6-0.9,3.3-1.6,5.1-2.1c1-0.2,1.6,0.9,2.5,0.5c0.8-0.6,0.8-1.9,1.4-2.7
	c1.9-5.4,4.3-10.5,7.3-15.3h0.4L164,71.8z"/>
<path class="st1" d="M164,71.8c0.1,0.5-0.4,1-0.5,1.5c-1.8,3.8-4.1,7.6-5.3,11.6c-1.3,3.2-1.8,6.8-2.4,10.3
	c-0.4,0.8,0.1,1.5-0.2,2.4c0.1,1.3-0.4,3.2,1.1,3.7c3-1.1,5.3-3,8.2-4.3c0.3,0.3,1,0.4,1.2,1l0.1,0.3c-3.8,2.9-8.2,4.8-12.4,7.1
	c-0.5,0-0.6-0.7-0.7-1.1c-0.6-1.8-1.1-3.6-1.5-5.4c-0.2-0.3-0.5-0.6-0.8-0.7c-1.1,0.1-1.6,1.3-2.4,1.9c-2.4,2.1-5.1,3.9-7.8,5.9
	c-0.6,0.1-1.5,0.4-1.9-0.1l-0.1-3.4c-0.3-0.6-0.9-0.8-1.5-0.5c-2.4,1.7-4.4,3.4-6.7,5.3c-1.2,0.5-2.5,0.5-3.8,0.2
	c-0.7-3.5-1.2-7.1-2.2-10.5c-0.4-0.7-0.7-1.4-1.4-1.7c-1.5,0.4-1.2,2.3-1.9,3.3c-0.9,2.7-2,5.2-3.3,7.8c-0.9,0.2-1.2,1.2-2.3,1.3
	c-0.1-1.4,0-2.7,0.2-4.1c-0.3-1.6,0.4-3.2,0.2-4.8c0-2.4,0.6-4.6,0.6-7.1h0.1c0-0.6,0.1-1.2,0.3-1.8c2.3,0.2,4.6,0,6.9,0.3
	c-0.1,0.7-0.6,1.3-0.3,2.2c1,1,2.6,0,3.8-0.1l0.4,0.4c1,2.4,1.9,5,3,7.5c0.5,0.6,1.3,0.7,2.1,0.5l3.5-0.7c0.6-1.2,1-2.4,1.2-3.7
	c0.5-2.6,1.3-5,2.5-7.4c0.9-0.9,2.1-1,3.1-1.7c1.6-0.9,3.3-1.6,5.1-2.1c1-0.2,1.6,0.9,2.5,0.5c0.8-0.6,0.8-1.9,1.4-2.7
	c1.9-5.4,4.3-10.5,7.3-15.3h0.4L164,71.8z"/>
<path class="st3" d="M36.3,110.1c-2.3,9.1-4.6,18.1-7,27.1c-2,1.7-4.2,3.2-6.5,4.5c-3.5,0-7-0.4-10.4-0.6c-2.9-1.6-5.6-3.5-8-5.8
	c-1-2.9-1-5.7-1.5-8.9c-0.1-1.1-0.6-2.2-0.2-3.3l0.5-0.3c3.4,0.7,6.9,0.8,10.2,1.8c0.7,0.7,0.3,1.8,0.5,2.7c0.2,1.1,0.5,2.2,1,3.2
	c0.9,0.7,2,0.1,2.8-0.2c0.9-0.5,2.3-0.7,2.4-2c1.5-5.1,3.1-10.2,4.2-15.5c0.3-2.1,1.1-3.9,1.5-5.9c0.5-1.2,0.2-2.5,0.6-3.7
	c0.3-1.2,0.5-2.3,0.6-3.5c-0.5-0.3-1.2,0-1.7,0c-2.9,0.4-6,0.6-8.8,1.1c-2.9,0.2-5.9,0.9-8.9,1c-0.9-0.3-0.7-1.6-0.7-2.2
	c0.4-3,0.2-5.8,0.5-8.8l5.3-1.2l30-5.9L36.3,110.1z"/>
<path class="st1" d="M36.3,110.1c-2.3,9.1-4.6,18.1-7,27.1c-2,1.7-4.2,3.2-6.5,4.5c-3.5,0-7-0.4-10.4-0.6c-2.9-1.6-5.6-3.5-8-5.8
	c-1-2.9-1-5.7-1.5-8.9c-0.1-1.1-0.6-2.2-0.2-3.3l0.5-0.3c3.4,0.7,6.9,0.8,10.2,1.8c0.7,0.7,0.3,1.8,0.5,2.7c0.2,1.1,0.5,2.2,1,3.2
	c0.9,0.7,2,0.1,2.8-0.2c0.9-0.5,2.3-0.7,2.4-2c1.5-5.1,3.1-10.2,4.2-15.5c0.3-2.1,1.1-3.9,1.5-5.9c0.5-1.2,0.2-2.5,0.6-3.7
	c0.3-1.2,0.5-2.3,0.6-3.5c-0.5-0.3-1.2,0-1.7,0c-2.9,0.4-6,0.6-8.8,1.1c-2.9,0.2-5.9,0.9-8.9,1c-0.9-0.3-0.7-1.6-0.7-2.2
	c0.4-3,0.2-5.8,0.5-8.8l5.3-1.2l30-5.9L36.3,110.1z"/>
<path class="st4" d="M40.2,85.7c-0.8,4.3-2.2,8.7-3.2,13c-0.5,3-1.7,5.9-2.2,8.9c-0.9,2.8-1.5,5.8-2.3,8.7c-0.6,2.3-1,4.4-1.7,6.6
	l-3,11.3c-0.9,2-3.2,2.8-4.6,4.4c-1.4,0.7-3.5,0.3-5,0.3c-2.4-0.1-4.7-0.5-6.9-1.2c-1.7-0.9-3.4-2.4-5.1-3.5
	c-1.5-2.1-1.2-4.9-1.6-7.6c0.1-0.6-0.1-1.2,0-1.8c1.9-0.2,3.6,0.5,5.5,0.5l1.9,0.5c0.4,2.2,0.4,4.6,1.8,6.3c2.2,1.6,4.9-0.3,6.8-1.1
	c1.9-2.5,2.3-5.8,3.2-8.8c1.4-3.8,1.7-8,2.7-11.9c0.6-3,1.2-6,2.1-9c0-1.6,0.9-2.6,0.6-4.3l-0.4-0.4c-6,1.1-12.1,1.6-18,2.8
	l-2.2,0.2c-0.1-2.5,0.1-5.2,0.2-7.7c1.2-0.4,2.5-0.7,3.8-0.9c5.5-1.2,11.2-1.8,16.7-3.3C32.9,87,36.6,86.2,40.2,85.7"/>
<path class="st1" d="M40.2,85.7c-0.8,4.3-2.2,8.7-3.2,13c-0.5,3-1.7,5.9-2.2,8.9c-0.9,2.8-1.5,5.8-2.3,8.7c-0.6,2.3-1,4.4-1.7,6.6
	l-3,11.3c-0.9,2-3.2,2.8-4.6,4.4c-1.4,0.7-3.5,0.3-5,0.3c-2.4-0.1-4.7-0.5-6.9-1.2c-1.7-0.9-3.4-2.4-5.1-3.5
	c-1.5-2.1-1.2-4.9-1.6-7.6c0.1-0.6-0.1-1.2,0-1.8c1.9-0.2,3.6,0.5,5.5,0.5l1.9,0.5c0.4,2.2,0.4,4.6,1.8,6.3c2.2,1.6,4.9-0.3,6.8-1.1
	c1.9-2.5,2.3-5.8,3.2-8.8c1.4-3.8,1.7-8,2.7-11.9c0.6-3,1.2-6,2.1-9c0-1.6,0.9-2.6,0.6-4.3l-0.4-0.4c-6,1.1-12.1,1.6-18,2.8
	l-2.2,0.2c-0.1-2.5,0.1-5.2,0.2-7.7c1.2-0.4,2.5-0.7,3.8-0.9c5.5-1.2,11.2-1.8,16.7-3.3C32.9,87,36.7,86.2,40.2,85.7z"/>
<path class="st3" d="M148.4,89.2c0.4,1.7-0.7,3.2-0.6,5c0,0.6-0.4,1.2-1,1.3c-1.8,0.3-3.3,1.4-5.2,1.4c-0.2-0.3-0.3-0.7-0.1-1.1
	l3.8-6.6c0.3-0.4,0.7-0.7,1.1-0.8C147.1,88.4,147.8,88.7,148.4,89.2"/>
<path class="st1" d="M148.4,89.2c0.4,1.7-0.7,3.2-0.6,5c0,0.6-0.4,1.2-1,1.3c-1.8,0.3-3.3,1.4-5.2,1.4c-0.2-0.3-0.3-0.7-0.1-1.1
	l3.8-6.6c0.3-0.4,0.7-0.7,1.1-0.8C147.2,88.4,147.9,88.7,148.4,89.2z"/>
<path class="st4" d="M108.6,91.1l0.4,7.8l-0.2,0.5c-2.5,1.5-4.9,3.2-7.2,5c-0.3,0.3-0.4,0.9-0.2,1.3c1.5,1,2.7,2.4,4.5,3.1
	c1.2-0.2,1.5-1.4,2.4-2s1.2-1.6,2.2-2.3c0.6,0.4,1.1,0.9,1.5,1.5c-0.4,1.1-1.5,1.7-2.2,2.6c-0.8,0.7-1.2,1.7-2.4,1.9
	c-2.8,0.4-5.5,0.6-8.3,0.6c-2.4-1.8-3.9-4-5.5-6l0.1-0.7c3.1-4.4,6.3-9.3,10.3-12.9c1.3-0.8,2.7-1.6,4.4-1.4L108.6,91.1z"/>
<path class="st1" d="M108.6,91.1l0.4,7.8l-0.2,0.5c-2.5,1.5-4.9,3.2-7.2,5c-0.3,0.3-0.4,0.9-0.2,1.3c1.5,1,2.7,2.4,4.5,3.1
	c1.2-0.2,1.5-1.4,2.4-2s1.2-1.6,2.2-2.3c0.6,0.4,1.1,0.9,1.5,1.5c-0.4,1.1-1.5,1.7-2.2,2.6c-0.8,0.7-1.2,1.7-2.4,1.9
	c-2.8,0.4-5.5,0.6-8.3,0.6c-2.4-1.8-3.9-4-5.5-6l0.1-0.7c3.1-4.4,6.3-9.3,10.3-12.9c1.3-0.8,2.7-1.6,4.4-1.4L108.6,91.1z"/>
<path class="st5" d="M146.4,93.8c-0.4,0.3-0.9,0.4-1.4,0.4c0.4-0.7,1-1.3,1.6-1.9C146.7,92.8,146.4,93.2,146.4,93.8"/>
<path class="st1" d="M146.4,93.8c-0.4,0.3-0.9,0.4-1.4,0.4c0.4-0.7,1-1.3,1.6-1.9C146.7,92.8,146.4,93.2,146.4,93.8z"/>
<path class="st3" d="M105.7,94.8c-0.4,1.8,0.9,4-1.1,4.9c-1.8,0.6-3.4,1.6-5.2,2.3c-0.4,0.1-0.7-0.3-0.9-0.6c-0.5-1.4,1.3-1.9,1.8-3
	c1.5-1.7,2.6-3.7,4.5-4.8C105.4,93.6,105.5,94.3,105.7,94.8"/>
<path class="st1" d="M105.7,94.8c-0.4,1.8,0.9,4-1.1,4.9c-1.8,0.6-3.4,1.6-5.2,2.3c-0.4,0.1-0.7-0.3-0.9-0.6c-0.5-1.4,1.3-1.9,1.8-3
	c1.5-1.7,2.6-3.7,4.5-4.8C105.4,93.6,105.5,94.3,105.7,94.8z"/>
<path class="st4" d="M91.8,96.4c-0.7,3.2-1.4,6.3-2.2,9.6c-1.6,6.4-3.1,13.1-4.7,19.5c-1,1.4-0.1,4.2-2.3,4.7
	c-1.8,0.6-3.5,1.6-5.4,2c-1-0.3-1.6-1.4-2.6-1.8c-2-1.7-4.2-3.1-6.1-5c1.9-0.7,3.8-1.2,5.9-1.7c1.3,0,1.7,1.5,2.7,1.9
	s1.1,1.3,2.2,1.3L80,126c0.8-3.2,1.8-6.4,2.3-9.7c0.4-2,1.4-3.9,1.3-6c-0.2-0.4-0.7-0.6-1.2-0.4c0,0,0,0,0,0
	c-2.4,0.7-4.5,1.7-6.8,2.5c-1.4-1.2-2.7-2.7-3.8-4.3c0.6-4.4,1.9-8.4,3-12.6c0.2-0.8,0.8-1.4,1.6-1.5c1.5,0.4,3,0.8,4.4,1.4
	c1.4,0.8,3,0.9,4.5,1.6C87,97,86.6,95,87.2,94C88.8,94.6,90.4,95.5,91.8,96.4"/>
<path class="st1" d="M91.8,96.4c-0.7,3.2-1.4,6.3-2.2,9.6c-1.6,6.4-3.1,13.1-4.7,19.5c-1,1.4-0.1,4.2-2.3,4.7
	c-1.8,0.6-3.5,1.6-5.4,2c-1-0.3-1.6-1.4-2.6-1.8c-2-1.7-4.2-3.1-6.1-5c1.9-0.7,3.8-1.2,5.9-1.7c1.3,0,1.7,1.5,2.7,1.9
	s1.1,1.3,2.2,1.3L80,126c0.8-3.2,1.8-6.4,2.3-9.7c0.4-2,1.4-3.9,1.3-6c-0.2-0.4-0.7-0.6-1.2-0.4c0,0,0,0,0,0
	c-2.4,0.7-4.5,1.7-6.8,2.5c-1.4-1.2-2.7-2.7-3.8-4.3c0.6-4.4,1.9-8.4,3-12.6c0.2-0.8,0.8-1.4,1.6-1.5c1.5,0.4,3,0.8,4.4,1.4
	c1.4,0.8,3,0.9,4.5,1.6C87,97,86.6,95,87.2,94C88.8,94.6,90.4,95.5,91.8,96.4z"/>
<path class="st5" d="M104.2,97.5c0.1,0.7-0.7,0.6-1,0.9C103.5,98,103.7,97.6,104.2,97.5"/>
<path class="st1" d="M104.2,97.5c0.1,0.7-0.7,0.6-1,0.9C103.5,98,103.7,97.6,104.2,97.5z"/>
<path class="st3" d="M85.4,101.6c0.1,0.8,0,1.5-0.3,2.2c-0.5,1.2-0.4,2.8-1.3,3.8c-0.9,0.5-1.5-0.5-2.3-0.3
	c-1.8-0.3-3.5-0.6-5.3-0.8c-0.7-0.6-0.4-1.6-0.2-2.4c1-2,2-4.2,4.1-5.2C82.1,99.2,83.9,100.2,85.4,101.6"/>
<path class="st1" d="M85.4,101.6c0.1,0.8,0,1.5-0.3,2.2c-0.5,1.2-0.4,2.8-1.3,3.8c-0.9,0.5-1.5-0.5-2.3-0.3
	c-1.8-0.3-3.5-0.6-5.3-0.8c-0.7-0.6-0.4-1.6-0.2-2.4c1-2,2-4.2,4.1-5.2C82.1,99.2,83.9,100.2,85.4,101.6z"/>
<path class="st4" d="M61.1,100c-0.5,2.9-1,5.8-1.5,8.7c0.1,1.7,2,1.5,3.1,2.2c2.7,0.8,4.1-2.3,6.4-3c0.3,0,0.4,0.4,0.5,0.5l-0.2,0.6
	c-1.3,1.8-2.5,4-4.3,5.7c-2.2,0.9-4.4,0.4-6.7,0.6c-0.8-1.3-1.1-2.8-2.1-4c-0.3-0.2-0.7-0.2-1.1,0c-1.9,1.7-3.3,4.4-5.4,5.8
	c-2.4,0.6-4.8,0.9-7.2,1.1c-1.6-1.6-3.1-2.6-4.3-4.3c0.7-4.5,2.1-8.6,2.8-13.1c1.8-0.2,3.6-0.2,5.3-0.1c-0.3,2.4-1.3,4.9-1.9,7.4
	c-0.2,1.8-2,4.3,0.1,5.5c1.9,0.5,4.6,1.4,6.1-0.5c2.2-4.2,3.3-8.9,5.5-13.1c0.9-0.6,1.9,0,2.9-0.3C59.9,99.9,60.5,99.7,61.1,100"/>
<path class="st1" d="M61.1,100c-0.5,2.9-1,5.8-1.5,8.7c0.1,1.7,2,1.5,3.1,2.2c2.7,0.8,4.1-2.3,6.4-3c0.3,0,0.4,0.4,0.5,0.5l-0.2,0.6
	c-1.3,1.8-2.5,4-4.3,5.7c-2.2,0.9-4.4,0.4-6.7,0.6c-0.8-1.3-1.1-2.8-2.1-4c-0.3-0.2-0.7-0.2-1.1,0c-1.9,1.7-3.3,4.4-5.4,5.8
	c-2.4,0.6-4.8,0.9-7.2,1.1c-1.6-1.6-3.1-2.6-4.3-4.3c0.7-4.5,2.1-8.6,2.8-13.1c1.8-0.2,3.6-0.2,5.3-0.1c-0.3,2.4-1.3,4.9-1.9,7.4
	c-0.2,1.8-2,4.3,0.1,5.5c1.9,0.5,4.6,1.4,6.1-0.5c2.2-4.2,3.3-8.9,5.5-13.1c0.9-0.6,1.9,0,2.9-0.3C59.9,99.9,60.5,99.7,61.1,100z"/>
<path class="st5" d="M83.6,103.8c-0.2,0.7,0,1.6-0.6,1.9c-1.8-0.2-3.6-0.5-5.3-0.6c1-1.3,2.2-2.4,3.6-3.2
	C82.2,102.3,83.5,102.6,83.6,103.8"/>
<path class="st1" d="M83.6,103.8c-0.2,0.7,0,1.6-0.6,1.9c-1.8-0.2-3.6-0.5-5.3-0.6c1-1.3,2.2-2.4,3.6-3.2
	C82.2,102.3,83.5,102.7,83.6,103.8z"/>
<path class="st6" d="M164.4,81.7c-0.1,0.6-0.2,1.2-0.2,1.8c0,0.3,0,0.5,0.1,0.8h0.6c0.4,0,2.4-0.6,2.4-1.5v-1.1h4.6
	c-0.1,1.2,0,2.1,0.4,2.3c2,1.4,6.8,0.7,7.7,2.8c0.3,0.5,0.4,1.1,0.3,1.6c-0.1,1.4-1.1,2.5-2.4,2.8c-0.9-2.9-3.4-1.8-5.4-2.3h-0.3
	c0,0-2,6.6-3.7,6.6c-0.6,0-3-4.2-2.7-6.2c-1.4,0.2-2.7,0.4-4,0.8c-1.5,0.4-2.7,0.8-2.7,0.8s0.1-1.2,0.1-1.6c0-0.2,0.4-2.7,0.5-2.8
	c0.7-0.7,1.5-1.4,2.4-1.9c-0.1,0,0.7-0.1,1.1-2.2c0-0.2,0.1-0.4,0.1-0.7L164.4,81.7z M189.2,81.7c-0.3,0.2-0.6,0.3-1,0.4
	c-0.4,0-0.9-0.1-1.3-0.4H189.2z M207.8,81.7c0,0.2,0.1,0.4,0.1,0.6c0,1.8-2,2.2-2.9,2.2c-1.4-0.3-2.9-0.8-4.2-1.5
	c-0.3,0.9-1.2,1.5-2.2,1.4c-1.4-0.3-2.6-1-3.7-1.9c-0.4,0.6-1.2,0.9-1.9,0.9c-1.4,0-2.7-0.6-3.6-1.7H207.8z"/>
<path class="st6" d="M156.9,67.8c-0.2,0.3-0.3,0.6-0.5,0.9c-0.2-0.3-0.3-0.6-0.3-0.9H156.9z M192.8,67.8c2.2,1.9,4.5,3.7,6.6,5.5
	c1.7,1.5,7.7,5.2,8.4,8.3h-18.3c0,0-0.1-0.1-0.1-0.1l-0.2,0.1h-2.3c-0.5-0.3-0.9-0.7-1.2-1.2c-0.3,0.3-0.7,0.5-1.2,0.6
	c-3-0.1-5-4.6-7.5-8.3c-0.3-0.6-0.6-1.1-1-1.6c0,0-0.9,1.3-1.2,1.7c-0.6,0.7-1.3,1.4-2,2c-0.2,1.7-0.7,4.6-0.8,6.8h-4.7v-5
	c0-0.4-0.1-0.9-0.3-1.3c-0.4,0.2-0.8,0.4-1.2,0.6c-0.6,1.9-1.1,3.8-1.4,5.8h-1c0.2-1.3,0.5-3.4,0.7-4.8c0.1-0.8-0.2-1-0.2-1
	c1.3-3,2.8-4,1.4-5.9c-0.6-0.5-1.3-1.2-2.5-2.2L192.8,67.8z M207.1,67.8L207.1,67.8z M220.6,67.8c-0.4,0.7-1.1,1.2-1.9,1.3
	c-1.5,0.2-2.6-0.6-3.5-1.1c-0.1-0.1-1.6,1.4-3,1.2c-1.1-0.1-2.2-0.6-2.9-1.5L220.6,67.8z M223.9,67.8c-0.1,0-0.1,0.1-0.2,0.1
	c-0.8,0.2-1.6,0.2-2.4-0.1H223.9z"/>
<path class="st6" d="M156,67.8c-0.2-0.7-0.2-1.3-0.3-2c0-0.2,0.6-3.7,0.6-4c0-3.5-6.2-8-8.6-10.4c-1.6-1.7-2.9-3.7-3.9-5.8
	c-3.2-6.4-2.9-12.8-7.8-18.9c-1.2-1.4-2.7-2.6-4.3-3.5c-0.7-0.4-6.2-2.6-7.1-2.6h-1.4c-0.2,0-1.6,1.1-1.8,1.1
	c-1.1,0-1.1-2.6-1.1-2.9c0-4.7,3.9-3,6.9-4.6c0.8-0.4,1.1-1.4,1.9-1.9c1.3-0.8,2.7-1.3,4.2-1.3l5.4,0.2c1.6,0.1,4.2-0.1,4.2,0.1
	c-0.2,1-0.7,2-1.2,2.9c1.1,0.7,5,4,9.8,7.1c1.6,1.2,3.5,2,5.5,2.3c0.3-1,0.5-2.1,0.5-3.2c0-11.8-14.4-10.1-14.4-15.4
	c0-3.8,4.2-4.6,8.2-4.9c4.5-0.3,7.6,0.4,11.5,1.3c1.5-0.8,3.1-1.2,4.8-1.4c0.9,0,1.7,0,2.6,0c7.3,0.8,14.9,5.5,22.1,9.2
	c0.1,0.1,6.7,3.7,6.7,5.5c-0.2,0.9-1,1.6-1.9,1.7c-1.5,0.1,5.9,9.4,9,13.8c0.2,0.3,2.3,3,2.3,4.2c-0.1,0.4-0.2,0.7-0.4,1
	c1.7,5.3,3.9,10.4,6.6,15.2c5.6,10.4,8.9,12.8,9.9,14.9c0.3,0.8,0,1.8-0.8,2.2h-2.6c-0.2,0-0.4-0.1-0.6-0.2l-0.1,0.2h-11.3
	c-0.2-0.2-0.5-0.5-0.8-0.8c-0.4,0.4-0.9,0.7-1.4,0.8h-0.3c-1.9-0.1-3.1-2-4.3-3c-0.4,0.4-0.2,0.3-1.2,0.7s-3-1.7-3.9-2.6
	c-0.3,0.4-0.7,0.6-1.1,0.7c-1.8,0.3-2.9-1.5-4.2-3c-0.4,0.3-0.9,0.5-1.4,0.5c-2.7-0.3-3.3-2.3-4.7-3.4c-0.3,0.4-0.8,0.7-1.3,0.7
	c-0.8,0.2-2-0.4-3-0.9c1.5,1.5,3,2.5,4.6,4.1s3.4,3.3,5,4.7c0.6,0.5,1.1,1,1.7,1.4h-30c-0.6-0.5-1.3-1.1-2.1-1.8c-0.6-1-1-2-1.5-3
	c0-0.1-1,0.7-1,2.8c0,0-0.3,0.4-0.5,0.9s-0.4,0.8-0.6,1.2L156,67.8z"/>
<path class="st5" d="M168.4,1.4C177,1.6,189,8.1,197.1,14c0.2,0.1,0.4,0.5,0.4,0.7c-1.1,2.6-17.6-9-26.4-10.1
	c-0.2,0-1.3-0.1-1.3,0.7s8.6,2.1,8.4,4c-0.1,0.7-1.4,0.7-1.7,0.7s-2.7-1.1-2.9,0c-0.2,0.9,3.8,1.5,3,2.9c-0.4,0.7-1.7,0.2-1.7,1
	c0,0.6,2.5,1.5,2.1,2.8c-0.2,0.7-1.9-0.3-2.1,0.7c-0.1,0.6,1.9,1.5,1.3,2.8c-0.4,0.8-1.6-0.4-2,0.9c-0.2,0.7,1.3,1.3,0.9,2.2
	s-1.8-0.3-2.3,0.7c-0.3,0.5,1,1.9,0.4,2.6s-1.1-0.6-2,0.1c-0.7,0.6,0.4,1.6-0.1,2s-1.1-0.6-2,0c-0.6,0.4,0.2,1.5-0.4,1.8
	s-1-0.7-1.7-0.4c-0.5,0.3-0.1,1.2-0.7,1.4c-0.8,0.2-1-0.6-1.6-0.5s-0.6,0.7-1.1,0.8s-1-0.5-1.2-0.4c-0.8,0.1-0.6,0.6-1.1,0.7
	s-1-0.6-1.2-0.6c-1.9,0-1.8,2.4-1.8,3.2c0,0.6,0,1.1,0.1,1.7c0.2,1.3,0.5,2.6,0.9,3.9c2.2,7.5,5.8,11.4,11.8,16
	c0.9,0.7,1.6,1.6,1.9,2.7c-0.4-0.5-0.9-0.8-1.6-0.9c-0.3,0-1,0.1-1,0.5s3.3,4.6,3.7,7.4c0.1,0.5,0.1,1.1,0.1,1.7c0,1.4-1.1,7-4,6.7
	c-1-0.2-2-0.7-2.7-1.5c-5-4.9-5.2-11.2-7.7-16.4c-1.7-3.3-5.5-4.7-8-6.2c-2.7-1.9-4.6-4.5-5.7-7.6c-0.6-1.8-1.2-3.6-2-5.3
	c-1.4-3.3-2.3-7.2-5-10.6s-6.4-4.8-9.5-5.9c-1.8-0.6-3.7-1.1-5.6-1.3c-1.1,0-0.9,0.2-2,0.7c-0.1-0.4-0.1-0.7-0.1-1.1
	c-0.1-3.6,5.8-1.8,6.6-3.3c1-1.4,2.5-2.4,4.2-2.8c0,0,2.9,0,5.2,0c0.7,0,1.5,0.2,2.2,0.3c-0.7,0.7-1.3,1.4-1.8,2.2
	c0.2,0.1,0.4,0.2,0.6,0.3c0.2,0,1.5-0.4,1.7-0.4c0.5,0,2.9,0.9,7.7,4.9c2.7,2.1,5.6,3.9,8.6,5.4c0.6,0.3,0.9,3.5,3.1,3.6
	c4.4,0.2,13.7-5.6,13.7-13.4c0-9.2-10.3-9.2-10.3-11.3S166.3,1.3,168.4,1.4"/>
<path class="st5" d="M162.1,2.7c-0.3,0.2-0.5,0.5-0.6,0.8c-0.1,0.4-0.1,0.9,0.1,1.2c-0.3-0.1-0.7-0.2-1-0.3
	c-2.8-0.3-5.7-0.5-8.5-0.5c5.1,1.2,11.4,2.2,16.6,6.2c1,0.7,1.6,1.8,1.8,3c0,0.7-0.5,1.2-0.8,1.2c-1.1,0-3.7-1.4-7.3-2.1
	c-0.7-0.1-1.3-0.1-2-0.1c0.3,0.1,9.9,3,9.9,6.6c0,1.5-1.1,3.1-2.3,2.6c-1.7-0.9-3.6-1.6-5.5-1.9c0,0,5,1.9,4.9,3.7
	c-0.6,1.4-6.5,4.7-7.4,3.3c-0.4-0.6-0.7-1.3-0.7-2c0-1.1,0.9-2.9,0.9-4.3c-0.1-13.2-15.2-12.6-15.2-15.7c0-2,3.3-3.2,7.4-3.3
	C156.3,1.4,160,1.8,162.1,2.7"/>
<path class="st5" d="M182.1,10.9c0.9-0.2,10.7,4.7,13.3,5.6c2.8,4.9,11.8,16.6,12.2,17.5c0.3,0.7-0.7,1.1-0.9,1.2
	c-2,0.7-3.1-2.3-3.5-2s1.8,2.2,0.4,3c-1.6,1-3.1-2-3.6-1.8c-1,0.3,2.2,2.3,0.1,3.1c-1.3,0.5-2.9-2-3.7-1.7s2.6,1.9-0.1,2.8
	c-1.4,0.5-3.1-2.5-3.7-2c-0.4,0.4,1.6,1.6,0,2.6c-1.9,1.1-3.1-1.8-3.6-1.2c-0.3,0.4,1.6,2,0.4,2.8c-1.7,1.1-3.1-1.2-3.6-0.7
	s1.7,2,0.6,2.6c-1.5,0.9-2.8-0.9-3-0.5s1.7,1.8,0.5,2.9s-3.4-1.5-3.9-0.8s1,1,1.3,1.8c0.2,0.5,0,1.1-0.4,1.4c-0.3,0.2-0.6,0.3-1,0.3
	c-1.2,0.2-2.4-1.5-2.9-1s0.7,1.2,0.7,1.5c0,0.6-0.5,1.1-1.1,1.3c-1.7,0.5-3.1-2.4-3.6-1.9c-0.3,0.3,0.6,2.2,0.6,2.4
	c0,0.4-0.3,0.6-0.6,0.7c0,0,0,0,0,0c-2.4-0.2-2.9-2.6-3.6-2.4s0.4,1.7-0.5,2c-2.5,0.8-3.6-3.2-3.9-3.2s-0.7,0.7-0.6,1.1
	c-2.6-2.6-3.8-7.7-4.3-11.7c-0.1-0.6-0.1-1.3-0.1-1.9c0-0.6,0.4-1.1,1-1.3c0.9-0.1,1.9-0.1,2.8,0c3.8,0.3,9.3-2.5,11.7-7.2
	c1.6-3.3,3-6.7,4.2-10.2C180.3,13.8,180.2,11.3,182.1,10.9"/>
<path class="st5" d="M205.1,36.2c0.4,0.1,0.9,0.2,1.3,0.2c0.3,0,0.5-0.2,0.7-0.3c2.4,6.5,3.1,9.5,7.1,16.2c2.6,4.7,5.7,9.2,9.2,13.3
	c0.3,0.4,0.3,1-0.1,1.3c-0.2,0.1-0.4,0.2-0.6,0.2c-1,0.1-1.9,0-3.8-1.9c-0.2-0.1-1.9-2.4-2.1-2.4c-1.3,0,1.1,2.9,2.8,4.4
	c-0.2,0.7-1.4,1-1.8,1c-1.5,0-3.4-2.6-5.4-4c-0.2-0.1-0.5-0.2-0.5,0c-0.1,0.4,1.1,1.7,2.2,2.9c0.2,0.4-1,1-1.9,1.2
	c-1.9,0.3-4.4-3.5-5.7-4.8c-0.6-0.6-0.7-0.3-0.7,0c0.5,0.9,1.1,1.7,1.7,2.5c-0.2,0.4-0.6,0.7-1,0.7c-1.2,0.2-4.1-3.5-6-5.3
	c-0.5-0.4-0.6-0.4-0.6,0c0.5,0.8,1,1.6,1.7,2.3c-0.2,0.2-0.4,0.4-0.7,0.4c-1.2,0.2-4.4-4.1-5.4-4.6c-0.7-0.3-0.6-0.1-0.6,0
	c0.4,0.8,1,1.5,1.7,2.2c-0.2,0.3-0.5,0.6-0.9,0.6c-1.8,0.1-3.6-3.9-5-4.8c-0.2-0.2-0.5-0.3-0.6,0s0.6,1.2,1.3,2.1
	c-0.3,0.3-0.7,0.5-1.2,0.5c-1.4,0.2-3.9-3.6-5.5-4.7c-0.4-0.2-0.6-0.3-0.6-0.1c0.3,0.5,0.6,1.1,1,1.5c-0.5,1-1.2,0.7-2,0.5
	c-3.6-0.8-8.2-5.2-9.1-5.9l0.4-0.4c0.3-0.4,0.1-1,0.4-1c0.7,0.3,1.4,0.3,2.1,0.2c0.7-0.4,1.3-1,1.6-1.8c0.6,0.2,1.3,0.3,2,0.1
	c1-0.3,1.6-1.2,1.6-2.2c0.9,0.3,1.8,0.1,2.5-0.5c0.5-0.6,0.7-1.3,0.6-2.1c0,0,2.3,0.2,2.4-1.8c2.8,0.6,3.2-1.5,3.2-1.5
	c0.7,0.2,1.4,0.2,2.1-0.2c0.4-0.2,0.8-0.6,1-1.1c0.7,0.6,1.7,0.8,2.6,0.5c0.7-0.2,1.2-0.6,1.5-1.2c0.7,0.3,1.6,0.3,2.3,0
	c0.7-0.2,1.3-0.7,1.6-1.4c0.6,0.4,1.3,0.4,2,0.2C204.5,37.1,204.9,36.7,205.1,36.2"/>
<path class="st5" d="M206,81.8c0,0.6-0.4,1-1,1c-3.3,0.1-6.7-3.4-8.1-4.5c-0.7-0.7-1.5-1.3-2.2-1.9c-0.4,0,1.2,1.5,1.4,1.7
	c1.7,1.7,4.7,3.8,3,4.6c-0.2,0.1-0.4,0.2-0.7,0.2c-1.8-0.1-7.2-6.1-8.7-7.3c-0.1,0.1-0.1,0.2,0,0.2c1.2,1.3,3.4,3.6,4,5.4
	c0.1,0.3,0,0.5-0.1,0.7c-0.2,0.2-0.6,0.2-0.8,0.2c-2,0-6.2-6.2-7.3-7.4c0,0-0.1,0.2-0.1,0.2c0.7,1.2,3,4.8,3,4.8s0.7,1-0.1,1.1
	c-0.6,0.1-1.6-0.7-2.3-1.6c-1.5-1.8-3.2-4.6-3.9-5.2c0,0-0.1,0-0.1,0.2s2.4,4,2.7,4.8c0,0,0.5,0.9-0.8,0.6c-2.5-0.6-8.9-13-8.1-13.6
	c0.5-0.3,2.8,3.9,3.6,3.9c0.6,0,0.4-0.5,0.4-0.6c0-0.7-2.4-3.5-2-4c0.4-0.6,3.2,4.3,4,4.3c0.5,0,0.5-0.3,0.5-0.6
	c0-0.7-2.8-3.9-2.3-4.3s3.1,4,4.4,4c0.3,0,0.5-0.3,0.6-0.6c0-0.7-2.5-3.2-2.2-3.4c0.6-0.5,4.8,4,5.4,4s0.6-0.3,0.6-0.6
	c0-1.4-8.1-7.8-9.7-9.1c-3-2.6-9.8-7.2-9.7-7.6c0,0,0.3-0.7,0.9-0.6s2.2,1,2.8,0.9c8.4,7.5,17.2,15.5,25.7,22.8
	C200.4,76,206.1,80.7,206,81.8"/>
<path class="st5" d="M168.8,75.5c1.4,0.4,2.7,0.2,2.2,2.8c-0.1,0.2-0.3,4.3-0.3,4.6s-0.2,1.5,0.3,2c1.2,1.2,8.6,0.9,8.4,3.1
	c0,0.9-0.3,1.8-1,2.3c-0.1,0-0.2-1.1-0.7-1.6c-1-1-3.3-0.6-4.1-0.8c-0.8-0.2-1.6-0.5-2.4-0.9c-0.4,0-0.6,0.3-0.6,0.6c0,0,0,0,0,0
	c0.1,0.8,0,1.6-0.1,2.4c-0.3,1.2-0.8,2.3-1.6,3.2c-0.9-1.1-1.4-2.3-1.6-3.7c-0.1-0.4-0.1-0.8,0-1.2c0.2-0.5,0.4-0.9,0.7-1.3
	c-0.1-0.1,0-0.2-0.2-0.2c-0.4,0.1-0.7,0.3-1.1,0.5c-1.9,0.6-3.8,1.1-5.8,1.5c-0.6,0.2-1.1,0.4-1.6,0.8c1.6-5.8,9.6-2.5,9.6-8.4
	C168.9,77.5,168.8,76.9,168.8,75.5"/>
<path class="st3" d="M132,15c1.5,0.1,3,0.3,4.5,0.6V16c-0.6,0.7-1.5,0.5-2.2,0.9c-0.4,0.3-1,1.5-1.7,1.5h-1.3
	c-0.1,0.6-0.1,1.1,0,1.7l-0.2,0.2c-1-0.9-1.6-2.1-1.7-3.4C129.4,15.7,131.1,14.9,132,15"/>
<path class="st5" d="M131.4,16c-0.6,0-0.4,0.4-0.7,0.8L131,17c0.4-0.2,0.8-0.4,1.3-0.5C132.1,16.3,131.8,16.1,131.4,16"/>
<path class="st5" d="M159.1,63c-0.7,0.4-1.1,2-1.1,2.8c0,0.1,0.5-0.8,1.2-0.8s1.4,1,1.3,1C160.2,65.4,159.1,63,159.1,63"/>
<path class="st5" d="M163.8,75.9c0,0-1.7,3.5-2.5,5.8c-0.7,1.9-1.5,4.9-1.5,4.8c0.7-0.7,1-0.8,1.6-1.3s1-0.6,1.4-1.2
	c0.5-0.8,0.6-2.6,0.9-4.2C164.1,76.7,164.2,76.1,163.8,75.9"/>
<rect x="253.2" y="14.2" width="2.8" height="113.4"/>
<path d="M303.7,85.8c-3,0.1-6-0.7-8.6-2.2c-2.4-1.5-4.4-3.7-5.6-6.3c-1.4-3-2.1-6.4-2-9.7c-0.1-3.3,0.6-6.7,2-9.7
	c1.2-2.6,3.1-4.8,5.5-6.3c5.4-2.9,11.9-2.9,17.3,0c2.5,1.5,4.4,3.7,5.6,6.3c1.4,3,2,6.3,2,9.7c0.1,3.4-0.6,6.7-2,9.8
	c-1.2,2.6-3.1,4.8-5.6,6.3C309.7,85.2,306.7,85.9,303.7,85.8z M303.7,82.3c3.4,0.2,6.6-1.2,8.8-3.8c2.1-2.6,3.1-6.2,3.1-10.9
	s-1-8.4-3.1-10.9c-4.6-4.9-12.3-5.1-17.2-0.5c-0.2,0.1-0.3,0.3-0.5,0.5c-2.1,2.5-3.2,6.2-3.2,10.9s1.1,8.3,3.2,10.9
	C297.1,81.1,300.3,82.5,303.7,82.3z"/>
<path d="M326.9,96.2V67.3c0-1.2,0-2.3-0.1-3.5s-0.2-2.4-0.3-3.5h3.9l0.5,5.2l-0.4,0.8c0.5-2,1.6-3.7,3.2-4.8
	c1.7-1.2,3.7-1.8,5.8-1.7c2.1,0,4.1,0.5,5.8,1.7c1.7,1.1,3.1,2.7,4,4.6c1,2.2,1.5,4.5,1.4,6.9c0.1,2.4-0.4,4.7-1.4,6.9
	c-1.7,3.8-5.6,6.2-9.8,6.1c-2.1,0.1-4.1-0.5-5.8-1.7c-1.6-1.2-2.8-2.9-3.2-4.8l0.5-0.5v17.5L326.9,96.2z M338.7,82.4
	c2.2,0.1,4.3-0.8,5.7-2.5c1.4-1.7,2-4,2-7.1c0.2-2.6-0.6-5.1-2-7.2c-2.8-3.2-7.7-3.4-10.9-0.6c-0.2,0.2-0.4,0.3-0.5,0.5
	c-1.3,1.7-2,4-2,7.2s0.7,5.5,2,7.2C334.4,81.6,336.5,82.6,338.7,82.4z"/>
<path d="M377.5,82.4c-1.2,1.1-2.7,1.9-4.2,2.4c-1.7,0.6-3.5,0.9-5.3,0.9c-2.3,0.1-4.7-0.5-6.7-1.6c-1.9-1-3.4-2.6-4.4-4.5
	c-2-4.4-2-9.4,0-13.8c0.9-1.9,2.4-3.5,4.2-4.6c1.9-1.1,4-1.7,6.2-1.7c2-0.1,4,0.5,5.7,1.5c1.6,1,2.9,2.5,3.7,4.2
	c0.9,2.1,1.4,4.3,1.3,6.6v0.8h-19v-2.7h16.7l-1.3,1.8c0.1-2.9-0.5-5.2-1.7-6.8c-1.3-1.6-3.3-2.5-5.3-2.3c-2.2-0.1-4.3,0.9-5.7,2.6
	c-1.5,2.1-2.2,4.6-2.1,7.1c0,3.3,0.7,5.7,2.2,7.4c1.4,1.7,3.6,2.5,6.4,2.5c1.4,0,2.9-0.2,4.2-0.7c1.4-0.5,2.7-1.3,3.9-2.2
	L377.5,82.4z"/>
<path d="M384.1,85.4V67.3c0-1.2,0-2.3-0.1-3.5s-0.2-2.4-0.3-3.5h3.9l0.5,5.2l-0.5,0.4c0.6-1.9,1.8-3.5,3.5-4.6
	c1.7-1.1,3.7-1.6,5.6-1.6c6,0,9,3.3,9,10v15.8h-4V69.8c0-2.3-0.5-4-1.4-5.1c-1.1-1.2-2.8-1.8-4.4-1.6c-2.1-0.1-4.1,0.7-5.6,2.1
	c-1.5,1.6-2.2,3.7-2.1,5.8v14.4L384.1,85.4z"/>
<path d="M425.2,85.8c-1.7,0-3.5-0.1-5.1-0.5c-1.5-0.3-3-0.8-4.5-1.5c-1.3-0.7-2.6-1.5-3.7-2.5l1.5-3.2c1.6,1.4,3.4,2.5,5.4,3.2
	c2.1,0.7,4.2,1,6.4,1c2.3,0.1,4.6-0.4,6.6-1.7c1.5-1.1,2.4-2.9,2.4-4.7c0.1-1.1-0.4-2.2-1.2-3c-0.9-0.8-2-1.4-3.2-1.8
	c-1.4-0.4-2.9-0.9-4.6-1.3s-3.3-0.8-4.9-1.3c-1.4-0.4-2.8-1.1-4.1-1.8c-1.1-0.7-2.1-1.7-2.8-2.8c-0.7-1.3-1.1-2.8-1-4.2
	c0-1.9,0.5-3.8,1.6-5.4c1.1-1.6,2.7-2.9,4.5-3.6c2.2-0.9,4.5-1.4,6.9-1.3c1.6,0,3.2,0.2,4.7,0.5c1.4,0.3,2.8,0.8,4.2,1.5
	c1.3,0.7,2.4,1.5,3.4,2.5l-1.6,3.2c-1.5-1.3-3.2-2.4-5-3.2c-1.8-0.7-3.7-1-5.6-1c-2.3-0.1-4.6,0.5-6.5,1.8c-1.6,1.1-2.4,3-2.4,4.9
	c-0.1,1.1,0.3,2.3,1,3.2c0.8,0.9,1.8,1.5,3,1.9c1.4,0.5,2.9,1,4.4,1.3c1.7,0.4,3.4,0.8,5,1.3c1.5,0.4,2.9,1,4.2,1.7
	c1.2,0.6,2.2,1.5,3,2.7c0.8,1.2,1.2,2.7,1.1,4.1c0,1.9-0.5,3.7-1.6,5.3c-1.2,1.6-2.7,2.8-4.5,3.5C430,85.5,427.6,85.9,425.2,85.8z"
	/>
<path d="M444.5,85.4V48.6h4v36.8H444.5z"/>
<path d="M456,49.6h5v4.6h-5V49.6z M456.4,85.4V60.3h4v25.2H456.4z"/>
<path d="M490.5,85.4h-4v-6.8l0.6,0.6c-0.5,2-1.6,3.7-3.2,4.8c-1.7,1.2-3.8,1.8-5.9,1.7c-2.1,0-4.1-0.5-5.8-1.6
	c-1.7-1.1-3.1-2.7-3.9-4.6c-1-2.2-1.4-4.5-1.4-6.9c-0.1-2.4,0.4-4.7,1.4-6.8c0.8-1.8,2.2-3.4,3.9-4.5c1.8-1.1,3.8-1.6,5.9-1.6
	c2.1-0.1,4.1,0.5,5.9,1.7c1.6,1.2,2.8,2.9,3.2,4.8l-0.6,0.5V48.6h4L490.5,85.4z M478.8,82.4c2.2,0.1,4.3-0.8,5.7-2.5
	c1.3-1.7,2-4.1,2-7.2c0-3.1-0.7-5.4-2-7.1c-1.4-1.7-3.5-2.7-5.7-2.5c-2.2-0.1-4.4,0.8-5.8,2.5c-1.4,1.7-2.1,4-2.1,7s0.7,5.4,2.1,7.3
	C474.4,81.6,476.5,82.5,478.8,82.4z"/>
<path d="M518.9,82.4c-1.2,1.1-2.7,1.9-4.2,2.4c-1.7,0.6-3.5,0.9-5.3,0.9c-2.3,0.1-4.6-0.5-6.7-1.6c-1.9-1-3.4-2.6-4.4-4.5
	c-2-4.4-2-9.4,0-13.8c0.9-1.9,2.4-3.5,4.2-4.6c1.9-1.1,4-1.7,6.2-1.7c2-0.1,4,0.5,5.8,1.5c1.6,1,2.9,2.5,3.7,4.2
	c0.9,2.1,1.3,4.3,1.3,6.6v0.8h-19v-2.6h16.7l-1.3,1.8c0.1-2.9-0.5-5.2-1.7-6.8c-1.3-1.6-3.3-2.5-5.3-2.3c-2.2-0.1-4.4,0.9-5.7,2.6
	c-1.5,2.1-2.2,4.6-2.1,7.1c0,3.3,0.7,5.7,2.2,7.4c1.6,1.7,4,2.7,6.4,2.5c1.4,0,2.9-0.2,4.2-0.7c1.4-0.5,2.7-1.3,3.9-2.2L518.9,82.4z
	"/>
<path d="M534,85.8c-4.2,0-7.6-1.1-10-3.2l1.3-3c1.2,1,2.6,1.8,4.1,2.3c1.5,0.5,3.1,0.7,4.7,0.7c1.5,0.1,3-0.3,4.3-1
	c1-0.6,1.5-1.7,1.5-2.8c0-0.9-0.3-1.8-1-2.4c-1-0.7-2.1-1.2-3.3-1.4l-4.2-1c-1.8-0.3-3.5-1.2-4.9-2.5c-1.1-1.1-1.8-2.7-1.7-4.3
	c0-1.4,0.4-2.7,1.2-3.9c0.9-1.2,2-2.1,3.3-2.6c1.6-0.7,3.3-1,5.1-1c1.7,0,3.4,0.3,5,0.8c1.5,0.5,2.8,1.4,3.9,2.5l-1.3,2.9
	c-1.1-0.9-2.3-1.7-3.7-2.2c-1.3-0.5-2.6-0.7-3.9-0.7c-1.5-0.1-2.9,0.2-4.2,1c-0.9,0.6-1.5,1.7-1.5,2.8c0,0.9,0.3,1.8,0.9,2.4
	c0.9,0.7,1.9,1.2,3,1.4l4.3,1.1c1.9,0.3,3.8,1.2,5.2,2.5c1.1,1.2,1.7,2.7,1.7,4.4c0.1,2.1-0.9,4-2.7,5.2
	C539.1,85.3,536.6,85.9,534,85.8z"/>
</svg>