<?xml version="1.0" encoding="utf-8"?>
<!-- Generator: Adobe Illustrator 25.0.0, SVG Export Plug-In . SVG Version: 6.00 Build 0)  -->
<svg version="1.1" id="Ebene_1" xmlns="http://www.w3.org/2000/svg" xmlns:xlink="http://www.w3.org/1999/xlink" x="0px" y="0px"
	 viewBox="0 0 543.9 141.6" style="enable-background:new 0 0 543.9 141.6;" xml:space="preserve">
<style type="text/css">
	.st0{fill:#FFFFFF;}
</style>
<path class="st0" d="M0,52.9h148c0.2,0,0.5,0,0.7,0c0.1,0,0.2-0.1,0.4-0.1c0-0.1-0.1-0.3-0.2-0.4c-0.6-0.5-1.2-1.1-1.7-1.7
	c-0.9-1.1-1.7-2.3-2.4-3.5c-0.6-1-1.1-2-1.5-3c-0.6-1.5-1.1-3-1.6-4.5c-0.7-2.1-1.3-4.2-1.9-6.3c-0.8-2.6-2.2-5-4-7.1
	c-1-1.1-2.1-2-3.4-2.7c-1.1-0.6-2.1-1.1-3.3-1.5c-1.3-0.5-2.6-1-3.8-1.4c-1-0.4-2.2-0.1-3,0.6c-0.7,0.6-1.5,0.4-1.6-0.6
	s-0.1-2-0.1-3c0.2-1.2,1.2-2.2,2.4-2.4c1.2-0.2,2.4-0.4,3.6-0.7c0.7-0.1,1.3-0.5,1.6-1.1c0.9-1.2,2.1-2,3.6-2.3
	c1.2-0.3,2.4-0.3,3.7-0.2c2.2,0.1,4.4,0.1,6.6,0.1h0.4c0.7,0.1,0.8,0.3,0.5,0.9s-0.5,1.2-0.8,1.8c-0.1,0.2-0.1,0.5,0.1,0.6
	c0,0,0,0,0,0l4.1,3.1c2.4,1.9,5,3.6,7.7,5c0.8,0.4,1.7,0.7,2.6,0.9c0.1,0,0.4-0.1,0.5-0.2c0-0.1,0.1-0.1,0.1-0.2
	c0.2-1.3,0.3-2.5,0.3-3.8c0-1-0.3-2-0.7-3c-0.6-1.5-1.6-2.9-2.9-3.9c-1.8-1.3-3.7-2.4-5.8-3.2c-1.3-0.5-2.6-1.2-3.8-2
	c-1.4-1.3-1.5-3.4-0.2-4.8c1-1,2.2-1.6,3.5-1.8l2-0.5c0.2,0,0.4-0.1,0.6-0.1c2.2,0,4.3,0,6.5,0c0.7,0.1,1.3,0.2,2,0.4
	c1,0.2,2.1,0.4,3.1,0.7c0.8,0.2,1.6,0.1,2.4-0.3c0.2-0.1,0.5-0.2,0.7-0.3c1.2-0.4,2.5-0.6,3.8-0.5c1.8-0.1,3.5,0.2,5.2,0.7
	c1.5,0.4,2.9,0.9,4.4,1.5c1.6,0.7,3.2,1.4,4.7,2.2s3,1.5,4.5,2.3c1.8,0.9,3.6,1.9,5.3,2.9c2,1.1,3.9,2.4,5.5,4
	c0.3,0.3,0.5,0.6,0.6,1c0.2,0.5,0,1-0.4,1.2c-0.3,0.3-0.7,0.5-1.2,0.6c-0.4,0.1-0.6,0.3-0.3,0.7c0.6,1.1,1.3,2.2,2,3.2
	c1.1,1.7,2.4,3.3,3.6,5s2.4,3.2,3.6,4.8c0.8,1.2,1.5,2.4,2.2,3.7c0.2,0.3,0,0.8,0,1.2c-0.1,0.4-0.1,0.7,0,1.1
	c0.6,1.6,1.1,3.1,1.8,4.7c0.6,1.6,1.3,3.1,2,4.7s1.4,2.9,2.2,4.3c1,1.8,2,3.6,3,5.4s2.1,3.4,3.3,5c1,1.5,2.2,2.8,3.3,4.2
	c0.3,0.4,0.6,0.9,1,1.3V67c-0.2,0.2-0.4,0.4-0.7,0.6c-0.9,0.5-1.9,0.6-2.8,0.2c-0.4-0.1-0.7-0.2-1,0.3c-0.7,1-1.9,1.4-3,1
	c-0.5-0.2-1-0.4-1.5-0.7c-0.4-0.3-1-0.2-1.4,0.1c-0.3,0.3-0.7,0.5-1.1,0.6c-1.6,0.6-2.8-0.1-3.9-1.1l-0.2-0.2
	c-0.2-0.2-0.5-0.6-0.7-0.7s-0.5,0.3-0.8,0.4c-0.8,0.4-1.8,0.3-2.5-0.3c-0.7-0.6-1.4-1.2-2.1-1.8c-0.6-0.6-0.6-0.6-1.3-0.2
	c-0.8,0.4-1.7,0.2-2.3-0.4c-0.6-0.5-1.2-1.1-1.8-1.6c-0.2-0.1-0.4-0.2-0.6-0.1c-1,0.7-2.4,0.6-3.2-0.4c-0.5-0.5-1-1.2-1.5-1.7
	c-0.2-0.2-0.3-0.4-0.6-0.2c-1.2,0.8-2.3,0.3-3.2-0.4c-0.8-0.6-1.5-1.3-2.1-2.1c-0.3-0.3-0.5-0.4-1-0.2c-0.7,0.5-1.6,0.5-2.4,0.1
	c-0.1,0-0.1-0.1-0.2-0.1c-0.2,0-0.3,0-0.5,0c0.1,0.1,0.1,0.3,0.2,0.4c0.5,0.5,1,0.9,1.6,1.3c1.3,1.2,2.5,2.4,3.8,3.5
	c1.3,1.2,2.7,2.5,4.1,3.7c1.6,1.4,3.3,2.8,5,4.2s3.4,2.7,5,4c1.8,1.2,3.4,2.7,4.8,4.4c0.5,0.6,0.8,1.4,1.1,2.1
	c0.3,1.1-0.3,2.2-1.4,2.5c0,0,0,0,0,0c-1.3,0.4-2.7,0.2-3.8-0.5c-0.5-0.2-0.9-0.4-1.4-0.6c-0.2,0-0.3,0-0.4,0.2
	c-0.8,1.1-2.3,1.4-3.5,0.7c-0.7-0.4-1.3-0.8-2-1.2c-0.1-0.1-0.3-0.1-0.5,0c-0.9,0.7-2.1,0.8-3.1,0.4c-0.8-0.2-1.5-0.7-2-1.3
	c-0.2-0.1-0.4-0.2-0.6-0.1c-1.1,0.4-2.3,0.1-3-0.8c-0.3-0.3-0.4-0.3-0.8-0.1c-0.6,0.3-1.4,0.3-2,0c-0.9-0.5-1.7-1.1-2.3-2
	c-1.4-2.2-2.9-4.4-4.3-6.5l-0.1-0.1c-0.6-1-0.5-1-1.2-0.1s-1.6,1.8-2.4,2.7c-0.1,0.1-0.2,0.3-0.3,0.5c-0.2,1.6-0.4,3.1-0.6,4.6
	c-0.1,1.1,0,2.2-0.1,3.3c0,0.5,0.3,0.9,0.7,1c1.2,0.3,2.4,0.6,3.5,0.9c1,0.2,2,0.5,2.9,0.9c0.8,0.3,1.2,1.1,1.1,1.9
	c0,0.1,0,0.2,0,0.3c0.1,1.3-0.7,2.4-1.9,2.8c-0.3,0.2-0.6,0.1-0.7-0.3c-0.3-0.9-1.1-1.6-2.1-1.6l-1.8-0.1c-0.3,0-0.7-0.1-1-0.1
	c-0.4-0.1-0.6,0-0.7,0.4c-0.5,1.7-1.1,3.3-2,4.8c-0.3,0.4-0.6,0.8-1,1.2c-0.2,0.2-0.5,0.3-0.7,0.1c-0.1,0-0.1-0.1-0.1-0.2
	c-0.4-0.5-0.8-1-1.1-1.5c-0.7-1.3-1.2-2.7-1.4-4.1c0-0.3-0.2-0.4-0.5-0.3c-0.7,0.2-1.4,0.2-2.1,0.4c-1.2,0.3-2.4,0.7-3.6,1.1
	c-0.3,0.1-0.4,0-0.4-0.3s0.1-0.5,0.1-0.8s-0.1-0.3-0.2-0.4c-0.1,0.1-0.3,0.2-0.3,0.3c-0.1,0.8-0.1,1.6-0.2,2.4
	c-0.1,1.8-0.2,3.6-0.4,5.4c0,0.2,0,0.3,0,0.5c0.1,0.1,0.4,0.3,0.4,0.3c0.8-0.3,1.7-0.7,2.5-1.1c1.3-0.7,2.6-1.4,3.8-2.2
	c0.4-0.2,0.8-0.1,1.1,0.2c0.9,0.7,1.7,1.4,2.6,2.1c0.3,0.3,0.4,0.8,0.1,1.1c0,0-0.1,0.1-0.1,0.1c-1,0.8-2.1,1.5-3.2,2.2
	c-1.3,0.9-2.6,1.8-3.9,2.7s-2.4,1.6-3.6,2.3s-2.4,1.5-3.5,2.3c-0.8,0.5-1.3,0.5-1.8-0.4s-0.7-2-1.1-2.9s-0.8-2.2-1.1-3.2
	c-0.1-0.4-0.4-0.4-0.7-0.2c-2.9,2.2-5.7,4.4-8.6,6.6c-0.2,0.2-0.5,0.2-0.7,0.3c-0.7,0-1.4,0-2,0c-0.4,0.1-0.7-0.2-0.8-0.6
	c-0.1-0.5-0.2-0.9-0.2-1.4c-0.1-0.8-0.4-0.9-1-0.5c-0.9,0.7-1.8,1.3-2.6,2.1c-0.7,0.6-1.6,0.9-2.5,1c-1.5,0.1-3,0.3-4.5,0.5
	c-0.8,0.2-1.6-0.3-1.8-1c0-0.1-0.1-0.3,0-0.4c-0.2-1.3-0.3-2.6-0.6-3.9s-0.4-2.5-0.7-3.7c-0.1-0.3-0.2-0.7-0.3-1h-0.2
	c-0.3,0.3-0.5,0.6-0.7,1c-0.7,1.4-1.3,2.8-1.9,4.2c-0.3,0.7-0.5,1.4-0.8,2.1c-0.2,0.4-0.5,0.8-0.8,1.1c-1.2,0.7-2.5,1.4-3.7,2
	c-0.5,0.3-1.3-0.3-1.5-1c0-0.2-0.1-0.4-0.2-0.6c-0.2,0.1-0.4,0.2-0.6,0.4c-0.8,0.8-1.6,1.7-2.5,2.6c-1,1-2.4,1.6-3.8,1.6
	c-1.2,0-2.3,0.2-3.5,0.4c-1.3,0.2-2.6,0.2-3.9,0.3c-0.6-0.1-1.1-0.3-1.5-0.7c-1.8-1.9-3.5-3.8-5.2-5.7c-0.3-0.3-0.5-0.7-0.7-1
	c-0.1-0.1-0.2-0.1-0.3-0.2c-0.1,0-0.2,0.2-0.2,0.3c-0.4,1.8-0.8,3.5-1.2,5.3s-0.9,3.6-1.5,5.5c-0.4,1.9-0.9,3.8-1.3,5.8
	s-0.8,3.8-1.3,5.7c-0.1,0.6-0.2,1.1-0.3,1.7c-0.1,0.6-0.5,1.1-1.1,1.3c-1.1,0.5-2.1,1-3.1,1.6s-2.1,1-3.1,1.5s-2.2-0.1-3.1-0.8
	c-2.4-1.8-4.8-3.6-7.1-5.4c-1-0.8-2-1.6-2.9-2.4c-0.3-0.3-0.4-0.9-0.1-1.2c0.1-0.1,0.3-0.2,0.5-0.3c1.6-0.4,3.1-0.8,4.7-1.3
	s2.8-0.8,4.2-1.2c0.3-0.1,0.6-0.1,0.9,0.2c0.8,0.7,1.7,1.4,2.5,2.1c0.3,0.2,0.5,0.2,0.7-0.2c0.1-0.4,0.3-0.7,0.3-1.1
	c0.4-1.8,0.9-3.6,1.3-5.4c0.3-1.2,0.5-2.4,0.8-3.6c0.1-0.5,0-0.6-0.5-0.6c-1.1,0.1-2.2,0.5-3.1,1.1c-0.8,0.4-1.6,0.5-2.5,0.4
	c-0.3-0.1-0.6-0.2-0.8-0.4c-0.9-1.1-1.9-2.2-2.8-3.2c-0.5-0.6-0.7-0.6-1.1,0.1c-0.8,1.2-1.6,2.3-2.3,3.6c-0.3,0.6-0.6,1.2-0.9,1.8
	c-0.2,0.3-0.3,0.6-0.7,0.7c-1.2,0.2-2.5,0.3-3.7,0.5s-2.7,0.2-4,0.3c-0.7,0.1-1.4-0.3-1.7-0.9c-0.3-0.7-0.6-1.3-0.9-2
	c-0.2-0.4-0.5-0.4-0.7-0.1c-1,1-1.9,2-2.9,2.9c-0.5,0.6-1.1,1.2-1.7,1.7c-0.4,0.2-0.8,0.4-1.2,0.4c-1.9,0.3-3.8,0.5-5.8,0.5
	c-1,0-1.9-0.4-2.6-1.1c-1-1-2-2.1-3-3.1c-0.3-0.3-0.7-0.6-1-0.9c-0.2-0.3-0.4-0.6-0.4-1c0-0.7,0.1-1.3,0.2-1.9
	c0.4-1.8,0.8-3.6,1.2-5.3c0.5-2.2,1.1-4.3,1.6-6.5c0-0.2,0.1-0.3,0.1-0.5c0-0.6,0.5-1.2,1.2-1.2c0,0,0.1,0,0.1,0
	c1,0,1.9-0.1,2.9-0.1c1.3-0.1,2.6-0.2,3.8-0.2c0.9,0,1.3,0.7,1.1,1.6c-0.4,1.4-0.8,2.8-1.2,4.2c-0.5,1.6-1,3.1-1.4,4.7
	c-0.2,0.7-0.3,1.5-0.4,2.2c-0.1,0.2,0.1,0.5,0.3,0.6c0,0,0.1,0,0.1,0c0.5,0,1.1,0,1.7,0c0.2-0.1,0.4-0.2,0.6-0.3c1-0.9,1.6-2,2-3.2
	c0.3-0.8,0.7-1.6,1-2.4s0.7-1.6,1-2.4c0.7-1.2,1.1-2.5,1.3-3.8c0.1-1,1-1.8,2-1.7c0,0,0,0,0,0c0.8,0,1.5,0.1,2.2,0.1
	c1.1,0,2.2-0.1,3.3-0.2c0.2,0,0.4,0,0.5,0c0.4,0,0.8,0.4,0.8,0.8c0,0.1,0,0.1,0,0.2c-0.3,2.7-0.6,5.5-0.9,8.2c0,0.2-0.1,0.3-0.1,0.5
	c0,0.2,0.1,0.4,0.3,0.6c1.1,0.9,2.1,0.6,3.2-0.2s2.2-1.6,3.4-2.3c0.3-0.1,0.7-0.1,1,0c0.4,0.1,0.5,0.1,0.6-0.3
	c0.3-1.2,0.8-2.4,1.1-3.6s0.5-2.5,0.9-3.8c0.4-1.4,0.8-2.8,1.2-4.2c0.2-0.9,1-1.2,1.8-1.4c1-0.3,2-0.3,2.9,0.1c0.9,0.4,2,0.6,2.9,1
	c0.8,0.3,1.5,0.6,2.3,1c1,0.4,1.6,0.2,1.9-0.8c0.1-0.3,0.1-0.7,0.2-1c0-0.5,0.4-0.9,1-0.9c0.2,0,0.3,0.1,0.5,0.2
	c1.2,0.5,2.4,1,3.6,1.6c0.8,0.3,1.5,0.7,2.3,1.1c0.5,0.4,0.7,1.1,0.6,1.7c-0.2,1.1-0.5,2.1-0.8,3.1c-0.2,0.8-0.4,1.7-0.5,2.5
	c0,0.1,0.1,0.3,0.1,0.3c0.1,0,0.3,0,0.3-0.1c0.4-0.5,0.8-1.1,1.2-1.6c0.8-1,1.4-2.1,2.3-3.1c1.6-1.9,3.2-3.7,4.8-5.5
	c0.6-0.7,1.2-1.3,1.8-1.9c0.4-0.3,0.9-0.6,1.4-0.8c1.4-0.7,2.8-1.1,4.4-1.2c0.6,0,1.2,0.4,1.3,1.1c0.4,2.1,0.8,4.1,1.1,6.2
	c0.2,1.5,0.2,3,0.3,4.5c0.1,0.6-0.3,1.2-0.8,1.4c-1,0.6-2.1,1.1-3,1.7s-2,1.3-3,2c-0.1,0,0,0.4,0,0.5c0.3,0.3,0.6,0.5,1,0.7
	c0.4,0.2,0.7,0,1-0.2l3.1-3.3c0.7-0.7,1-0.7,1.7,0s1.4,1.5,2.1,2.2c0.2,0.1,0.3,0.2,0.5,0.3c0.1-0.2,0.1-0.3,0.1-0.5
	c0.1-3.1,0.2-6.2,0.4-9.3c0.1-1.4,0.3-2.9,0.4-4.3c0-0.3,0-0.6,0.1-0.9c0.1-0.5,0.3-1,0.6-1.5c0.2-0.2,0.4-0.3,0.7-0.3
	c1.6,0,3.1,0,4.7-0.1c0.1,0,0.1,0,0.2,0l0.5-0.3c-0.2-0.1-0.3-0.2-0.5-0.2c-1.6,0-3.2,0-4.8,0c-0.6-0.1-1.2,0.2-1.4,0.8
	c-0.2,0.6-0.9,1-1.5,0.9c-0.7-0.1-1.3-0.1-2,0c-0.3,0-0.6-0.1-0.7-0.4c-0.4-1.1-0.8-1.3-2-1.3c-1.8,0-3.5,0.4-5,1.3
	c-0.6,0.3-1.3,0.5-1.9,0.4c-19.4,0-38.8,0-58.2,0c-1.1,0-1.2,0-0.9-1.1c0.4-1.6,0.8-3.2,1.2-4.8c0-0.1,0.1-0.3,0.1-0.4
	c0.1-0.5-0.1-0.6-0.5-0.5c-1.4,0.3-2.8,0.5-4.1,0.8s-3,0.7-4.6,1c-1.8,0.4-3.7,0.7-5.6,1.1c-1.7,0.3-3.4,0.8-5.1,1.1
	c-2.6,0.5-5.1,1-7.7,1.5l-6.7,1.3c-0.4,0-0.7,0-1.1,0H0.6c-0.2,0-0.4,0-0.6,0V52.9z M135.4,12.6v0.1c-0.8,0-1.5,0-2.3,0
	c-0.4,0-0.8,0-1.2,0.2c-1.4,0.5-2.6,1.3-3.5,2.6c-0.3,0.4-0.7,0.7-1.2,0.7c-1,0.1-2,0.1-2.9,0.3c-1.7,0.3-2.6,1-2.4,2.7
	c0.1,0.7,0.2,0.8,0.8,0.4c0.5-0.3,1.2-0.4,1.8-0.3c2,0.4,4,0.9,5.9,1.6c2,0.7,3.8,1.6,5.6,2.8c0.9,0.6,1.7,1.4,2.5,2.2
	c0.8,1,1.6,2.1,2.2,3.2c0.6,1.1,1.1,2.2,1.6,3.3c0.5,1.3,0.9,2.6,1.4,3.9s1.1,2.6,1.6,3.9c0.4,1,0.6,2,1,2.9c0.6,1.5,1.4,3,2.5,4.2
	c0.9,1.2,2,2.2,3.3,3c1.5,0.9,3.1,1.7,4.6,2.7c1.2,0.7,2.2,1.7,2.9,3c0.5,1,0.9,2.1,1.4,3.2s0.7,2,1,3c0.5,1.4,0.9,2.9,1.4,4.3
	c0.7,1.9,1.8,3.6,3.1,5.1c0.7,0.8,1.4,1.4,2.3,2c1.8,1.1,3.1,0.5,4-1.2c0.4-0.8,0.7-1.6,0.9-2.4c0.8-2.2,0.6-4.5-0.5-6.6
	c-0.8-1.6-1.8-3-2.7-4.6c-0.2-0.4-0.2-0.6,0.3-0.8c0.5-0.2,1-0.1,1.4,0.2c0.1,0,0.3,0.1,0.4,0.1c0-0.1,0-0.3-0.1-0.4
	c-0.4-0.6-0.9-1.1-1.4-1.6c-1.6-1.5-3.4-2.9-5-4.4c-1-1-2-2.1-2.8-3.2c-1.1-1.5-2.1-3.2-2.7-4.9c-0.4-0.9-0.8-1.8-1.1-2.8
	s-0.6-2.2-0.9-3.2c-0.4-1.5-0.5-3.1-0.2-4.6c0.1-0.7,0.5-1.2,1.1-1.5c0.6-0.3,0.9,0.1,1.3,0.4c0.3,0.2,0.7,0.2,0.9-0.1
	c0.6-0.5,0.6-0.5,1.4-0.2c0.2,0.1,0.7,0.1,0.8,0c0.3-0.6,1.1-0.8,1.7-0.4c0.1,0,0.2,0.1,0.2,0.2c0.2,0.2,0.6,0.2,0.8,0
	c0.1-0.1,0.1-0.2,0.1-0.4c0.1-0.9,0.7-1,1.4-0.6c0.2,0.1,0.5,0.2,0.7,0.1s0.1-0.4,0.2-0.7c0-0.1,0-0.2,0-0.2
	c-0.1-0.9,0.5-1.2,1.3-0.9c0.3,0.1,0.6,0.1,0.9,0c0-0.3,0-0.5,0-0.8c0,0,0-0.1,0-0.1c-0.1-0.4-0.2-0.7,0.1-1
	c0.3-0.3,0.8-0.3,1.1-0.1c0.2,0.2,0.6,0.2,0.9,0c0.3-0.2,0.4-0.7,0.1-1c-0.2-0.2-0.3-0.5-0.4-0.7c-0.1-0.3-0.2-0.8,0-1
	s0.7-0.2,1-0.3c0.1,0,0.2,0.1,0.3,0c0.3-0.1,0.6-0.2,0.8-0.4s0-0.5-0.1-0.8c-0.2-0.3-0.3-0.5-0.6-0.7c-0.3-0.4-0.3-0.7,0.1-1
	c0.3-0.2,0.6-0.2,0.9-0.2c0.9,0,1.3-0.5,0.8-1.3c-0.3-0.5-0.7-0.8-1-1.3c-0.1-0.2-0.3-0.5-0.2-0.6c0.2-0.2,0.4-0.4,0.6-0.4
	c0.2-0.1,0.4,0,0.6,0s0.6-0.1,0.7-0.3c0.1-0.3,0-0.5-0.1-0.8c-0.1-0.2-0.3-0.5-0.6-0.6c-0.4-0.3-0.8-0.6-1.1-0.9
	c-0.1-0.1-0.3-0.4-0.2-0.5s0.3-0.2,0.4-0.3s0.6-0.2,0.9-0.3c0.3-0.1,0.5-0.5,0.4-0.8c0-0.1-0.1-0.2-0.2-0.3
	c-0.3-0.2-0.6-0.4-0.9-0.6c-0.5-0.3-1.1-0.6-1.6-1c-0.4-0.3-0.3-0.6,0.1-0.8c0.2-0.1,0.3-0.1,0.5-0.1c0.5,0.1,1,0.2,1.5,0.3
	c0.6,0.1,1.1,0.1,1.7,0c0.6-0.1,0.7-0.6,0.3-1c-0.4-0.4-0.9-0.8-1.5-1c-1.7-0.7-3.4-1.2-5.1-1.8c-0.4-0.1-0.9-0.3-1.3-0.5
	c-0.3-0.2-0.3-0.5,0-0.6c0.3-0.2,0.7-0.2,1-0.2c1.1,0.2,2.1,0.4,3.2,0.8c1.2,0.4,2.4,0.8,3.6,1.3c1.6,0.7,3.2,1.5,4.9,2.2
	c1.1,0.5,2.1,1,3.1,1.5s2.2,1.1,3.2,1.7c1.6,0.8,3.1,1.6,4.8,2.2c0.9,0.3,1.8,0.6,2.8,0.8c0.2,0,0.6-0.2,0.7-0.4s-0.1-0.5-0.3-0.6
	c-0.7-0.5-1.4-1.1-2.1-1.5c-2.2-1.4-4.4-2.9-6.7-4.2s-4.5-2.4-6.9-3.4c-1.9-0.8-3.8-1.6-5.8-2.2c-1.3-0.4-2.7-0.6-4-0.9
	c-2-0.6-4.1-0.5-6.1,0.1c-0.9,0.3-1.7,1-2.2,1.9c-0.3,0.4-0.2,0.9,0.2,1.2c0.3,0.3,0.7,0.5,1.1,0.7c1.5,0.7,3,1.3,4.4,2.1
	c1,0.6,1.8,1.3,2.6,2.1c1.1,1.3,1.8,2.8,1.9,4.5c0.3,1.9,0,3.8-0.9,5.6c-0.6,1.3-1.4,2.4-2.3,3.5c-2.3,2.7-5.4,4.6-8.9,5.5
	c-2.1,0.5-3.2-0.3-3.9-2.1c-0.2-0.5-0.4-1-0.8-1.4c-1.9-1.2-3.8-2.2-5.6-3.4c-1-0.6-1.9-1.3-2.8-2c-2-1.8-4.2-3.3-6.5-4.5
	c-0.6-0.3-1.3-0.4-1.9-0.2c-0.2,0.1-0.4,0.1-0.7,0.2c-0.2,0-0.4,0-0.6-0.2c-0.1-0.1,0-0.4,0.1-0.6c0.3-0.4,0.7-0.8,1-1.2
	c0.1-0.1,0.2-0.3,0.2-0.4c-0.1-0.1-0.3-0.1-0.4-0.2C138,12.9,136.7,12.8,135.4,12.6 M163.4,33.2h-2.2c-0.4-0.1-0.9,0.2-1.1,0.6
	c-0.2,0.5-0.3,1.1-0.3,1.6c0.2,2.9,0.8,5.8,1.8,8.6c0.5,1.3,1.1,2.5,2,3.6c0.2,0.2,0.3,0.4,0.6,0c0.1-0.2,0.3-0.4,0.5-0.5
	c0.2,0.2,0.3,0.4,0.5,0.5c0.4,0.9,1,1.6,1.7,2.2c0.4,0.3,0.9,0.5,1.4,0.4c0.6-0.1,0.9-0.4,0.8-1c0-0.2-0.1-0.4-0.1-0.6
	c0-0.2,0.1-0.3,0.2-0.4c0.2,0,0.3,0,0.4,0.1c0.3,0.2,0.5,0.5,0.7,0.8c0.5,0.7,1.1,1.1,1.9,1.3c0.4,0.1,0.8,0.2,1.1-0.1
	s0.1-0.8,0-1.1c-0.2-0.3-0.3-0.7-0.4-1c0-0.2,0-0.4,0.1-0.6c0.2,0,0.4,0.1,0.6,0.2c0.6,0.5,1.2,1,1.8,1.4c0.6,0.4,1.4,0.3,1.9-0.2
	c0.4-0.3,0.4-0.9,0.1-1.2c0,0,0,0,0-0.1c-0.2-0.2-0.3-0.4-0.4-0.6c-0.1-0.1-0.1-0.3,0-0.4c0.1-0.1,0.3-0.1,0.4-0.1
	c0.2,0.1,0.4,0.2,0.6,0.3c0.6,0.3,1.2,0.6,1.8,0.8c0.6,0.1,1.3-0.3,1.5-0.9c0.2-0.7,0.1-1-0.6-1.6c-0.2-0.2-0.4-0.3-0.6-0.6
	c-0.1-0.1-0.2-0.3,0-0.5c0.1-0.1,0.3-0.2,0.4-0.1c0.2,0.1,0.5,0.2,0.7,0.3c0.6,0.3,1.3,0.6,2,0.8c0.6,0,1.1-0.4,1.1-1
	c0-0.2,0-0.4-0.1-0.5c-0.2-0.4-0.4-0.8-0.6-1.1c0-0.1,0-0.3,0-0.4c0.1,0,0.3,0,0.4,0c0.1,0.1,0.2,0.1,0.3,0.2
	c0.6,0.4,1.3,0.5,1.9,0.3c0.6-0.2,0.7-0.6,0.4-1.1c-0.2-0.3-0.5-0.7-0.7-1c-0.1-0.2-0.1-0.3,0-0.5c0-0.1,0.3-0.1,0.4,0
	c0.3,0.2,0.6,0.3,0.9,0.5c0.5,0.4,1.2,0.5,1.9,0.3c0.5-0.1,0.8-0.5,0.8-1.1c0-0.1,0-0.2-0.1-0.3c-0.1-0.4-0.4-0.7-0.5-1
	c0-0.2-0.1-0.4-0.1-0.5c0.2,0,0.4,0.1,0.5,0.2c0.6,0.4,1,0.8,1.6,1.2c0.6,0.3,1.4,0.1,1.8-0.5c0.3-0.3,0.3-0.8-0.1-1.4l0,0
	c-0.1-0.3-0.5-0.5-0.2-0.8s0.6,0.2,0.8,0.3c0.6,0.5,1.2,1.1,1.9,1.5c0.7,0.3,1.4,0,1.8-0.5c0.3-0.4,0.2-0.6-0.3-1.3
	c0-0.1-0.1-0.1-0.1-0.2c-0.2-0.2-0.7-0.4-0.4-0.7s0.6,0.1,0.8,0.2c0.6,0.4,1.1,0.8,1.7,1.2c0.5,0.4,1.2,0.3,1.7-0.2
	c0.3-0.3,0.2-0.8-0.1-1.4c-0.2-0.3-0.4-0.6-0.5-0.9c0-0.1,0-0.3,0-0.5c0.2,0,0.3,0,0.5,0.1c0.1,0.1,0.3,0.2,0.4,0.3
	c0.5,0.4,0.9,0.9,1.4,1.3c0.5,0.3,1.1,0.4,1.6,0c0.4-0.3,0.5-0.6,0.3-1.3c-0.1-0.2-0.2-0.4-0.3-0.6c-0.1-0.2-0.3-0.4-0.3-0.6
	c0-0.1,0-0.3,0-0.4c0.1,0,0.3,0.1,0.4,0.2c0.1,0.1,0.1,0.2,0.2,0.3c0.4,0.5,0.8,0.9,1.2,1.3c0.7,0.5,1.7,0.5,2.3-0.2
	c0.3-0.2,0.4-0.6,0.1-0.9c0,0,0,0,0,0c-0.3-0.5-0.6-0.9-0.9-1.3c-1.5-2-3-4.1-4.5-6.2c-2.1-3-4.1-5.9-6.1-8.9
	c-0.4-0.6-0.9-1.1-1.6-1.4c-0.2-0.1-0.4-0.1-0.6-0.2c-1.6-0.7-3.2-1.5-4.8-2.2c-2-0.9-4-1.7-6-2.6c-0.5-0.2-1-0.2-1.4,0.2
	c-0.6,0.5-1,1.1-1.1,1.9c-0.2,0.9-0.4,1.9-0.7,2.8c-0.5,1.5-1.1,3.1-1.8,4.6s-1.3,3.2-2,4.7c-0.7,1.7-1.8,3.1-3.2,4.4
	c-1.3,1.2-2.8,2.1-4.4,2.8C166.7,33,165.1,33.3,163.4,33.2 M222.3,67c0.2,0,0.5,0,0.7-0.1c0.4-0.1,0.7-0.5,0.7-1
	c0-0.1-0.1-0.2-0.1-0.3c-0.1-0.2-0.2-0.3-0.3-0.5c-1.5-1.9-3-3.8-4.4-5.7c-1.1-1.5-2.1-3.1-3.1-4.7c-0.8-1.2-1.5-2.4-2.2-3.7
	c-0.5-0.9-1-1.8-1.5-2.7s-1-2.2-1.5-3.2c-0.4-0.8-0.7-1.7-1-2.5c-0.5-1.4-1-2.7-1.5-4.1c-0.2-0.7-0.5-1.3-0.8-2
	c-0.1-0.3-0.3-0.4-0.6-0.3c-0.3,0.1-0.6,0.1-0.9,0.1c-0.4-0.2-0.9,0-1.2,0.4c-0.6,0.7-1.5,0.9-2.3,0.5c-0.2,0-0.4,0-0.6,0.2
	c-0.7,1-2,1.5-3.2,1.1c-0.2,0-0.5,0.1-0.6,0.2c-0.3,0.2-0.6,0.5-0.9,0.7c-0.8,0.4-1.8,0.4-2.6,0c-0.2-0.1-0.4,0-0.6,0.1
	c-0.5,0.8-1.5,1.1-2.4,0.9c-0.3-0.1-0.5,0.1-0.7,0.3c-0.5,1-1.6,1.5-2.7,1.3c-0.2,0-0.4,0.1-0.5,0.3c-0.3,0.8-1,1.3-1.8,1.3
	c-0.4,0-0.5,0.2-0.5,0.6c0,1.2-0.9,2.1-2.1,2.2c0,0-0.1,0-0.1,0c-0.6,0-1,0-1.1,0.8c0,0.1-0.1,0.2-0.1,0.2c-0.5,1-1.6,1.5-2.6,1.1
	c-0.4-0.1-0.9,0.1-1,0.5c-0.4,1-1.4,1.5-2.5,1.2c-0.8-0.2-0.8-0.2-1.1,0.5c0,0.1-0.1,0.1-0.1,0.2c-0.3,0.3-0.2,0.6,0.1,0.8
	c1.1,0.9,2.2,1.8,3.4,2.7c1.4,1.1,2.9,1.9,4.6,2.5c0.6,0.2,1.1,0.3,1.7,0.2c0.3-0.1,0.5-0.2,0.7-0.5c0.1-0.1-0.1-0.4-0.2-0.6
	s-0.3-0.5-0.5-0.7c-0.1-0.1-0.1-0.3-0.1-0.5c0.2,0,0.4,0,0.5,0.1c0.9,0.8,1.7,1.7,2.6,2.6c0.7,0.7,1.4,1.3,2.1,1.9
	c0.5,0.3,1.2,0.3,1.7,0c0.2-0.2,0.3-0.3,0.1-0.6s-0.6-0.8-0.9-1.2c-0.1-0.2-0.1-0.4-0.1-0.5c0.2,0,0.4,0.1,0.6,0.1
	c0.1,0.1,0.2,0.1,0.2,0.2c0.7,0.8,1.3,1.7,2,2.5c0.5,0.8,1.2,1.4,2.1,1.9c0.4,0.2,0.8,0.1,1.1-0.1c0.3-0.2,0.3-0.4,0.1-0.7
	s-0.8-0.9-1.1-1.3c-0.1-0.2-0.1-0.4-0.2-0.6c0.2,0,0.4,0.1,0.6,0.2c0.4,0.4,0.9,0.8,1.3,1.2c1,0.9,1.9,1.9,2.9,2.8
	c0.2,0.2,0.6,0.4,0.9,0.4c0.2,0,0.5-0.2,0.8-0.2c0-0.2-0.1-0.4-0.2-0.6c-0.4-0.5-0.8-1-1.1-1.5c-0.1-0.2-0.1-0.3-0.1-0.5
	c0.2,0,0.4,0.1,0.6,0.2c0.3,0.2,0.5,0.5,0.8,0.8c1.3,1.3,2.7,2.6,4,3.9c0.5,0.6,1.4,0.6,1.9,0.1c0,0,0.1-0.1,0.1-0.1
	c0.1,0-0.1-0.5-0.2-0.7c-0.4-0.6-0.8-1.1-1.2-1.7c-0.1-0.1-0.1-0.3-0.1-0.5c0.2,0,0.4,0,0.5,0.1c0.3,0.2,0.5,0.5,0.7,0.8
	c1,1.1,1.9,2.2,3,3.2c0.5,0.6,1.2,1,2,1c0.7-0.1,1.3-0.3,1.8-0.8c0.1-0.1,0.1-0.4,0.1-0.5c-0.1-0.2-0.3-0.4-0.4-0.5
	c-0.5-0.6-1-1.2-1.5-1.9c-0.1-0.1,0-0.3,0-0.4c0.1,0,0.3,0,0.4,0.1c0.5,0.4,1,0.8,1.4,1.2c0.8,0.7,1.6,1.4,2.4,2.1
	c1.2,0.9,1.7,0.9,2.9,0.2c0.4-0.3,0.4-0.4,0.1-0.8c-0.7-0.8-1.4-1.5-2.1-2.3c-0.3-0.4-0.5-0.8-0.7-1.2c-0.1-0.1,0.1-0.4,0.1-0.5
	c0.2,0,0.3,0.1,0.5,0.2c0.2,0.2,0.4,0.5,0.7,0.8c0.7,0.8,1.4,1.6,2.2,2.4C220.7,66.6,221.5,67,222.3,67 M118.6,89.7L118.6,89.7
	c-0.5,0-0.9,0-1.4,0c-0.2,0-0.4,0.2-0.5,0.3c-0.2,0.5-0.3,1-0.3,1.5c-0.2,2.8-0.4,5.5-0.6,8.3c-0.1,1.3-0.2,2.7-0.2,4
	c0,1.1-0.1,2.2-0.1,3.3c0,0.5,0.2,0.6,0.6,0.3s1-0.6,1.4-1c0.2-0.2,0.4-0.4,0.6-0.6c0.4-0.7,0.7-1.4,1-2.2c0.6-1.5,1.2-2.9,1.8-4.4
	c0.4-0.9,0.7-1.8,1.1-2.8c0.2-0.4,0.4-0.8,0.7-1.1c0.2-0.1,0.4-0.1,0.6,0c0.5,0.4,0.8,0.9,1.1,1.5c0.5,1.6,0.8,3.2,1.2,4.9
	s0.6,3.2,0.9,4.8c0,0.5,0.4,0.9,0.9,0.9c0.4,0.1,0.8,0.1,1.1,0c0.7-0.1,1.5-0.2,2.2-0.5c0.7-0.4,1.3-1,1.9-1.5
	c1.5-1.2,3-2.3,4.6-3.5c0.4-0.3,0.9-0.2,1.2,0.1c0.1,0.2,0.2,0.4,0.2,0.6c0,0.9,0.1,1.8,0.1,2.7c0,0.2,0.2,0.5,0.3,0.5
	c0.7,0.1,1.4,0,2-0.2c1.7-1.1,3.2-2.3,4.8-3.5c1.5-1,2.9-2.2,4.2-3.5c0.2-0.3,0.6-0.4,0.9-0.4c0.3,0.2,0.6,0.5,0.7,0.9
	c0.1,0.4,0.2,0.9,0.3,1.3c0.4,1.4,0.8,2.8,1.2,4.2c0.2,0.7,0.6,0.8,1.2,0.5c1.1-0.6,2.2-1.1,3.2-1.7c2.4-1.3,4.8-2.7,7.2-4
	c0.5-0.3,0.9-0.6,1.3-0.9c0.2-0.1,0.3-0.4,0.2-0.7c0,0,0-0.1-0.1-0.1c-0.5-0.8-1.4-1-2.2-0.6c0,0,0,0-0.1,0
	c-1.7,0.9-3.3,1.9-4.9,2.8c-0.6,0.3-1.3,0.6-2,0.9c-0.3,0.2-0.7,0.1-0.9-0.2c0-0.1-0.1-0.1-0.1-0.2c-0.2-0.4-0.3-0.9-0.3-1.3
	c-0.1-1.1,0-2.2-0.1-3.3c0-0.1,0-0.3,0.1-0.4c0.2-0.9,0.4-1.8,0.6-2.8c0.3-1.4,0.5-2.9,0.9-4.3c0.2-1,0.6-1.9,0.9-2.9
	c0.6-2.1,1.4-4.1,2.4-6.1c0.6-1.3,1.3-2.5,1.9-3.8c0.5-1,1-2,1.4-3c0.3-0.7,0.3-0.8-0.2-1.3l-1.7-1.7c-0.7-0.7-1.4-1.4-2.2-2.1
	c-0.4-0.4-0.7-0.3-1,0.2l-1.9,3.6c-1.5,2.6-2.7,5.2-3.8,8c-0.6,1.7-1.3,3.4-1.9,5.1c-0.4,0.9-0.9,1.1-1.7,0.7
	c-0.5-0.2-1-0.3-1.6-0.2c-1.4,0.3-2.8,0.9-4.1,1.6c-0.8,0.4-1.5,0.8-2.3,1.2c-1,0.3-1.8,1-2.2,1.9c-0.1,0.3-0.2,0.5-0.3,0.8
	c-0.4,1.1-0.8,2.1-1.1,3.2c-0.5,1.8-0.9,3.5-1.4,5.3c-0.1,0.3-0.4,0.8-0.7,0.8c-1.3,0.3-2.6,0.5-4,0.7c-0.5,0.1-1-0.2-1.2-0.7
	l-1.7-4.2c-0.4-0.9-0.7-1.9-1.1-2.8c-0.3-0.7-0.4-0.7-1.2-0.5c-0.7,0.2-1.5,0.3-2.2,0.4c-0.6,0-0.9-0.4-0.8-1.1
	c0.1-0.3,0.2-0.6,0.3-0.9c0.2-0.6,0.1-0.7-0.5-0.7L118.6,89.7 M23.3,59.9H10c-0.4,0-0.7,0.1-0.7,0.6c0,7,0,14.1,0,21.1
	c0,0.5,0.2,0.6,0.6,0.6h24.9c1.4,0,2.9-0.2,4.2-0.8c0.7-0.3,1.2-0.8,1.7-1.4c0.6-1,0.9-2.2,0.9-3.4c0-3.6,0-7.2,0-10.8
	c0-0.8-0.1-1.6-0.3-2.4c-0.2-0.6-0.5-1.1-0.8-1.6c-0.9-1-2.2-1.7-3.6-1.7c-1.1-0.1-2.1-0.2-3.2-0.1L23.3,59.9 M104.9,70.9v-0.1
	c0.2,0,0.3-0.1,0.4-0.1c1.3,0,2.6-0.5,3.8-1.2c1.3-0.9,2.2-1.9,2.1-3.6c0-0.2,0-0.4,0-0.6c0.1-1.1-0.2-2.1-0.9-2.9
	c-0.6-0.6-1.3-1.1-2-1.4c-0.8-0.4-1.7-0.7-2.7-0.9c-1-0.1-1.9-0.2-2.9-0.1h-23c-0.5,0-0.7,0.1-0.7,0.6c0,7,0,14.1,0,21.1
	c0,0.5,0.2,0.6,0.7,0.6h9.9c0.6,0,0.7-0.1,0.7-0.7c0-2.8,0-5.5,0-8.3c0-0.4,0.2-0.6,0.6-0.6l6.5,0.1c0.4,0,0.7,0.1,1.1,0.1
	c1,0.2,1.4,0.7,1.4,1.8v0.1c0,2.3,0,4.6,0,6.9c0,0.4,0.2,0.6,0.5,0.6h10.1c0.4,0,0.7,0,0.7-0.5c0-2.5,0-5.1,0-7.6
	c0-0.9-0.5-1.7-1.2-2.1c-0.8-0.5-1.7-0.8-2.7-0.9C106.5,71,105.7,71,104.9,70.9 M133,59.9L133,59.9l-10.6,0.1c-2,0-3.8,1-4.8,2.6
	c-0.5,0.8-0.8,1.7-0.7,2.6c0,4.1,0,8.1,0,12.2c0,1.4,0.7,2.6,1.7,3.5c1.2,1,2.7,1.5,4.2,1.4h19c0.6,0,1.2,0,1.8-0.1
	c1-0.1,2-0.4,3-0.8c1.6-0.8,2.7-2.5,2.6-4.4c0-2.5,0-5.1,0-7.6c0-0.5-0.2-0.6-0.6-0.6c-5,0-10,0-14.9,0c-0.4,0-0.6,0.2-0.6,0.6
	c0,0.9,0,1.8,0,2.7c0,0.5,0.2,0.7,0.6,0.7c1.4,0,2.8,0,4.2,0c0.6,0,0.6,0.1,0.6,0.7c0,0.9-0.1,1.8,0,2.7c0,1.1-0.7,2-1.8,2.2
	c-0.8,0.1-1.7,0.2-2.5,0.2c-1.4,0-2.7,0-4.1-0.2c-1.1,0-1.9-0.9-1.9-1.9c0-0.1,0-0.1,0-0.2c0.1-2.4,0-4.8,0-7.2c0-1.1,0-2.2,0.1-3.3
	c0-0.4,0.2-0.7,0.5-1c0.5-0.4,1-0.6,1.6-0.7c1.9-0.1,3.7-0.1,5.6,0c1.1-0.1,2.1,0.5,2.4,1.6c0.1,0.3,0.4,0.5,0.7,0.4h9
	c1.3,0,1.4,0,1.1-1.3c-0.1-1.5-0.9-2.8-2.2-3.6c-1-0.6-2.2-1-3.3-1C140.1,60,136.7,59.9,133,59.9 M83.6,111.1
	c-0.2,0.7-0.4,1.7-0.6,2.7c-0.3,1.4-0.7,2.7-1,4.1c-0.2,1.1-0.4,2.2-0.7,3.3c-0.4,1.5-0.8,3-1.2,4.5c-0.3,1-1,1.3-1.8,0.5
	s-1.7-1.5-2.6-2.2c-0.3-0.3-0.8-0.4-1.2-0.4c-0.7,0.1-1.4,0.3-2.1,0.5c-1,0.3-2.1,0.6-3.1,1c-0.2,0.1-0.4,0.2-0.5,0.3
	c0.1,0.2,0.2,0.3,0.3,0.5c1.4,1.2,2.8,2.3,4.2,3.4c1.1,0.9,2.2,1.7,3.3,2.6c0.3,0.2,0.6,0.4,1,0.4c0.5-0.1,0.9-0.2,1.3-0.4
	c1.1-0.4,2.2-0.9,3.4-1.4s1.9-0.8,2.2-2c0.2-1,0.5-2,0.8-3.1c0.5-2.1,1-4.2,1.5-6.3c0.4-1.6,0.7-3.1,1.1-4.7s0.8-3.1,1.1-4.6
	c0.5-2,0.9-4,1.3-5.9c0.5-2.3,1.1-4.7,1.6-7c0-0.2-0.1-0.5-0.2-0.6c-0.2-0.3-0.5-0.5-0.8-0.6c-1-0.5-2-1-3-1.5
	c-0.6-0.3-0.7-0.3-0.9,0.4s-0.4,1.3-0.6,1.9c-0.1,0.4-0.6,0.6-1,0.5l-2.5-1c-1.7-0.6-3.5-1.3-5.2-1.9c-0.5-0.3-1.1-0.3-1.6-0.1
	c-0.8,0.4-1.3,1.1-1.4,2c-0.4,1.6-0.8,3.1-1.2,4.6c-0.6,2.4-1.1,4.7-1.6,7.1c0,0.2,0,0.3,0.1,0.5c1,1.2,1.9,2.3,2.9,3.5
	c0.4,0.6,1.3,0.8,1.9,0.4c1.9-0.7,3.8-1.4,5.7-2.2C83.1,109.7,83.6,110,83.6,111.1 M60.9,82.2h12.4c0.6,0,0.7-0.1,0.7-0.7
	c0-1.5,0-3,0-4.5c0-0.7,0-0.8-0.7-0.8H59.8c-0.5,0-0.7-0.1-0.7-0.6c0-5.1,0-10.1,0-15.2c0-0.5-0.2-0.6-0.6-0.6c-3.3,0-6.7,0-10,0
	c-0.4,0-0.6,0.1-0.6,0.6c0,7,0,14.1,0,21.1c0,0.5,0.2,0.6,0.6,0.6C52.7,82.2,56.8,82.2,60.9,82.2 M194.7,76.7l0.2-0.2
	c0.2,0.1,0.3,0.2,0.5,0.3c1.5,1.3,2.9,2.5,4.4,3.8c1.2,1,2.7,1.7,4.2,2.1c0.3,0.1,0.7,0.1,1,0.1c0.5,0,0.9-0.5,0.8-1
	c0-0.1,0-0.2-0.1-0.3c-0.2-0.5-0.6-0.9-0.9-1.3c-1.4-1.3-2.9-2.7-4.3-4c-2.8-2.5-5.6-4.9-8.5-7.4c-2-1.8-4-3.5-6.1-5.3
	c-1.8-1.6-3.6-3.2-5.4-4.8c-2.1-1.8-4.2-3.6-6.1-5.5c-1.2-1.2-2.7-1.5-4.1-2.1c-0.2-0.1-0.6,0.2-0.8,0.4s0,0.5,0.3,0.7
	c0.6,0.5,1.2,1,1.8,1.4c1.9,1.4,3.7,2.7,5.6,4.1c1.2,0.9,2.3,1.9,3.4,2.8c2.5,2,4.9,4.1,7.2,6.4c0.4,0.4,0.7,0.8,0.9,1.3
	c0.1,0.2,0,0.4-0.1,0.6c-0.2,0.1-0.4,0.1-0.6,0.1c-0.2-0.1-0.4-0.2-0.5-0.3l-2.7-2.4c-0.4-0.4-0.9-0.7-1.4-1c-0.1-0.1-0.3,0-0.5,0
	c0,0.2,0,0.3,0.1,0.5c0,0.1,0.1,0.2,0.2,0.3c0.5,0.7,1.1,1.4,1.6,2.1c0.2,0.2,0.3,0.6,0,0.8c-0.3,0.1-0.6,0.1-0.9,0
	c-0.4-0.2-0.7-0.5-1-0.8c-0.8-0.9-1.6-1.8-2.4-2.7c-0.1-0.1-0.3-0.1-0.5-0.2c0,0.2,0,0.4,0.1,0.5c0.4,0.7,0.9,1.4,1.3,2.1
	c0.3,0.4,0.5,0.9,0.8,1.3c0.1,0.2,0,0.4-0.2,0.6c-0.2,0.1-0.4,0.1-0.6-0.1c-0.4-0.4-0.8-0.8-1.2-1.3c-0.7-0.8-1.3-1.7-2-2.5
	c-0.1-0.1-0.3-0.1-0.5-0.2c0,0.2,0,0.4,0,0.5c0.3,0.6,0.7,1.1,1,1.6c0.3,0.6,0.6,1.2,0.9,1.8c0,0.2-0.1,0.4-0.2,0.5
	c-0.2,0-0.4,0-0.6-0.2c-0.4-0.4-0.8-0.9-1.2-1.4c-0.5-0.7-1-1.3-1.5-2c-0.1-0.1-0.3-0.1-0.5-0.2c0,0.2-0.1,0.4-0.1,0.5
	c0.6,1.4,1.1,2.8,1.7,4.2c0.7,1.4,1.5,2.8,2.3,4.1c0.9,1.3,1.8,2.6,2.8,3.8c0.3,0.5,0.9,0.9,1.6,0.8c0.5,0,0.7-0.3,0.4-0.8
	c-0.8-1.3-1.6-2.7-2.4-4c-0.1-0.2-0.2-0.5-0.4-0.7l0.1-0.1c0.1,0.1,0.3,0.2,0.4,0.3c1.1,1.4,2.1,2.9,3.2,4.3
	c0.5,0.8,1.3,1.5,2.1,1.8c0.3,0,0.5,0,0.8,0c0-0.2,0-0.5-0.1-0.7c-0.9-1.5-1.9-3-2.8-4.6c-0.1-0.1-0.1-0.3-0.2-0.4l0.1-0.1
	c0.2,0.1,0.3,0.3,0.4,0.4c1.1,1.4,2.2,2.8,3.4,4.2c0.7,0.8,1.5,1.5,2.3,2.1c0.4,0.3,0.8,0.4,1.3,0.4c0.4,0,0.7-0.2,0.8-0.6
	c0-0.1,0-0.3-0.1-0.4c-0.7-1.1-1.4-2.1-2.1-3.1c-0.5-0.7-1.1-1.3-1.6-1.9c-0.1-0.1-0.1-0.2-0.1-0.3l0.1-0.1c0.1,0.1,0.2,0.2,0.4,0.3
	c1.6,1.6,3.2,3.2,4.9,4.7c0.9,0.8,1.8,1.4,2.8,2.1c0.5,0.3,1.2,0.2,1.6-0.2c0.3-0.4,0.2-0.8-0.3-1.3c-1.1-1.1-2.1-2.1-3.2-3.1
	C195.4,77.5,195,77.1,194.7,76.7 M161.1,12.4v-0.1c0.1,0,0.2,0,0.4,0c1.1,0.2,2.2,0.4,3.2,0.6c1.5,0.4,3,1,4.6,1.5
	c0.4,0.2,0.9,0,1.1-0.4c0.3-0.4,0.4-0.9,0.2-1.3c-0.3-0.9-0.8-1.7-1.6-2.2c-1.4-1-2.9-1.9-4.4-2.7c-1.8-0.9-3.7-1.6-5.7-2.1
	l-5.3-1.3c-0.3-0.1-0.5-0.2-0.8-0.2V3.9c0.3,0,0.6-0.1,0.9,0c1.4,0.1,2.7,0.2,4.1,0.3c1.1,0.1,2.2,0.2,3.3,0.4
	c0.4,0,0.4-0.2,0.3-0.4c-0.1-0.4,0-0.8,0.2-1.1c0.3-0.3,0.2-0.5-0.2-0.6c-1.1-0.2-2.2-0.5-3.4-0.7c-2-0.3-4.1-0.4-6.1-0.3
	c-1.9,0-3.8,0.4-5.5,1.2c-0.6,0.3-1.1,0.8-1.3,1.5c-0.2,0.6,0,1.3,0.6,1.6c0.8,0.4,1.5,0.8,2.3,1.2c2.1,0.7,4.1,1.6,6,2.7
	c2.4,1.3,4.3,3.5,5.3,6c1.1,2.5,1.1,5.3,0.2,7.9c-0.2,0.6-0.3,1.2-0.1,1.8c0.5,1.7,0.7,2,2.5,1.5c1-0.3,2-0.8,2.9-1.3
	c0.9-0.5,1.7-1.1,2.4-1.9c0.2-0.2,0.3-0.5,0.1-0.8c-0.3-0.4-0.6-0.8-0.9-1.1c-0.8-0.5-1.6-1-2.4-1.4l-0.6-0.4l0.1-0.1
	c0.1,0,0.3,0,0.4,0c1.3,0.5,2.5,0.9,3.8,1.5c0.7,0.5,1.7,0.2,2.2-0.5c0.1-0.1,0.1-0.2,0.2-0.4c0.6-1.8,0.4-2.7-1-4
	c-0.9-0.9-2-1.6-3.2-2.1c-1.4-0.6-2.8-1.2-4.2-1.8C161.5,12.5,161.3,12.4,161.1,12.4 M60.7,115.3c1.1,0,2,0,2.9-0.2
	c1.1,0,2.1-0.5,2.8-1.4c0.4-0.6,0.8-1.1,1.2-1.6c0.7-1,1.4-2,2.1-3.1c0.2-0.3,0.2-0.6,0.2-0.9c-0.1-0.5-0.7-0.6-1.2-0.3
	c-0.9,0.6-1.8,1.3-2.7,2c-0.6,0.6-1.4,0.8-2.2,0.8c-1.1-0.2-2.2-0.6-3.2-1c-0.6-0.2-0.8-0.9-0.6-1.4c0.1-0.6,0.2-1.2,0.3-1.7
	c0.3-2,0.6-4,1-6c0.1-0.8,0-1-0.8-1c-1,0-2,0-3,0c-0.6,0-1.1,0.3-1.3,0.8c-0.3,0.7-0.7,1.4-1,2.2c-0.7,1.6-1.3,3.3-1.9,4.9
	c-0.3,0.7-0.6,1.4-0.8,2.1s-0.6,1.5-1,2.3c-0.7,1.4-1.3,2.4-3.2,2.2c-1-0.1-2-0.3-3-0.6c-0.9-0.2-1.4-1.1-1.2-2c0,0,0,0,0,0
	c0.4-1.5,0.7-2.9,1.1-4.4c0.5-2,1.1-3.9,1.6-5.9c0.2-0.5,0.1-0.7-0.5-0.7c-1.5,0-3,0.1-4.5,0.1c-0.3,0-0.4,0.2-0.5,0.5
	c-0.2,1.2-0.5,2.5-0.8,3.7s-0.6,2.4-0.9,3.6c-0.4,1.7-0.7,3.3-1,5c0,0.3,0,0.5,0.2,0.7c1.2,1.5,2.5,2.8,4,4c0.2,0.1,0.4,0.2,0.5,0.1
	l6.7-1.1c0.2-0.1,0.3-0.1,0.4-0.2c1.2-0.9,2.2-2,3-3.2c0.6-0.8,1.3-1.5,2-2.2c0.5-0.5,0.9-0.4,1.3,0.2c0.2,0.3,0.4,0.6,0.5,0.9
	c0.4,0.7,0.7,1.5,1.1,2.2c0.1,0.3,0.5,0.5,0.8,0.5C59.7,115.3,60.3,115.3,60.7,115.3 M101.3,111L101.3,111c2-0.1,4-0.3,6-0.6
	c0.4,0,0.8-0.2,1.2-0.5c1-0.9,1.9-1.9,2.8-2.9c1.1-1.2,1-1.3-0.1-2.3c-0.6-0.6-0.9-0.6-1.4,0.1c-0.9,1-1.8,2-2.8,3
	c-0.6,0.7-1,0.8-1.8,0.3c-1.1-0.7-2.1-1.5-3.2-2.3c-0.7-0.5-0.7-1-0.1-1.5c0.3-0.3,0.6-0.5,1-0.8c1.1-0.8,2.1-1.5,3.2-2.3
	c0.8-0.6,1.7-1.1,2.5-1.7c0.4-0.3,0.6-0.8,0.6-1.2c-0.1-1-0.1-2-0.2-3c-0.1-1.7-0.3-3.3-0.4-5c0-0.4-0.2-0.5-0.6-0.5
	c-1.6,0-3.1,0.6-4.2,1.7c-1.5,1.3-2.8,2.8-4.1,4.4c-1.8,2.2-3.4,4.5-5.1,6.8c-0.4,0.5-0.7,1-1.1,1.6c-0.2,0.3-0.2,0.7,0.1,1
	c0.3,0.3,0.6,0.7,0.9,1.1c1.1,1.6,2.5,3.1,4.1,4.4c0.2,0.2,0.5,0.3,0.8,0.3C100.1,111,100.7,110.9,101.3,111 M125.9,88.4l-0.2,0.1
	c0,0.1,0,0.2,0,0.4c0.3,0.5,0.3,1.2,0.1,1.7c-0.2,0.3,0,0.5,0.3,0.4c0.2,0,0.5-0.1,0.7-0.2c0.6-0.2,1.1-0.4,1.7-0.6s0.8,0,1,0.5
	c0.3,0.9,0.6,1.8,0.9,2.7c0.5,1.4,1.1,2.9,1.6,4.3c0.1,0.5,0.7,0.9,1.2,0.7c0,0,0,0,0,0c0.5-0.1,1-0.2,1.5-0.3
	c0.2-0.1,0.4-0.2,0.5-0.4c0.3-0.6,0.5-1.3,0.8-1.9l1.7-4.3c0.6-1.4,1.1-2.8,1.7-4.1c0.1-0.3,0.3-0.6,0.5-0.8c1-0.5,2.1-0.9,3.1-1.4
	c1.4-0.6,2.8-1.2,4.1-1.8c0.7-0.4,1.5-0.5,2.2-0.2c0.9,0.4,1,0.3,1.3-0.6c0.5-1.5,1.1-3,1.5-4.5c0.6-1.8,1.4-3.6,2.4-5.3
	c0.8-1.4,1.5-2.8,2.3-4.1c0.6-1,1.2-2,1.9-3c0.3-0.4,0.5-0.4,0.9-0.1s0.7,0.6,1.1,0.9c0.2,0.1,0.3,0.1,0.5,0.1
	c-0.1-0.2-0.1-0.4-0.2-0.5c-0.3-0.3-0.5-0.6-0.8-0.9c-0.4-0.7-0.7-1.5-1.1-2.2c-0.2-0.3-0.4-0.4-0.6,0c-0.3,0.6-0.5,1.2-0.7,1.9
	c-0.1,0.3,0,0.7-0.2,1c-0.6,1.2-1.3,2.3-1.9,3.4c-0.9,1.7-1.9,3.4-2.8,5.1c-0.3,0.5-0.5,1-0.7,1.5c-0.4,0.9-0.7,1.8-1,2.7
	c-0.4,0.9-0.7,1.9-0.9,2.9c-0.3,1.5-0.5,1.6-1.9,1.1c-0.2-0.1-0.4-0.1-0.6,0c-1.5,0.6-2.9,1.3-4.4,1.9c-1.2,0.5-2.5,1-3.7,1.6
	c-0.4,0.2-0.7,0.5-0.9,0.8c-0.4,0.7-0.7,1.5-1.1,2.2c-0.1,0.3-0.4,0.4-0.7,0.4c-3.3,0-6.6,0-10,0.1c-0.4,0.1-0.9-0.1-1-0.6
	c-0.1-0.2-0.3-0.4-0.5-0.6"/>
<path class="st0" d="M17.6,141.6c-0.1-0.1-0.3-0.2-0.4-0.2c-1.5-0.1-2.9-0.2-4.4-0.4c-0.4,0-0.7-0.2-1-0.3c-2.5-1.5-4.9-3.2-7-5.2
	c-0.4-0.5-0.7-1.1-0.7-1.7c-0.2-1.1-0.4-2.1-0.6-3.2c-0.3-2.1-0.6-4.1-0.8-6.2c0-0.4,0-0.8,0.2-1.2c0.2-0.4,0.6-0.6,1-0.5
	c2.1,0.4,4.3,0.7,6.4,1c1,0.2,2,0.4,3.1,0.7c0.4,0.2,0.7,0.6,0.6,1c0.1,0.8,0.1,1.6,0.3,2.3c0.1,0.7,0.3,1.4,0.6,2.1
	c0.2,0.7,0.9,1.1,1.6,0.9c0.1,0,0.2-0.1,0.3-0.1c0.9-0.4,1.9-0.8,2.8-1.2c0.3-0.2,0.6-0.5,0.7-0.9c0.4-1.2,0.8-2.5,1.1-3.8l1.1-4
	c0.5-1.9,1.1-3.8,1.6-5.8c0.3-1.2,0.5-2.5,0.8-3.7s0.7-2.2,0.9-3.3s0.4-2.5,0.6-3.8c0.2-1.1,0.4-2.2,0.7-3.2c0-0.2,0.1-0.5,0.1-0.8
	c0.1-0.5-0.2-0.7-0.7-0.7c-2.9,0.4-5.8,0.8-8.8,1.2c-1.9,0.3-3.9,0.4-5.8,0.7c-1.1,0.1-2.1,0.3-3.2,0.5c-0.7,0.2-1.4-0.2-1.6-0.9
	c0-0.1-0.1-0.3,0-0.4c0-0.8,0.1-1.5,0.1-2.3s0.1-1.3,0.2-1.9c0.1-1.7,0.2-3.3,0.2-5c0-0.4,0.3-0.8,0.7-0.8c0,0,0,0,0,0
	c1.8-0.4,3.5-0.8,5.3-1.2c2.5-0.5,5-1,7.5-1.5l5-1c1.6-0.3,3.2-0.6,4.8-0.9c1.6-0.3,3.3-0.7,5-1c2.2-0.4,4.4-0.9,6.6-1.3
	c0.4-0.1,0.5,0,0.4,0.4c-0.3,1.4-0.7,2.8-1,4.2s-0.7,2.7-1,4.1c-0.3,1.2-0.5,2.3-0.8,3.5s-0.5,2.1-0.8,3.2c-0.5,1.9-1,3.8-1.5,5.8
	c-0.5,1.9-1,3.8-1.5,5.7c-0.5,2.1-1,4.2-1.5,6.3c-0.3,1.3-0.7,2.7-1.1,4c-0.5,1.8-0.9,3.7-1.3,5.5c-0.4,1.4-0.8,2.9-1.2,4.3
	c-0.3,1-0.5,2-0.8,3s-0.5,2-0.8,2.9c-0.1,0.3-0.3,0.6-0.5,0.8c-1.3,1-2.6,2-3.9,2.9c-0.5,0.4-1,0.6-1.5,1c-0.1,0.1-0.2,0.2-0.3,0.3
	L17.6,141.6z M4.7,125.9L4.7,125.9c0.1,2,0.3,4,0.6,5.9c0.1,1,0.6,1.9,1.3,2.5c1.3,0.9,2.5,1.8,3.8,2.7c0.4,0.3,0.8,0.5,1.3,0.7
	c1.4,0.3,2.8,0.6,4.2,0.9c1.8,0.3,3.7,0.4,5.6,0.4c0.9,0,1.7-0.2,2.4-0.8c0.5-0.4,1-0.8,1.4-1.2s1.3-1,1.9-1.6
	c0.7-0.7,1.1-1.7,1.2-2.6c0.5-2,1-4,1.6-6.1c0.8-2.8,1.5-5.6,2.3-8.4c0.5-2,1-4,1.5-6c0.3-1.4,0.8-2.7,1.1-4.1
	c0.6-2.3,1.2-4.5,1.7-6.8c0.3-1.4,0.6-2.8,1-4.1s0.8-2.9,1.2-4.3c0.3-1.2,0.6-2.3,0.9-3.5s0.6-2.4,0.9-3.7c0.1-0.3-0.1-0.4-0.4-0.4
	l-0.3,0.1l-7.2,1.3c-1.1,0.2-2.2,0.4-3.3,0.6c-2.5,0.5-5,1.2-7.5,1.7c-3.3,0.7-6.7,1.2-10,1.8c-0.8,0.2-1.5,0.3-2.3,0.5
	c-0.3,0-0.6,0.3-0.6,0.7c0,2.3-0.1,4.5-0.1,6.8c0,0.4,0.1,0.6,0.6,0.6c1.7-0.1,3.5-0.4,5.2-0.7c2.4-0.3,4.9-0.7,7.3-1.1l6.7-1
	c0.4-0.1,0.7,0.1,0.7,0.5c0,0.4,0,0.9-0.1,1.3c-0.2,1.1-0.4,2.2-0.7,3.3c-0.3,1.3-0.7,2.5-1,3.8c-0.5,1.9-0.8,3.8-1.2,5.7
	c-0.3,1.4-0.6,2.9-0.9,4.3s-0.5,2.6-0.8,3.8s-0.7,2.2-1,3.3c-0.4,2.2-1.1,4.4-2,6.4c-0.2,0.6-0.6,1.1-1.1,1.6
	c-1.2,0.8-2.5,1.3-3.9,1.6c-1.1,0.3-2.2-0.1-2.8-1c-0.4-0.9-0.8-1.9-1-2.9c-0.2-0.8-0.3-1.7-0.4-2.5c0-0.2-0.2-0.4-0.3-0.4
	c-0.8-0.2-1.6-0.4-2.4-0.5s-1.5-0.2-2.2-0.3c-0.5-0.1-1-0.2-1.5-0.2c-1.3,0-1.1-0.1-1.1,1.2L4.7,125.9"/>
<path class="st0" d="M132.2,18.4c-1,0-1.1,0-1,0.9c0,0.3,0,0.6-0.1,0.8c-0.2-0.1-0.5-0.3-0.7-0.5c-0.6-0.7-0.9-1.5-1.1-2.4
	c-0.1-0.9,0.4-1.7,1.2-2c0.8-0.3,1.6-0.4,2.4-0.2c1,0.1,1.9,0.2,2.9,0.4c0.2,0,0.4,0.2,0.5,0.3c-0.1,0.2-0.2,0.4-0.4,0.5
	c-0.2,0.1-0.3,0.2-0.5,0.2c-0.8,0-1.6,0.5-2,1.2C133.3,18.2,132.7,18.5,132.2,18.4 M132,16.5c-0.1-0.1-0.1-0.2-0.1-0.2
	c-0.2-0.1-0.5-0.3-0.6-0.2c-0.2,0.2-0.4,0.4-0.4,0.7c0,0,0.2,0.2,0.3,0.2C131.5,16.8,131.8,16.7,132,16.5"/>
<path class="st0" d="M146.9,88.4c0.4,0.1,0.7,0.2,1.1,0.3c0.5,0.2,0.7,0.7,0.6,1.1c-0.1,0.6-0.2,1.1-0.3,1.7
	c-0.1,0.8-0.3,1.6-0.4,2.4c0,0.8-0.6,1.4-1.3,1.6c-1,0.3-2,0.7-3,1c-0.5,0.1-1,0.3-1.4,0.4s-0.6-0.2-0.6-0.6c0-0.3,0.1-0.6,0.2-0.8
	c0.7-1.3,1.5-2.5,2.2-3.8c0.5-0.8,1-1.7,1.5-2.6C145.8,88.7,146.3,88.4,146.9,88.4 M145.4,94.4c0.9,0,1.6-0.7,1.6-1.6
	c0-0.1,0-0.3,0-0.4c-0.1-0.3-0.5-0.6-0.7-0.4c-0.5,0.5-1,1-1.4,1.6C144.7,94,144.9,94.4,145.4,94.4"/>
<path class="st0" d="M20.5,71c0-1.6,0-3.2,0-4.7c0-0.4,0.1-0.5,0.5-0.5c2.3,0,4.5,0,6.8,0c0.9-0.1,1.8,0.4,2.2,1.2
	c0.2,0.4,0.3,0.8,0.3,1.3c0,1.9,0,3.9,0,5.8c0.1,0.9-0.5,1.7-1.3,2c-0.6,0.2-1.3,0.3-1.9,0.3c-2,0-4,0-6,0c-0.6,0-0.6-0.1-0.6-0.7
	L20.5,71L20.5,71z"/>
<path class="st0" d="M94.3,68.8c-1.1,0-2.2,0-3.3,0c-0.4,0-0.6-0.1-0.6-0.6c0-1.3,0-2.6,0-3.9c0-0.4,0.2-0.6,0.6-0.6
	c2.1,0,4.2,0,6.4,0c1.2-0.2,2.3,0.4,2.8,1.5c0.4,0.9,0.2,2-0.4,2.7c-0.6,0.5-1.5,0.8-2.3,0.8L94.3,68.8"/>
<path class="st0" d="M85.7,101.9c-0.2,0.9-0.4,1.7-0.6,2.5c-0.2,0.6-0.3,1.2-0.5,1.8c-0.1,0.4-0.3,0.8-0.6,1.1
	c-0.2,0.3-0.6,0.4-1,0.3c-0.8-0.2-1.6-0.4-2.4-0.5c-1.3-0.2-2.7-0.4-4-0.6c-0.5-0.1-0.9-0.6-0.9-1.1c0,0,0,0,0,0
	c0.1-0.6,0.2-1.2,0.5-1.7c0.5-1,1.1-2,1.8-3c0.4-0.6,1-1.1,1.5-1.5c0.5-0.3,1.2-0.4,1.7,0c1.4,0.5,2.7,1.3,3.8,2.3
	C85.4,101.5,85.5,101.7,85.7,101.9 M82.9,105.8c0.1,0,0.3-0.1,0.4-0.2c0.4-0.6,0.5-1.4,0.4-2.1c-0.4-0.7-1.1-1.2-1.9-1.4
	c-0.6-0.2-0.9,0.1-1.3,0.5c-0.1,0.1-0.2,0.1-0.2,0.2c-0.7,0.6-1.4,1.3-2.2,1.9c-0.1,0.1-0.1,0.2-0.1,0.4c0.1,0.1,0.3,0.1,0.4,0.2
	c0.8,0.1,1.6,0.2,2.4,0.2C81.5,105.5,82.2,105.6,82.9,105.8"/>
<path class="st0" d="M98.5,100.7c0.2-0.4,0.4-0.7,0.7-1c1.1-1.1,2.1-2.3,3-3.6c0.7-0.8,1.4-1.5,2.1-2.2c0.2-0.2,0.5-0.3,0.8-0.2
	c0.3,0.4,0.5,0.8,0.6,1.2c0.1,0.8,0,1.5,0.1,2.3c0.2,1-0.4,2-1.3,2.5c-1.6,0.7-3.1,1.4-4.6,2.1C99.3,102.1,98.5,101.7,98.5,100.7
	 M104.8,97.4c0-0.5-0.1-0.6-0.6-0.4c-0.4,0.2-0.7,0.4-1,0.7c-0.1,0.1-0.2,0.3-0.2,0.5c0.1,0.2,0.3,0.4,0.6,0.4
	C104.2,98.5,104.7,98,104.8,97.4"/>
<rect x="253.2" y="14.2" class="st0" width="2.8" height="113.4"/>
<path class="st0" d="M303.7,85.8c-3,0.1-6-0.7-8.6-2.2c-2.4-1.5-4.4-3.7-5.6-6.3c-1.4-3-2.1-6.4-2-9.7c-0.1-3.3,0.6-6.7,2-9.7
	c1.2-2.6,3.1-4.8,5.6-6.3c5.4-2.9,11.9-2.9,17.3,0c2.5,1.5,4.4,3.7,5.6,6.3c1.4,3,2,6.3,2,9.7c0.1,3.4-0.6,6.7-2,9.8
	c-1.2,2.6-3.2,4.8-5.6,6.3C309.7,85.2,306.7,85.9,303.7,85.8z M303.7,82.3c3.4,0.2,6.6-1.2,8.8-3.8c2.1-2.6,3.1-6.2,3.1-10.9
	s-1-8.4-3.1-10.9c-4.6-4.9-12.3-5.1-17.2-0.5c-0.2,0.1-0.3,0.3-0.5,0.5c-2.1,2.5-3.2,6.1-3.2,10.9c0,4.7,1.1,8.3,3.2,10.9
	C297.1,81.1,300.3,82.5,303.7,82.3z"/>
<path class="st0" d="M326.9,96.2V67.3c0-1.2,0-2.3-0.1-3.5c0-1.2-0.2-2.4-0.3-3.5h3.9l0.5,5.2l-0.4,0.8c0.5-2,1.6-3.7,3.2-4.8
	c1.7-1.2,3.7-1.8,5.8-1.7c2.1,0,4.1,0.5,5.8,1.7c1.7,1.1,3.1,2.7,4,4.6c1.9,4.4,1.9,9.4,0,13.8c-1.7,3.8-5.6,6.2-9.8,6.1
	c-2.1,0.1-4.1-0.5-5.8-1.7c-1.6-1.2-2.8-2.9-3.2-4.8l0.5-0.5v17.5L326.9,96.2z M338.7,82.4c2.2,0.1,4.3-0.8,5.7-2.5
	c1.4-1.7,2-4,2-7.1s-0.7-5.5-2-7.2c-2.8-3.2-7.7-3.4-10.9-0.6c-0.2,0.2-0.4,0.3-0.5,0.5c-1.3,1.7-2,4-2,7.2c0,3.1,0.7,5.5,2,7.2
	C334.4,81.6,336.5,82.6,338.7,82.4z"/>
<path class="st0" d="M377.5,82.4c-1.2,1.1-2.7,1.9-4.2,2.4c-1.7,0.6-3.5,0.9-5.3,0.9c-2.3,0.1-4.7-0.5-6.7-1.6
	c-1.9-1-3.4-2.6-4.4-4.5c-2-4.4-2-9.4,0-13.8c0.9-1.9,2.4-3.5,4.2-4.6c1.9-1.1,4-1.7,6.2-1.7c2-0.1,4,0.5,5.7,1.5
	c1.6,1,2.9,2.5,3.7,4.2c0.9,2.1,1.4,4.3,1.3,6.6v0.8h-19v-2.7h16.7l-1.3,1.8c0.1-2.9-0.5-5.2-1.7-6.8c-1.3-1.6-3.3-2.5-5.3-2.3
	c-2.2-0.1-4.3,0.9-5.7,2.6c-1.5,2.1-2.2,4.6-2.1,7.1c0,3.3,0.7,5.7,2.2,7.4s3.6,2.5,6.4,2.5c1.4,0,2.9-0.2,4.2-0.7
	c1.4-0.5,2.7-1.3,3.9-2.2L377.5,82.4z"/>
<path class="st0" d="M384.1,85.4V67.3c0-1.2,0-2.3-0.1-3.5s-0.2-2.4-0.3-3.5h3.9l0.5,5.2l-0.5,0.4c0.6-1.9,1.8-3.5,3.5-4.6
	c1.7-1.1,3.7-1.6,5.6-1.6c6,0,9,3.3,9,10v15.8h-4V69.8c0-2.3-0.5-4-1.4-5.1c-1.1-1.2-2.8-1.8-4.4-1.6c-2.1-0.1-4.1,0.7-5.6,2.1
	c-1.5,1.6-2.2,3.7-2.1,5.8v14.4L384.1,85.4z"/>
<path class="st0" d="M425.2,85.8c-1.7,0-3.5-0.2-5.1-0.5c-1.5-0.3-3-0.8-4.5-1.5c-1.3-0.7-2.6-1.5-3.7-2.5l1.5-3.2
	c1.6,1.4,3.4,2.5,5.4,3.2c2.1,0.7,4.2,1,6.4,1c2.3,0.1,4.6-0.4,6.6-1.7c1.5-1.1,2.4-2.9,2.4-4.7c0.1-1.1-0.4-2.2-1.2-3
	c-0.9-0.8-2-1.4-3.2-1.8c-1.4-0.4-2.9-0.9-4.6-1.3s-3.3-0.8-4.9-1.3c-1.4-0.4-2.8-1-4.1-1.8c-1.1-0.7-2.1-1.7-2.8-2.8
	c-0.7-1.3-1.1-2.8-1-4.2c0-1.9,0.5-3.8,1.6-5.4c1.1-1.6,2.7-2.9,4.5-3.6c2.2-0.9,4.5-1.4,6.9-1.3c1.6,0,3.2,0.2,4.7,0.5
	c1.4,0.3,2.9,0.8,4.2,1.5c1.3,0.6,2.4,1.5,3.4,2.5l-1.6,3.2c-1.5-1.3-3.2-2.4-5-3.2c-1.8-0.7-3.7-1-5.6-1c-2.3-0.1-4.6,0.5-6.5,1.8
	c-1.6,1.1-2.4,3-2.4,4.9c-0.1,1.1,0.3,2.3,1,3.2c0.8,0.9,1.8,1.5,3,1.9c1.4,0.5,2.9,1,4.4,1.3c1.7,0.4,3.4,0.8,5,1.3
	c1.5,0.4,2.9,1,4.2,1.7c1.2,0.6,2.2,1.5,3,2.7c0.8,1.2,1.2,2.7,1.1,4.1c0,1.9-0.5,3.7-1.6,5.3c-1.2,1.6-2.7,2.8-4.5,3.5
	C430,85.5,427.6,85.9,425.2,85.8z"/>
<path class="st0" d="M444.5,85.4V48.6h4v36.8H444.5z"/>
<path class="st0" d="M456,49.6h5v4.6h-5V49.6z M456.4,85.4V60.3h4v25.2H456.4z"/>
<path class="st0" d="M490.5,85.4h-4v-6.8l0.6,0.6c-0.5,2-1.6,3.7-3.2,4.8c-1.7,1.2-3.8,1.8-5.9,1.7c-2.1,0-4.1-0.5-5.8-1.6
	c-1.7-1.1-3.1-2.7-3.9-4.6c-1-2.2-1.5-4.5-1.4-6.9c-0.1-2.4,0.4-4.7,1.4-6.8c1.7-3.8,5.6-6.2,9.8-6.1c2.1-0.1,4.1,0.5,5.9,1.7
	c1.6,1.2,2.8,2.9,3.2,4.8l-0.6,0.5V48.6h4V85.4z M478.8,82.4c2.2,0.1,4.3-0.8,5.7-2.5c1.3-1.7,2-4.1,2-7.2c0-3.1-0.7-5.4-2-7.1
	c-1.4-1.7-3.5-2.6-5.7-2.5c-2.2-0.1-4.4,0.8-5.8,2.5c-1.4,1.7-2.1,4-2.1,7s0.7,5.4,2.1,7.3C474.4,81.6,476.5,82.5,478.8,82.4z"/>
<path class="st0" d="M518.9,82.4c-1.2,1.1-2.7,1.9-4.2,2.4c-1.7,0.6-3.5,0.9-5.3,0.9c-2.3,0.1-4.7-0.5-6.7-1.6
	c-1.9-1-3.4-2.6-4.4-4.5c-1.1-2.2-1.6-4.6-1.5-7c-0.1-2.4,0.5-4.7,1.5-6.8c0.9-1.9,2.4-3.5,4.2-4.6c1.9-1.1,4-1.7,6.2-1.7
	c2-0.1,4,0.5,5.8,1.5c1.6,1,2.9,2.5,3.7,4.2c0.9,2.1,1.3,4.3,1.3,6.6v0.8h-19v-2.6h16.7l-1.3,1.8c0.1-2.9-0.5-5.2-1.7-6.8
	c-1.3-1.6-3.3-2.5-5.3-2.3c-2.2-0.1-4.3,0.9-5.7,2.6c-1.5,2.1-2.2,4.6-2.1,7.1c0,3.3,0.7,5.7,2.2,7.4s3.6,2.5,6.4,2.5
	c1.4,0,2.9-0.2,4.2-0.7c1.4-0.5,2.7-1.3,3.9-2.2L518.9,82.4z"/>
<path class="st0" d="M534,85.8c-4.2,0-7.6-1.1-10-3.2l1.3-3c1.2,1,2.6,1.8,4.1,2.3c1.5,0.5,3.1,0.7,4.7,0.7c1.5,0.1,3-0.3,4.3-1
	c1-0.6,1.5-1.7,1.5-2.8c0-0.9-0.3-1.8-1-2.4c-1-0.7-2.1-1.2-3.3-1.4l-4.2-1c-1.8-0.3-3.5-1.2-4.9-2.5c-1.1-1.1-1.7-2.7-1.7-4.3
	c0-1.4,0.4-2.7,1.2-3.9c0.9-1.2,2-2.1,3.3-2.6c1.6-0.7,3.3-1,5.1-1c1.7,0,3.4,0.3,5,0.8c1.5,0.5,2.8,1.4,3.9,2.5l-1.3,2.9
	c-1.1-0.9-2.3-1.7-3.7-2.2c-1.2-0.5-2.6-0.7-3.9-0.7c-1.5-0.1-2.9,0.2-4.2,1c-0.9,0.6-1.5,1.7-1.5,2.8c-0.1,0.9,0.3,1.8,0.9,2.4
	c0.9,0.7,1.9,1.2,3,1.4l4.3,1.1c1.9,0.3,3.8,1.2,5.2,2.5c1.1,1.2,1.7,2.7,1.7,4.4c0,2.1-0.9,4-2.7,5.2
	C539.1,85.3,536.6,85.9,534,85.8z"/>
</svg>