<svg xmlns="http://www.w3.org/2000/svg" id="Logo" version="1.1" viewBox="0 0 439.66 50" width="1200" height="136.46908975117134"><g id="Wortmarke"><path id="D" d="M37,22.27v5.4c0,.89.13,3.14-1.28,3.74-1.81.76-3.13.51-5,.54H24.54V18h6.24c1.83,0,3.14-.22,4.95.55C37.14,19.13,37,21.38,37,22.27Zm.7,17.65c3.78,0,7.91.32,10.62-1s3.21-4.78,3.21-6.58V17.67c0-1.81-.48-5.27-3.21-6.58s-6.83-1-10.62-1H10V39.93H37.71" style="fill-rule: evenodd" fill="#ffed00"/><path id="L" d="M59.76,39.93V10.05H74.31V32h19v8H59.76" fill="#ffed00"/><path id="R" d="M114.39,15.33h6.29c2,0,3.52-.16,4.88.47A2.48,2.48,0,0,1,127,18.59a2.58,2.58,0,0,1-1.43,2.82c-1.45.63-2.5.46-4.88.46h-6.29V15.33ZM99.84,39.93V10.05h27.49c3.17,0,6.76-.26,9.34.94,2.92,1.37,4.51,2.94,4.51,6.22l0,.8c0,2.56-1.07,3.89-3.21,5.26s-4.71,1.57-9.69,1.57h6a11,11,0,0,1,4.87,1,4.11,4.11,0,0,1,2.07,3.32V39.93H126.62V30.47c0-.91.07-2.39-1.22-2.8s-2.29-.31-4.54-.36h-6.47V39.93H99.84" style="fill-rule: evenodd" fill="#ffed00"/><path id="G" d="M169.14,21.87h20.77V33.29a6.33,6.33,0,0,1-4.49,6c-3,.84-6,.65-9.34.65H162.2c-4.6.06-8.52.4-10.9-1.25a6.51,6.51,0,0,1-2.93-5.39V16.69c0-2.31,1.27-4,3-5.37,2.06-1.7,6.34-1.27,10.87-1.27h13.88c5.47,0,9.08,0,11.1,1.45C190.26,13.7,190,18,190,18H176.05c-.44-2.16-1.67-2.72-4.49-2.72H167.1c-3.06,0-4.2,1-4.18,2.82V31.36c0,1.59.23,2.29,1.47,2.89,1,.49,2.63.41,4.53.41h3.53c3.34,0,3.63-1.82,3.63-3.81V27.31h-6.94V21.87" fill="#ffed00"/></g><rect id="Trenner" x="200" y="5" width="1.82" height="40" fill="#ffed00"/><path fill="#ffed00" d="M219.98,25.76q0,2.08,0.44,4.24t1.72,3.84q0.68,0.92,1.88,1.62t3.36,0.7q3.68,0,5.4-2.68q0.36-0.52,0.72-1.24t0.62-1.72t0.44-2.3t0.18-3.02q0-1.04-0.14-2.44t-0.58-2.72q-0.92-2.68-2.64-3.9t-3.96-1.22q-1.76,0-3.1,0.66t-2.22,1.78q-1.24,1.52-1.68,3.72t-0.44,4.68z M213.5,25.96q0-2.88,0.7-5.66t2.34-4.96t4.28-3.52t6.56-1.34q1.16,0,2.48,0.16t2.68,0.6t2.64,1.2t2.36,1.96q1.16,1.32,1.88,2.78t1.12,2.9t0.54,2.78t0.14,2.42q0,1.56-0.24,3.16t-0.7,3.08t-1.14,2.78t-1.56,2.3q-1.2,1.36-2.62,2.16t-2.82,1.24t-2.68,0.58t-2.16,0.14q-2.88,0-5.56-0.94t-4.68-3.02q-1.2-1.24-1.9-2.72t-1.06-2.94t-0.48-2.8t-0.12-2.34z M255.5,36.4q2.12,0,3.22-1.84t1.1-4.84q0-0.88-0.14-2.02t-0.58-2.14t-1.24-1.68t-2.12-0.68q-0.72,0-1.54,0.32t-1.5,1.1t-1.14,2.1t-0.46,3.36q0,0.44,0.08,1.48t0.5,2.12t1.3,1.9t2.52,0.82z M251.1,19.8l0.16,2.88q0.68-1.2,1.6-1.88t1.82-0.98t1.64-0.36t1.1-0.06q1.96,0,3.52,0.7t2.64,2.02t1.66,3.18t0.58,4.18q0,2.16-0.56,4.1t-1.66,3.44t-2.74,2.38t-3.84,0.88q-1.36,0-2.34-0.32t-1.64-0.74t-1.06-0.86t-0.6-0.68l0,10.08l-6.04,0l0-27.96l5.76,0z M282.26,27.68q0-0.36-0.06-1.1t-0.4-1.5t-1.06-1.34t-2-0.58q-0.96,0-1.66,0.38t-1.16,1t-0.7,1.44t-0.28,1.7l7.32,0z M274.74,31.4q0,0.48,0.06,1.4t0.46,1.8t1.22,1.54t2.38,0.66q1.12,0,2.1-0.56t1.42-2.24l5.4,0q-0.04,0.36-0.1,0.86t-0.26,1.06t-0.58,1.2t-0.98,1.28q-1.12,1.16-2.98,1.76t-4.1,0.6q-0.64,0-1.54-0.08t-1.88-0.36t-1.94-0.76t-1.76-1.32q-1.4-1.44-2-3.44t-0.6-4.44q0-1.24,0.18-2.56t0.64-2.58t1.28-2.4t2.1-2.02q1.16-0.8,2.58-1.24t3.1-0.44q1.08,0,2.24,0.24t2.24,0.8t2.04,1.5t1.64,2.34q0.52,1.04,0.78,2.08t0.36,2.02t0.1,1.82t-0.04,1.48l-13.56,0z M292.3,23.4l0-0.4q0-0.4-0.02-0.94t-0.04-1.18t-0.06-1.16l5.68,0l0.16,3.04q0.2-0.36,0.64-0.94t1.2-1.16t1.92-1t2.8-0.42q1.48,0,2.56,0.4t1.82,0.98t1.16,1.24t0.62,1.18q0.16,0.48,0.28,0.94t0.18,1.12t0.08,1.62t0.02,2.36l0,10.92l-6.04,0l0-12.56q0-0.64-0.04-1.18t-0.28-1.02q-0.32-0.68-1.02-1.2t-1.86-0.52q-0.96,0-1.78,0.42t-1.3,1.14q-0.28,0.4-0.5,1.16t-0.22,1.92l0,11.84l-5.96,0l0-16.6z M321.78,30.76q0,0.52,0.08,1.44t0.56,1.82t1.54,1.56t3.06,0.66q2.52,0,4-1.1t1.48-2.94q0-0.96-0.34-1.56t-1.02-1t-1.72-0.7t-2.4-0.62q-2.6-0.64-4.58-1.38t-3.32-1.76t-2.04-2.38t-0.7-3.24q0-1.8,0.66-3.42t2.04-2.84t3.56-1.96t5.18-0.74q1.12,0,2.32,0.14t2.36,0.54t2.2,1.06t1.84,1.66q0.6,0.8,0.94,1.6t0.5,1.52t0.18,1.3t0.02,0.94l-5.96,0q-0.04-0.36-0.16-1.1t-0.6-1.48t-1.4-1.28t-2.52-0.54q-2.16,0-3.46,1.06t-1.3,2.86q0,1,0.4,1.64t1.18,1.08t1.96,0.76t2.74,0.72q1.88,0.44,3.66,0.98t3.18,1.44t2.24,2.28t0.84,3.5q0,1.96-0.8,3.66t-2.36,2.98t-3.86,2.02t-5.3,0.74q-2.76,0-4.66-0.54t-3.16-1.4t-1.92-1.96t-1-2.2t-0.4-2.1t-0.06-1.72l6.32,0z M343.34,11.08l5.92,0l0,28.92l-5.92,0l0-28.92z M354.46,19.76l5.92,0l0,20.24l-5.92,0l0-20.24z M354.26,11.12l6.32,0l0,5.16l-6.32,0l0-5.16z M370.34,30.2q0,1.28,0.22,2.42t0.7,2.02t1.26,1.4t1.9,0.52q1.28,0,2.28-0.68t1.48-1.6q0.68-1.28,0.82-2.64t0.14-2.12q0-3-1.18-4.56t-3.22-1.56q-1.48,0-2.36,0.78t-1.32,1.86t-0.58,2.24t-0.14,1.92z M378.94,11.12l5.96,0l0,25.6q0,0.92,0.04,1.82t0.12,1.46l-6,0l-0.16-2.92q-0.32,0.56-0.72,1.12t-1.32,1.16q-1.12,0.72-2.18,0.88t-1.74,0.16q-4.08,0-6.34-2.64t-2.26-7.4q0-2.52,0.66-4.52t1.82-3.4t2.8-2.16t3.64-0.76q1.36,0,2.34,0.34t1.66,0.78t1.08,0.9t0.6,0.74l0-11.16z M402.3,27.68q0-0.36-0.06-1.1t-0.4-1.5t-1.06-1.34t-2-0.58q-0.96,0-1.66,0.38t-1.16,1t-0.7,1.44t-0.28,1.7l7.32,0z M394.78,31.4q0,0.48,0.06,1.4t0.46,1.8t1.22,1.54t2.38,0.66q1.12,0,2.1-0.56t1.42-2.24l5.4,0q-0.04,0.36-0.1,0.86t-0.26,1.06t-0.58,1.2t-0.98,1.28q-1.12,1.16-2.98,1.76t-4.1,0.6q-0.64,0-1.54-0.08t-1.88-0.36t-1.94-0.76t-1.76-1.32q-1.4-1.44-2-3.44t-0.6-4.44q0-1.24,0.18-2.56t0.64-2.58t1.28-2.4t2.1-2.02q1.16-0.8,2.58-1.24t3.1-0.44q1.08,0,2.24,0.24t2.24,0.8t2.04,1.5t1.64,2.34q0.52,1.04,0.78,2.08t0.36,2.02t0.1,1.82t-0.04,1.48l-13.56,0z M416.38,34.16q0.04,0.48,0.22,0.98t0.56,0.88t1.02,0.64t1.56,0.26q1.6,0,2.36-0.74t0.76-1.66q0-0.68-0.54-1.24t-2.26-1.04l-3.68-1q-0.6-0.16-1.48-0.48t-1.7-0.94t-1.38-1.62t-0.56-2.56q0-1.48,0.64-2.64t1.82-1.98t2.8-1.26t3.58-0.44q1.56,0,2.94,0.36t2.4,1.1t1.64,1.86t0.7,2.64l-5.4,0q-0.08-0.84-0.4-1.32t-0.76-0.72t-0.9-0.3t-0.82-0.06q-1.2,0-2,0.54t-0.8,1.46q0,1.04,0.72,1.4t2.04,0.72l3.64,1q2.76,0.76,4.08,2.16t1.32,3.48q0,1.32-0.56,2.56t-1.72,2.22t-2.9,1.58t-4.1,0.6q-1.96,0-3.74-0.52t-3.18-1.96q-1-1.04-1.22-2.14t-0.26-1.82l5.56,0z"/></svg>